<svg xmlns="http://www.w3.org/2000/svg" xmlns:xlink="http://www.w3.org/1999/xlink" contentStyleType="text/css" data-diagram-type="SEQUENCE" height="612.5px" preserveAspectRatio="none" style="width:519px;height:612px;" version="1.1" viewBox="0 0 519 612" width="519.7917px" zoomAndPan="magnify"><defs><linearGradient id="g15gpsppckvpkw0" x1="50%" x2="50%" y1="0%" y2="100%"><stop offset="0%" stop-color="#59B6EC"/><stop offset="100%" stop-color="#2FA4E7"/></linearGradient></defs><g><g><title>PTManagementAuthority</title><rect fill="#FFFFFF" fill-opacity="0.00000" height="416.3411" width="8.3333" x="97.4772" y="98.9258"/><line style="stroke:#BABDBF;stroke-width:1.0417;stroke-dasharray:5.0,5.0;" x1="101.0417" x2="101.0417" y1="98.9258" y2="515.2669"/></g><g><title>TransitNetOptimizer</title><rect fill="#FFFFFF" fill-opacity="0.00000" height="416.3411" width="8.3333" x="428.7557" y="98.9258"/><line style="stroke:#BABDBF;stroke-width:1.0417;stroke-dasharray:5.0,5.0;" x1="432.2357" x2="432.2357" y1="98.9258" y2="515.2669"/></g><g><text fill="#343A40" font-family="Verdana" font-size="12.5" lengthAdjust="spacing" textLength="155.3711" x="20.8333" y="90.7694">PTManagementAuthority</text><ellipse cx="101.6439" cy="19.7917" fill="url(#g15gpsppckvpkw0)" rx="8.3333" ry="8.3333" style="stroke:#2FA4E7;stroke-width:1.0417;"/><path d="M101.6439,28.125 L101.6439,56.25 M88.1022,36.4583 L115.1855,36.4583 M101.6439,56.25 L88.1022,71.875 M101.6439,56.25 L115.1855,71.875 " fill="#FFFFFF" fill-opacity="0.00000" style="stroke:#2FA4E7;stroke-width:1.0417;"/></g><g><text fill="#343A40" font-family="Verdana" font-size="12.5" lengthAdjust="spacing" textLength="155.3711" x="20.8333" y="531.0364">PTManagementAuthority</text><ellipse cx="101.6439" cy="548.5677" fill="url(#g15gpsppckvpkw0)" rx="8.3333" ry="8.3333" style="stroke:#2FA4E7;stroke-width:1.0417;"/><path d="M101.6439,556.901 L101.6439,585.026 M88.1022,565.2344 L115.1855,565.2344 M101.6439,585.026 L88.1022,600.651 M101.6439,585.026 L115.1855,600.651 " fill="#FFFFFF" fill-opacity="0.00000" style="stroke:#2FA4E7;stroke-width:1.0417;"/></g><g><rect fill="url(#g15gpsppckvpkw0)" height="39.5508" rx="4.1667" ry="4.1667" style="stroke:#2FA4E7;stroke-width:1.0417;" width="151.3733" x="357.2357" y="58.3333"/><text fill="#FFFFFF" font-family="Verdana" font-size="12.5" lengthAdjust="spacing" textLength="126.3733" x="369.7357" y="82.4361">TransitNetOptimizer</text></g><g><rect fill="url(#g15gpsppckvpkw0)" height="39.5508" rx="4.1667" ry="4.1667" style="stroke:#2FA4E7;stroke-width:1.0417;" width="151.3733" x="357.2357" y="514.2253"/><text fill="#FFFFFF" font-family="Verdana" font-size="12.5" lengthAdjust="spacing" textLength="126.3733" x="369.7357" y="538.328">TransitNetOptimizer</text></g><g><polygon fill="#2FA4E7" points="420.4224,136.3932,430.839,140.5599,420.4224,144.7266,424.589,140.5599" style="stroke:#2FA4E7;stroke-width:1.0417;"/><line style="stroke:#2FA4E7;stroke-width:3.125;" x1="101.6439" x2="426.6724" y1="140.5599" y2="140.5599"/><text fill="#343A40" font-family="Verdana" font-size="12.5" lengthAdjust="spacing" textLength="138.5925" x="114.1439" y="130.3202">login(userCredentials)</text></g><g><polygon fill="#2FA4E7" points="113.1022,175.944,102.6855,180.1107,113.1022,184.2773,108.9355,180.1107" style="stroke:#2FA4E7;stroke-width:1.0417;"/><line style="stroke:#2FA4E7;stroke-width:3.125;stroke-dasharray:2.0,2.0;" x1="106.8522" x2="431.8807" y1="180.1107" y2="180.1107"/><text fill="#343A40" font-family="Verdana" font-size="12.5" lengthAdjust="spacing" textLength="203.7842" x="124.5605" y="169.871">Confirms login success or failure</text></g><g><polygon fill="#2FA4E7" points="420.4224,215.4948,430.839,219.6615,420.4224,223.8281,424.589,219.6615" style="stroke:#2FA4E7;stroke-width:1.0417;"/><line style="stroke:#2FA4E7;stroke-width:3.125;" x1="101.6439" x2="426.6724" y1="219.6615" y2="219.6615"/><text fill="#343A40" font-family="Verdana" font-size="12.5" lengthAdjust="spacing" textLength="187.4207" x="114.1439" y="209.4218">accessDecisionSupportTools()</text></g><g><polygon fill="#2FA4E7" points="113.1022,255.0456,102.6855,259.2122,113.1022,263.3789,108.9355,259.2122" style="stroke:#2FA4E7;stroke-width:1.0417;"/><line style="stroke:#2FA4E7;stroke-width:3.125;stroke-dasharray:2.0,2.0;" x1="106.8522" x2="431.8807" y1="259.2122" y2="259.2122"/><text fill="#343A40" font-family="Verdana" font-size="12.5" lengthAdjust="spacing" textLength="209.7412" x="124.5605" y="248.9726">Displays key metrics and insights</text></g><g><polygon fill="#2FA4E7" points="420.4224,294.5964,430.839,298.763,420.4224,302.9297,424.589,298.763" style="stroke:#2FA4E7;stroke-width:1.0417;"/><line style="stroke:#2FA4E7;stroke-width:3.125;" x1="101.6439" x2="426.6724" y1="298.763" y2="298.763"/><text fill="#343A40" font-family="Verdana" font-size="12.5" lengthAdjust="spacing" textLength="249.4385" x="114.1439" y="288.5234">simulateScenarios(scenarioParameters)</text></g><g><polygon fill="#2FA4E7" points="113.1022,334.1471,102.6855,338.3138,113.1022,342.4805,108.9355,338.3138" style="stroke:#2FA4E7;stroke-width:1.0417;"/><line style="stroke:#2FA4E7;stroke-width:3.125;stroke-dasharray:2.0,2.0;" x1="106.8522" x2="431.8807" y1="338.3138" y2="338.3138"/><text fill="#343A40" font-family="Verdana" font-size="12.5" lengthAdjust="spacing" textLength="295.8618" x="124.5605" y="328.0741">Provides predictive insights on scenario impact</text></g><g><polygon fill="#2FA4E7" points="420.4224,373.6979,430.839,377.8646,420.4224,382.0313,424.589,377.8646" style="stroke:#2FA4E7;stroke-width:1.0417;"/><line style="stroke:#2FA4E7;stroke-width:3.125;" x1="101.6439" x2="426.6724" y1="377.8646" y2="377.8646"/><text fill="#343A40" font-family="Verdana" font-size="12.5" lengthAdjust="spacing" textLength="192.2546" x="114.1439" y="367.6249">finalizeDecisions(decisionPlan)</text></g><g><polygon fill="#2FA4E7" points="113.1022,413.2487,102.6855,417.4154,113.1022,421.582,108.9355,417.4154" style="stroke:#2FA4E7;stroke-width:1.0417;"/><line style="stroke:#2FA4E7;stroke-width:3.125;stroke-dasharray:2.0,2.0;" x1="106.8522" x2="431.8807" y1="417.4154" y2="417.4154"/><text fill="#343A40" font-family="Verdana" font-size="12.5" lengthAdjust="spacing" textLength="197.5891" x="124.5605" y="407.1757">Confirms decision plan is saved</text></g><g><polygon fill="#2FA4E7" points="420.4224,452.7995,430.839,456.9661,420.4224,461.1328,424.589,456.9661" style="stroke:#2FA4E7;stroke-width:1.0417;"/><line style="stroke:#2FA4E7;stroke-width:3.125;" x1="101.6439" x2="426.6724" y1="456.9661" y2="456.9661"/><text fill="#343A40" font-family="Verdana" font-size="12.5" lengthAdjust="spacing" textLength="228.8452" x="114.1439" y="446.7265">exportDecisionReport(reportFormat)</text></g><g><polygon fill="#2FA4E7" points="113.1022,492.3503,102.6855,496.5169,113.1022,500.6836,108.9355,496.5169" style="stroke:#2FA4E7;stroke-width:1.0417;"/><line style="stroke:#2FA4E7;stroke-width:3.125;stroke-dasharray:2.0,2.0;" x1="106.8522" x2="431.8807" y1="496.5169" y2="496.5169"/><text fill="#343A40" font-family="Verdana" font-size="12.5" lengthAdjust="spacing" textLength="272.4976" x="124.5605" y="486.2773">Generates and provides the decision report</text></g><!--SRC=[dPDDJWCn38NtSmgp6nQzG1T8g1Mie2Cw5x0oRckHFzbEHJazwS_0ffkmYkCapv_UKnxiG870aHHF63jqbWI6yGqZxkj9jETYXoHifwwxsuR54uo2KTdUoJRPEF0toH9ysdFiYvAiXARwXD7hOtVdBYognbtn9QnItB44lSg15kT85Iha3jaNeLOil0YioR5oYjkISn8RK_BQDyEjMRF7ay8ddI2G2Ji5Z1DmLTaVJ5lXb4FnQBHr554uQQ-tQa31Ee6atS91qf4dKiWr1tR6H_e5X5GzlOq03hdctygyuuY-bhEbsa-tQl0O_n_uh0BLuWYie7YagPMElixvpcmVTDxrSbbUaWIqPi1NYYGreslIUJQtVgG_vEk07m00]--></g></svg>