<svg xmlns="http://www.w3.org/2000/svg" xmlns:xlink="http://www.w3.org/1999/xlink" contentStyleType="text/css" data-diagram-type="SEQUENCE" height="532.2917px" preserveAspectRatio="none" style="width:511px;height:532px;" version="1.1" viewBox="0 0 511 532" width="511.4583px" zoomAndPan="magnify"><defs><linearGradient id="g1i66ye7szew010" x1="50%" x2="50%" y1="0%" y2="100%"><stop offset="0%" stop-color="#59B6EC"/><stop offset="100%" stop-color="#2FA4E7"/></linearGradient></defs><g><rect fill="#FFFFFF" fill-opacity="0.00000" height="142.5456" rx="4.1667" ry="4.1667" style="stroke:#59B6EC;stroke-width:1.0417;" width="478.2562" x="20.8333" y="274.8372"/><g><title>User</title><rect fill="#FFFFFF" fill-opacity="0.00000" height="336.1654" width="8.3333" x="49.6623" y="98.9258"/><line style="stroke:#BABDBF;stroke-width:1.0417;stroke-dasharray:5.0,5.0;" x1="53.125" x2="53.125" y1="98.9258" y2="435.0911"/></g><g><title>TransitNetOptimizer</title><rect fill="#FFFFFF" fill-opacity="0.00000" height="336.1654" width="8.3333" x="367.1529" y="98.9258"/><line style="stroke:#BABDBF;stroke-width:1.0417;stroke-dasharray:5.0,5.0;" x1="370.6329" x2="370.6329" y1="98.9258" y2="435.0911"/></g><g><text fill="#343A40" font-family="Verdana" font-size="12.5" lengthAdjust="spacing" textLength="28.4912" x="36.4583" y="90.7694">User</text><ellipse cx="53.8289" cy="19.7917" fill="url(#g1i66ye7szew010)" rx="8.3333" ry="8.3333" style="stroke:#2FA4E7;stroke-width:1.0417;"/><path d="M53.8289,28.125 L53.8289,56.25 M40.2873,36.4583 L67.3706,36.4583 M53.8289,56.25 L40.2873,71.875 M53.8289,56.25 L67.3706,71.875 " fill="#FFFFFF" fill-opacity="0.00000" style="stroke:#2FA4E7;stroke-width:1.0417;"/></g><g><text fill="#343A40" font-family="Verdana" font-size="12.5" lengthAdjust="spacing" textLength="28.4912" x="36.4583" y="450.8606">User</text><ellipse cx="53.8289" cy="468.3919" fill="url(#g1i66ye7szew010)" rx="8.3333" ry="8.3333" style="stroke:#2FA4E7;stroke-width:1.0417;"/><path d="M53.8289,476.7253 L53.8289,504.8503 M40.2873,485.0586 L67.3706,485.0586 M53.8289,504.8503 L40.2873,520.4753 M53.8289,504.8503 L67.3706,520.4753 " fill="#FFFFFF" fill-opacity="0.00000" style="stroke:#2FA4E7;stroke-width:1.0417;"/></g><g><rect fill="url(#g1i66ye7szew010)" height="39.5508" rx="4.1667" ry="4.1667" style="stroke:#2FA4E7;stroke-width:1.0417;" width="151.3733" x="295.6329" y="58.3333"/><text fill="#FFFFFF" font-family="Verdana" font-size="12.5" lengthAdjust="spacing" textLength="126.3733" x="308.1329" y="82.4361">TransitNetOptimizer</text></g><g><rect fill="url(#g1i66ye7szew010)" height="39.5508" rx="4.1667" ry="4.1667" style="stroke:#2FA4E7;stroke-width:1.0417;" width="151.3733" x="295.6329" y="434.0495"/><text fill="#FFFFFF" font-family="Verdana" font-size="12.5" lengthAdjust="spacing" textLength="126.3733" x="308.1329" y="458.1523">TransitNetOptimizer</text></g><g><polygon fill="#2FA4E7" points="358.8196,136.3932,369.2362,140.5599,358.8196,144.7266,362.9862,140.5599" style="stroke:#2FA4E7;stroke-width:1.0417;"/><line style="stroke:#2FA4E7;stroke-width:3.125;" x1="53.8289" x2="365.0696" y1="140.5599" y2="140.5599"/><text fill="#343A40" font-family="Verdana" font-size="12.5" lengthAdjust="spacing" textLength="144.4397" x="66.3289" y="130.3202">navigateToLoginPage()</text></g><g><polygon fill="#2FA4E7" points="65.2873,175.944,54.8706,180.1107,65.2873,184.2773,61.1206,180.1107" style="stroke:#2FA4E7;stroke-width:1.0417;"/><line style="stroke:#2FA4E7;stroke-width:3.125;stroke-dasharray:2.0,2.0;" x1="59.0373" x2="370.2779" y1="180.1107" y2="180.1107"/><text fill="#343A40" font-family="Verdana" font-size="12.5" lengthAdjust="spacing" textLength="120.3491" x="76.7456" y="169.871">Displays login form</text></g><g><polygon fill="#2FA4E7" points="358.8196,215.4948,369.2362,219.6615,358.8196,223.8281,362.9862,219.6615" style="stroke:#2FA4E7;stroke-width:1.0417;"/><line style="stroke:#2FA4E7;stroke-width:3.125;" x1="53.8289" x2="365.0696" y1="219.6615" y2="219.6615"/><text fill="#343A40" font-family="Verdana" font-size="12.5" lengthAdjust="spacing" textLength="282.074" x="66.3289" y="209.4218">enterCredentials(email, password, userType)</text></g><g><polygon fill="#2FA4E7" points="65.2873,255.0456,54.8706,259.2122,65.2873,263.3789,61.1206,259.2122" style="stroke:#2FA4E7;stroke-width:1.0417;"/><line style="stroke:#2FA4E7;stroke-width:3.125;stroke-dasharray:2.0,2.0;" x1="59.0373" x2="370.2779" y1="259.2122" y2="259.2122"/><text fill="#343A40" font-family="Verdana" font-size="12.5" lengthAdjust="spacing" textLength="131.0974" x="76.7456" y="248.9726">Validates credentials</text></g><path d="M25,274.8372 L96.8201,274.8372 L96.8201,291.4714 L86.4034,301.888 L20.8333,301.888 L20.8333,279.0039 A4.1667,4.1667 0 0 1 25,274.8372 " fill="#E9ECEF" style="stroke:#868E96;stroke-width:1.0417;"/><rect fill="#FFFFFF" fill-opacity="0.00000" height="142.5456" rx="4.1667" ry="4.1667" style="stroke:#59B6EC;stroke-width:1.0417;" width="478.2562" x="20.8333" y="274.8372"/><text fill="#033C73" font-family="Verdana" font-size="12.5" font-weight="bold" lengthAdjust="spacing" textLength="18.6951" x="41.6667" y="292.69">alt</text><text fill="#343A40" font-family="Verdana" font-size="12.5" font-weight="bold" lengthAdjust="spacing" textLength="131.9641" x="117.6534" y="293.7317">[Credentials Valid]</text><g><polygon fill="#2FA4E7" points="65.2873,338.2813,54.8706,342.4479,65.2873,346.6146,61.1206,342.4479" style="stroke:#2FA4E7;stroke-width:1.0417;"/><line style="stroke:#2FA4E7;stroke-width:3.125;" x1="59.0373" x2="370.2779" y1="342.4479" y2="342.4479"/><text fill="#343A40" font-family="Verdana" font-size="12.5" lengthAdjust="spacing" textLength="178.0884" x="76.7456" y="332.2083">Grants access to the system</text></g><line style="stroke:#59B6EC;stroke-width:1.0417;stroke-dasharray:2.0,2.0;" x1="20.8333" x2="499.0896" y1="351.8229" y2="351.8229"/><text fill="#343A40" font-family="Verdana" font-size="12.5" font-weight="bold" lengthAdjust="spacing" textLength="143.988" x="31.25" y="368.634">[Credentials Invalid]</text><g><polygon fill="#2FA4E7" points="65.2873,404.8828,54.8706,409.0495,65.2873,413.2161,61.1206,409.0495" style="stroke:#2FA4E7;stroke-width:1.0417;"/><line style="stroke:#2FA4E7;stroke-width:3.125;" x1="59.0373" x2="370.2779" y1="409.0495" y2="409.0495"/><text fill="#343A40" font-family="Verdana" font-size="12.5" lengthAdjust="spacing" textLength="265.4175" x="76.7456" y="398.8098">Displays error message and prompts retry</text></g><!--SRC=[ZP7DIWDH38NtzodYhaBx0brqeo22M1TJz-7ESRnm_qZIolZqPX3_e52p284atmadL_QA0egGOmRNmD6Qq44X8IoPDZiQXAicUuJjkwMItY5RgdnA4nk6zj2cL9zumkewd1cbZICMr9Pka_RCir9ULkYbIRcWWcgG6y7eHUAiAnHEUKsTLT-QZ6iw-lemTrpIVkQSHhzNAVxWGk1iz8l_EHR8uopkYtRdJLFY6A5AriXj99tLK0AouW_plfx-H_ts1oB-XU9ijvMuZjIbbUwA0fCve8uV]--></g></svg>