<svg xmlns="http://www.w3.org/2000/svg" xmlns:xlink="http://www.w3.org/1999/xlink" contentStyleType="text/css" data-diagram-type="SEQUENCE" height="612.5px" preserveAspectRatio="none" style="width:470px;height:612px;" version="1.1" viewBox="0 0 470 612" width="470.8333px" zoomAndPan="magnify"><defs><linearGradient id="gg84e1ij91s4n0" x1="50%" x2="50%" y1="0%" y2="100%"><stop offset="0%" stop-color="#59B6EC"/><stop offset="100%" stop-color="#2FA4E7"/></linearGradient></defs><g><g><title>Engineer</title><rect fill="#FFFFFF" fill-opacity="0.00000" height="416.3411" width="8.3333" x="47.6267" y="98.9258"/><line style="stroke:#BABDBF;stroke-width:1.0417;stroke-dasharray:5.0,5.0;" x1="51.0417" x2="51.0417" y1="98.9258" y2="515.2669"/></g><g><title>TransitNetOptimizer</title><rect fill="#FFFFFF" fill-opacity="0.00000" height="416.3411" width="8.3333" x="380.3945" y="98.9258"/><line style="stroke:#BABDBF;stroke-width:1.0417;stroke-dasharray:5.0,5.0;" x1="383.8745" x2="383.8745" y1="98.9258" y2="515.2669"/></g><g><text fill="#343A40" font-family="Verdana" font-size="12.5" lengthAdjust="spacing" textLength="55.6702" x="20.8333" y="90.7694">Engineer</text><ellipse cx="51.7934" cy="19.7917" fill="url(#gg84e1ij91s4n0)" rx="8.3333" ry="8.3333" style="stroke:#2FA4E7;stroke-width:1.0417;"/><path d="M51.7934,28.125 L51.7934,56.25 M38.2517,36.4583 L65.3351,36.4583 M51.7934,56.25 L38.2517,71.875 M51.7934,56.25 L65.3351,71.875 " fill="#FFFFFF" fill-opacity="0.00000" style="stroke:#2FA4E7;stroke-width:1.0417;"/></g><g><text fill="#343A40" font-family="Verdana" font-size="12.5" lengthAdjust="spacing" textLength="55.6702" x="20.8333" y="531.0364">Engineer</text><ellipse cx="51.7934" cy="548.5677" fill="url(#gg84e1ij91s4n0)" rx="8.3333" ry="8.3333" style="stroke:#2FA4E7;stroke-width:1.0417;"/><path d="M51.7934,556.901 L51.7934,585.026 M38.2517,565.2344 L65.3351,565.2344 M51.7934,585.026 L38.2517,600.651 M51.7934,585.026 L65.3351,600.651 " fill="#FFFFFF" fill-opacity="0.00000" style="stroke:#2FA4E7;stroke-width:1.0417;"/></g><g><rect fill="url(#gg84e1ij91s4n0)" height="39.5508" rx="4.1667" ry="4.1667" style="stroke:#2FA4E7;stroke-width:1.0417;" width="151.3733" x="308.8745" y="58.3333"/><text fill="#FFFFFF" font-family="Verdana" font-size="12.5" lengthAdjust="spacing" textLength="126.3733" x="321.3745" y="82.4361">TransitNetOptimizer</text></g><g><rect fill="url(#gg84e1ij91s4n0)" height="39.5508" rx="4.1667" ry="4.1667" style="stroke:#2FA4E7;stroke-width:1.0417;" width="151.3733" x="308.8745" y="514.2253"/><text fill="#FFFFFF" font-family="Verdana" font-size="12.5" lengthAdjust="spacing" textLength="126.3733" x="321.3745" y="538.328">TransitNetOptimizer</text></g><g><polygon fill="#2FA4E7" points="372.0612,136.3932,382.4778,140.5599,372.0612,144.7266,376.2278,140.5599" style="stroke:#2FA4E7;stroke-width:1.0417;"/><line style="stroke:#2FA4E7;stroke-width:3.125;" x1="51.7934" x2="378.3112" y1="140.5599" y2="140.5599"/><text fill="#343A40" font-family="Verdana" font-size="12.5" lengthAdjust="spacing" textLength="138.5925" x="64.2934" y="130.3202">login(userCredentials)</text></g><g><polygon fill="#2FA4E7" points="63.2517,175.944,52.8351,180.1107,63.2517,184.2773,59.0851,180.1107" style="stroke:#2FA4E7;stroke-width:1.0417;"/><line style="stroke:#2FA4E7;stroke-width:3.125;stroke-dasharray:2.0,2.0;" x1="57.0017" x2="383.5195" y1="180.1107" y2="180.1107"/><text fill="#343A40" font-family="Verdana" font-size="12.5" lengthAdjust="spacing" textLength="203.7842" x="74.7101" y="169.871">Confirms login success or failure</text></g><g><polygon fill="#2FA4E7" points="372.0612,215.4948,382.4778,219.6615,372.0612,223.8281,376.2278,219.6615" style="stroke:#2FA4E7;stroke-width:1.0417;"/><line style="stroke:#2FA4E7;stroke-width:3.125;" x1="51.7934" x2="378.3112" y1="219.6615" y2="219.6615"/><text fill="#343A40" font-family="Verdana" font-size="12.5" lengthAdjust="spacing" textLength="171.5759" x="64.2934" y="209.4218">selectVisualizationModule()</text></g><g><polygon fill="#2FA4E7" points="63.2517,255.0456,52.8351,259.2122,63.2517,263.3789,59.0851,259.2122" style="stroke:#2FA4E7;stroke-width:1.0417;"/><line style="stroke:#2FA4E7;stroke-width:3.125;stroke-dasharray:2.0,2.0;" x1="57.0017" x2="383.5195" y1="259.2122" y2="259.2122"/><text fill="#343A40" font-family="Verdana" font-size="12.5" lengthAdjust="spacing" textLength="235.4675" x="74.7101" y="248.9726">Displays visualization module options</text></g><g><polygon fill="#2FA4E7" points="372.0612,294.5964,382.4778,298.763,372.0612,302.9297,376.2278,298.763" style="stroke:#2FA4E7;stroke-width:1.0417;"/><line style="stroke:#2FA4E7;stroke-width:3.125;" x1="51.7934" x2="378.3112" y1="298.763" y2="298.763"/><text fill="#343A40" font-family="Verdana" font-size="12.5" lengthAdjust="spacing" textLength="264.0564" x="64.2934" y="288.5234">toggleVisualizationLayers(selectedLayers)</text></g><g><polygon fill="#2FA4E7" points="63.2517,334.1471,52.8351,338.3138,63.2517,342.4805,59.0851,338.3138" style="stroke:#2FA4E7;stroke-width:1.0417;"/><line style="stroke:#2FA4E7;stroke-width:3.125;stroke-dasharray:2.0,2.0;" x1="57.0017" x2="383.5195" y1="338.3138" y2="338.3138"/><text fill="#343A40" font-family="Verdana" font-size="12.5" lengthAdjust="spacing" textLength="262.9089" x="74.7101" y="328.0741">Updates visualization with selected layers</text></g><g><polygon fill="#2FA4E7" points="372.0612,373.6979,382.4778,377.8646,372.0612,382.0313,376.2278,377.8646" style="stroke:#2FA4E7;stroke-width:1.0417;"/><line style="stroke:#2FA4E7;stroke-width:3.125;" x1="51.7934" x2="378.3112" y1="377.8646" y2="377.8646"/><text fill="#343A40" font-family="Verdana" font-size="12.5" lengthAdjust="spacing" textLength="297.3511" x="64.2934" y="367.6249">customizeVisualizationParameters(parameters)</text></g><g><polygon fill="#2FA4E7" points="63.2517,413.2487,52.8351,417.4154,63.2517,421.582,59.0851,417.4154" style="stroke:#2FA4E7;stroke-width:1.0417;"/><line style="stroke:#2FA4E7;stroke-width:3.125;stroke-dasharray:2.0,2.0;" x1="57.0017" x2="383.5195" y1="417.4154" y2="417.4154"/><text fill="#343A40" font-family="Verdana" font-size="12.5" lengthAdjust="spacing" textLength="252.5146" x="74.7101" y="407.1757">Adjusts visualization display accordingly</text></g><g><polygon fill="#2FA4E7" points="372.0612,452.7995,382.4778,456.9661,372.0612,461.1328,376.2278,456.9661" style="stroke:#2FA4E7;stroke-width:1.0417;"/><line style="stroke:#2FA4E7;stroke-width:3.125;" x1="51.7934" x2="378.3112" y1="456.9661" y2="456.9661"/><text fill="#343A40" font-family="Verdana" font-size="12.5" lengthAdjust="spacing" textLength="221.6309" x="64.2934" y="446.7265">exportVisualizations(exportFormat)</text></g><g><polygon fill="#2FA4E7" points="63.2517,492.3503,52.8351,496.5169,63.2517,500.6836,59.0851,496.5169" style="stroke:#2FA4E7;stroke-width:1.0417;"/><line style="stroke:#2FA4E7;stroke-width:3.125;stroke-dasharray:2.0,2.0;" x1="57.0017" x2="383.5195" y1="496.5169" y2="496.5169"/><text fill="#343A40" font-family="Verdana" font-size="12.5" lengthAdjust="spacing" textLength="279.6326" x="74.7101" y="486.2773">Generates and provides the visualization file</text></g><!--SRC=[ZPA_JWCn38VtUmgp7KDVe0CIAdyM2Wp0RYNkrIYNHBQlS7rwSZqLqHD3DlyYw_CN9rUsfvx0aGo1C3ReB0dSnuuZaJJDkOBL3Rm9HcLx9dl9nZqVITOGKcbe1oNP27cAnXZqklcd5rQ5SUQjOPFYZgNNcG0wE4UgKARlaCCWL35SAP2p3zO10n_HECLjykKcROt17MiEE2eS_WAWFn4WvIbfXOMbhWjqOV648ucsin_vETOulMUFHakbBxOzd64GJhGACJUefQc-S7j5mPviyik_POtRhVyimAMRdxS8w5mIpx4BOuKQVUSabo-dxNpuaAH7gn5wf4XoMXT63rdIWNq9vKil77SSw0S0]--></g></svg>