<svg xmlns="http://www.w3.org/2000/svg" xmlns:xlink="http://www.w3.org/1999/xlink" contentStyleType="text/css" data-diagram-type="SEQUENCE" height="691.6667px" preserveAspectRatio="none" style="width:513px;height:691px;" version="1.1" viewBox="0 0 513 691" width="513.5417px" zoomAndPan="magnify"><defs><linearGradient id="g1c8my67q5l0ou0" x1="50%" x2="50%" y1="0%" y2="100%"><stop offset="0%" stop-color="#59B6EC"/><stop offset="100%" stop-color="#2FA4E7"/></linearGradient></defs><g><g><title>Engineer</title><rect fill="#FFFFFF" fill-opacity="0.00000" height="495.4427" width="8.3333" x="47.6267" y="98.9258"/><line style="stroke:#BABDBF;stroke-width:1.0417;stroke-dasharray:5.0,5.0;" x1="51.0417" x2="51.0417" y1="98.9258" y2="594.3685"/></g><g><title>TransitNetOptimizer</title><rect fill="#FFFFFF" fill-opacity="0.00000" height="495.4427" width="8.3333" x="423.1191" y="98.9258"/><line style="stroke:#BABDBF;stroke-width:1.0417;stroke-dasharray:5.0,5.0;" x1="426.5991" x2="426.5991" y1="98.9258" y2="594.3685"/></g><g><text fill="#343A40" font-family="Verdana" font-size="12.5" lengthAdjust="spacing" textLength="55.6702" x="20.8333" y="90.7694">Engineer</text><ellipse cx="51.7934" cy="19.7917" fill="url(#g1c8my67q5l0ou0)" rx="8.3333" ry="8.3333" style="stroke:#2FA4E7;stroke-width:1.0417;"/><path d="M51.7934,28.125 L51.7934,56.25 M38.2517,36.4583 L65.3351,36.4583 M51.7934,56.25 L38.2517,71.875 M51.7934,56.25 L65.3351,71.875 " fill="#FFFFFF" fill-opacity="0.00000" style="stroke:#2FA4E7;stroke-width:1.0417;"/></g><g><text fill="#343A40" font-family="Verdana" font-size="12.5" lengthAdjust="spacing" textLength="55.6702" x="20.8333" y="610.1379">Engineer</text><ellipse cx="51.7934" cy="627.6693" fill="url(#g1c8my67q5l0ou0)" rx="8.3333" ry="8.3333" style="stroke:#2FA4E7;stroke-width:1.0417;"/><path d="M51.7934,636.0026 L51.7934,664.1276 M38.2517,644.3359 L65.3351,644.3359 M51.7934,664.1276 L38.2517,679.7526 M51.7934,664.1276 L65.3351,679.7526 " fill="#FFFFFF" fill-opacity="0.00000" style="stroke:#2FA4E7;stroke-width:1.0417;"/></g><g><rect fill="url(#g1c8my67q5l0ou0)" height="39.5508" rx="4.1667" ry="4.1667" style="stroke:#2FA4E7;stroke-width:1.0417;" width="151.3733" x="351.5991" y="58.3333"/><text fill="#FFFFFF" font-family="Verdana" font-size="12.5" lengthAdjust="spacing" textLength="126.3733" x="364.0991" y="82.4361">TransitNetOptimizer</text></g><g><rect fill="url(#g1c8my67q5l0ou0)" height="39.5508" rx="4.1667" ry="4.1667" style="stroke:#2FA4E7;stroke-width:1.0417;" width="151.3733" x="351.5991" y="593.3268"/><text fill="#FFFFFF" font-family="Verdana" font-size="12.5" lengthAdjust="spacing" textLength="126.3733" x="364.0991" y="617.4296">TransitNetOptimizer</text></g><g><polygon fill="#2FA4E7" points="414.7858,136.3932,425.2024,140.5599,414.7858,144.7266,418.9524,140.5599" style="stroke:#2FA4E7;stroke-width:1.0417;"/><line style="stroke:#2FA4E7;stroke-width:3.125;" x1="51.7934" x2="421.0358" y1="140.5599" y2="140.5599"/><text fill="#343A40" font-family="Verdana" font-size="12.5" lengthAdjust="spacing" textLength="138.5925" x="64.2934" y="130.3202">login(userCredentials)</text></g><g><polygon fill="#2FA4E7" points="63.2517,175.944,52.8351,180.1107,63.2517,184.2773,59.0851,180.1107" style="stroke:#2FA4E7;stroke-width:1.0417;"/><line style="stroke:#2FA4E7;stroke-width:3.125;stroke-dasharray:2.0,2.0;" x1="57.0017" x2="426.2441" y1="180.1107" y2="180.1107"/><text fill="#343A40" font-family="Verdana" font-size="12.5" lengthAdjust="spacing" textLength="203.7842" x="74.7101" y="169.871">Confirms login success or failure</text></g><g><polygon fill="#2FA4E7" points="414.7858,215.4948,425.2024,219.6615,414.7858,223.8281,418.9524,219.6615" style="stroke:#2FA4E7;stroke-width:1.0417;"/><line style="stroke:#2FA4E7;stroke-width:3.125;" x1="51.7934" x2="421.0358" y1="219.6615" y2="219.6615"/><text fill="#343A40" font-family="Verdana" font-size="12.5" lengthAdjust="spacing" textLength="211.6821" x="64.2934" y="209.4218">uploadRouteData(existingRoutes)</text></g><g><polygon fill="#2FA4E7" points="63.2517,255.0456,52.8351,259.2122,63.2517,263.3789,59.0851,259.2122" style="stroke:#2FA4E7;stroke-width:1.0417;"/><line style="stroke:#2FA4E7;stroke-width:3.125;stroke-dasharray:2.0,2.0;" x1="57.0017" x2="426.2441" y1="259.2122" y2="259.2122"/><text fill="#343A40" font-family="Verdana" font-size="12.5" lengthAdjust="spacing" textLength="171.2097" x="74.7101" y="248.9726">Confirms successful upload</text></g><g><polygon fill="#2FA4E7" points="414.7858,294.5964,425.2024,298.763,414.7858,302.9297,418.9524,298.763" style="stroke:#2FA4E7;stroke-width:1.0417;"/><line style="stroke:#2FA4E7;stroke-width:3.125;" x1="51.7934" x2="421.0358" y1="298.763" y2="298.763"/><text fill="#343A40" font-family="Verdana" font-size="12.5" lengthAdjust="spacing" textLength="139.0259" x="64.2934" y="288.5234">identifyInefficiencies()</text></g><g><polygon fill="#2FA4E7" points="63.2517,334.1471,52.8351,338.3138,63.2517,342.4805,59.0851,338.3138" style="stroke:#2FA4E7;stroke-width:1.0417;"/><line style="stroke:#2FA4E7;stroke-width:3.125;stroke-dasharray:2.0,2.0;" x1="57.0017" x2="426.2441" y1="338.3138" y2="338.3138"/><text fill="#343A40" font-family="Verdana" font-size="12.5" lengthAdjust="spacing" textLength="331.9397" x="74.7101" y="328.0741">Highlights redundant stops and low-utilization routes</text></g><g><polygon fill="#2FA4E7" points="414.7858,373.6979,425.2024,377.8646,414.7858,382.0313,418.9524,377.8646" style="stroke:#2FA4E7;stroke-width:1.0417;"/><line style="stroke:#2FA4E7;stroke-width:3.125;" x1="51.7934" x2="421.0358" y1="377.8646" y2="377.8646"/><text fill="#343A40" font-family="Verdana" font-size="12.5" lengthAdjust="spacing" textLength="166.5039" x="64.2934" y="367.6249">suggestOptimizedRoutes()</text></g><g><polygon fill="#2FA4E7" points="63.2517,413.2487,52.8351,417.4154,63.2517,421.582,59.0851,417.4154" style="stroke:#2FA4E7;stroke-width:1.0417;"/><line style="stroke:#2FA4E7;stroke-width:3.125;stroke-dasharray:2.0,2.0;" x1="57.0017" x2="426.2441" y1="417.4154" y2="417.4154"/><text fill="#343A40" font-family="Verdana" font-size="12.5" lengthAdjust="spacing" textLength="335.2173" x="74.7101" y="407.1757">Provides optimized routes based on mobility patterns</text></g><g><polygon fill="#2FA4E7" points="414.7858,452.7995,425.2024,456.9661,414.7858,461.1328,418.9524,456.9661" style="stroke:#2FA4E7;stroke-width:1.0417;"/><line style="stroke:#2FA4E7;stroke-width:3.125;" x1="51.7934" x2="421.0358" y1="456.9661" y2="456.9661"/><text fill="#343A40" font-family="Verdana" font-size="12.5" lengthAdjust="spacing" textLength="263.0981" x="64.2934" y="446.7265">refineOptimizedRoutes(routeSuggestions)</text></g><g><polygon fill="#2FA4E7" points="63.2517,492.3503,52.8351,496.5169,63.2517,500.6836,59.0851,496.5169" style="stroke:#2FA4E7;stroke-width:1.0417;"/><line style="stroke:#2FA4E7;stroke-width:3.125;stroke-dasharray:2.0,2.0;" x1="57.0017" x2="426.2441" y1="496.5169" y2="496.5169"/><text fill="#343A40" font-family="Verdana" font-size="12.5" lengthAdjust="spacing" textLength="324.7803" x="74.7101" y="486.2773">Updates the displayed routes based on refinements</text></g><g><polygon fill="#2FA4E7" points="414.7858,531.901,425.2024,536.0677,414.7858,540.2344,418.9524,536.0677" style="stroke:#2FA4E7;stroke-width:1.0417;"/><line style="stroke:#2FA4E7;stroke-width:3.125;" x1="51.7934" x2="421.0358" y1="536.0677" y2="536.0677"/><text fill="#343A40" font-family="Verdana" font-size="12.5" lengthAdjust="spacing" textLength="241.6931" x="64.2934" y="525.828">saveOptimizedRoutes(updatedRoutes)</text></g><g><polygon fill="#2FA4E7" points="63.2517,571.4518,52.8351,575.6185,63.2517,579.7852,59.0851,575.6185" style="stroke:#2FA4E7;stroke-width:1.0417;"/><line style="stroke:#2FA4E7;stroke-width:3.125;stroke-dasharray:2.0,2.0;" x1="57.0017" x2="426.2441" y1="575.6185" y2="575.6185"/><text fill="#343A40" font-family="Verdana" font-size="12.5" lengthAdjust="spacing" textLength="340.0757" x="74.7101" y="565.3788">Confirms that optimized routes are saved successfully</text></g><!--SRC=[dPBFJiCm3CRlVGfp6uUzm0vS1X9SOEBF0tYDqrbAaofs1jtJOzeD8RP3u10fZTpl-_cphtH7FK5BkGJ2s62hASDTx3WIvQOvtM1v0wyPex0-aZuDoZqVAAyW92jO5A6ypkGeAcEGw-P2BInDuwItWdMAddClim98QLiI0NFtoA5agZ0lGqZedbDHkaN51NsmACTkUlaRnT7Vbt1KXGf_dXhsuqCaxxbbYdPaKMDypzqks541owr4Xr51D0q269s5yhuioe4Fg9mYvAcZ2YGfNKVo_JA7KuUqoMbl7TaCJZyVRM6BOX-6qQUjCUa80wfIZZL4cRmL_0QQb5zcM6kmQbXlWyCl7DjPS2n3mF42u-pNssIgyiBz6LkPVDm_jaXtgEVnOQR9n_tOiZ1-0W00]--></g></svg>