<svg xmlns="http://www.w3.org/2000/svg" xmlns:xlink="http://www.w3.org/1999/xlink" contentStyleType="text/css" data-diagram-type="SEQUENCE" height="691.6667px" preserveAspectRatio="none" style="width:476px;height:691px;" version="1.1" viewBox="0 0 476 691" width="476.0417px" zoomAndPan="magnify"><defs><linearGradient id="g1jdndpxzs7h0q0" x1="50%" x2="50%" y1="0%" y2="100%"><stop offset="0%" stop-color="#59B6EC"/><stop offset="100%" stop-color="#2FA4E7"/></linearGradient></defs><g><g><title>Engineer</title><rect fill="#FFFFFF" fill-opacity="0.00000" height="495.4427" width="8.3333" x="47.6267" y="98.9258"/><line style="stroke:#BABDBF;stroke-width:1.0417;stroke-dasharray:5.0,5.0;" x1="51.0417" x2="51.0417" y1="98.9258" y2="594.3685"/></g><g><title>TransitNetOptimizer</title><rect fill="#FFFFFF" fill-opacity="0.00000" height="495.4427" width="8.3333" x="385.6435" y="98.9258"/><line style="stroke:#BABDBF;stroke-width:1.0417;stroke-dasharray:5.0,5.0;" x1="389.1235" x2="389.1235" y1="98.9258" y2="594.3685"/></g><g><text fill="#343A40" font-family="Verdana" font-size="12.5" lengthAdjust="spacing" textLength="55.6702" x="20.8333" y="90.7694">Engineer</text><ellipse cx="51.7934" cy="19.7917" fill="url(#g1jdndpxzs7h0q0)" rx="8.3333" ry="8.3333" style="stroke:#2FA4E7;stroke-width:1.0417;"/><path d="M51.7934,28.125 L51.7934,56.25 M38.2517,36.4583 L65.3351,36.4583 M51.7934,56.25 L38.2517,71.875 M51.7934,56.25 L65.3351,71.875 " fill="#FFFFFF" fill-opacity="0.00000" style="stroke:#2FA4E7;stroke-width:1.0417;"/></g><g><text fill="#343A40" font-family="Verdana" font-size="12.5" lengthAdjust="spacing" textLength="55.6702" x="20.8333" y="610.1379">Engineer</text><ellipse cx="51.7934" cy="627.6693" fill="url(#g1jdndpxzs7h0q0)" rx="8.3333" ry="8.3333" style="stroke:#2FA4E7;stroke-width:1.0417;"/><path d="M51.7934,636.0026 L51.7934,664.1276 M38.2517,644.3359 L65.3351,644.3359 M51.7934,664.1276 L38.2517,679.7526 M51.7934,664.1276 L65.3351,679.7526 " fill="#FFFFFF" fill-opacity="0.00000" style="stroke:#2FA4E7;stroke-width:1.0417;"/></g><g><rect fill="url(#g1jdndpxzs7h0q0)" height="39.5508" rx="4.1667" ry="4.1667" style="stroke:#2FA4E7;stroke-width:1.0417;" width="151.3733" x="314.1235" y="58.3333"/><text fill="#FFFFFF" font-family="Verdana" font-size="12.5" lengthAdjust="spacing" textLength="126.3733" x="326.6235" y="82.4361">TransitNetOptimizer</text></g><g><rect fill="url(#g1jdndpxzs7h0q0)" height="39.5508" rx="4.1667" ry="4.1667" style="stroke:#2FA4E7;stroke-width:1.0417;" width="151.3733" x="314.1235" y="593.3268"/><text fill="#FFFFFF" font-family="Verdana" font-size="12.5" lengthAdjust="spacing" textLength="126.3733" x="326.6235" y="617.4296">TransitNetOptimizer</text></g><g><polygon fill="#2FA4E7" points="377.3102,136.3932,387.7268,140.5599,377.3102,144.7266,381.4768,140.5599" style="stroke:#2FA4E7;stroke-width:1.0417;"/><line style="stroke:#2FA4E7;stroke-width:3.125;" x1="51.7934" x2="383.5602" y1="140.5599" y2="140.5599"/><text fill="#343A40" font-family="Verdana" font-size="12.5" lengthAdjust="spacing" textLength="138.5925" x="64.2934" y="130.3202">login(userCredentials)</text></g><g><polygon fill="#2FA4E7" points="63.2517,175.944,52.8351,180.1107,63.2517,184.2773,59.0851,180.1107" style="stroke:#2FA4E7;stroke-width:1.0417;"/><line style="stroke:#2FA4E7;stroke-width:3.125;stroke-dasharray:2.0,2.0;" x1="57.0017" x2="388.7685" y1="180.1107" y2="180.1107"/><text fill="#343A40" font-family="Verdana" font-size="12.5" lengthAdjust="spacing" textLength="203.7842" x="74.7101" y="169.871">Confirms login success or failure</text></g><g><polygon fill="#2FA4E7" points="377.3102,215.4948,387.7268,219.6615,377.3102,223.8281,381.4768,219.6615" style="stroke:#2FA4E7;stroke-width:1.0417;"/><line style="stroke:#2FA4E7;stroke-width:3.125;" x1="51.7934" x2="383.5602" y1="219.6615" y2="219.6615"/><text fill="#343A40" font-family="Verdana" font-size="12.5" lengthAdjust="spacing" textLength="160.8398" x="64.2934" y="209.4218">displayMap(mobilityData)</text></g><g><polygon fill="#2FA4E7" points="63.2517,255.0456,52.8351,259.2122,63.2517,263.3789,59.0851,259.2122" style="stroke:#2FA4E7;stroke-width:1.0417;"/><line style="stroke:#2FA4E7;stroke-width:3.125;stroke-dasharray:2.0,2.0;" x1="57.0017" x2="388.7685" y1="259.2122" y2="259.2122"/><text fill="#343A40" font-family="Verdana" font-size="12.5" lengthAdjust="spacing" textLength="285.614" x="74.7101" y="248.9726">Displays the map interface with mobility data</text></g><g><polygon fill="#2FA4E7" points="377.3102,294.5964,387.7268,298.763,377.3102,302.9297,381.4768,298.763" style="stroke:#2FA4E7;stroke-width:1.0417;"/><line style="stroke:#2FA4E7;stroke-width:3.125;" x1="51.7934" x2="383.5602" y1="298.763" y2="298.763"/><text fill="#343A40" font-family="Verdana" font-size="12.5" lengthAdjust="spacing" textLength="210.1013" x="64.2934" y="288.5234">selectAreaOfInterest(areaDetails)</text></g><g><polygon fill="#2FA4E7" points="63.2517,334.1471,52.8351,338.3138,63.2517,342.4805,59.0851,338.3138" style="stroke:#2FA4E7;stroke-width:1.0417;"/><line style="stroke:#2FA4E7;stroke-width:3.125;stroke-dasharray:2.0,2.0;" x1="57.0017" x2="388.7685" y1="338.3138" y2="338.3138"/><text fill="#343A40" font-family="Verdana" font-size="12.5" lengthAdjust="spacing" textLength="176.2939" x="74.7101" y="328.0741">Highlights the selected area</text></g><g><polygon fill="#2FA4E7" points="377.3102,373.6979,387.7268,377.8646,377.3102,382.0313,381.4768,377.8646" style="stroke:#2FA4E7;stroke-width:1.0417;"/><line style="stroke:#2FA4E7;stroke-width:3.125;" x1="51.7934" x2="383.5602" y1="377.8646" y2="377.8646"/><text fill="#343A40" font-family="Verdana" font-size="12.5" lengthAdjust="spacing" textLength="203.8757" x="64.2934" y="367.6249">suggestRoutes(mobilityClusters)</text></g><g><polygon fill="#2FA4E7" points="63.2517,413.2487,52.8351,417.4154,63.2517,421.582,59.0851,417.4154" style="stroke:#2FA4E7;stroke-width:1.0417;"/><line style="stroke:#2FA4E7;stroke-width:3.125;stroke-dasharray:2.0,2.0;" x1="57.0017" x2="388.7685" y1="417.4154" y2="417.4154"/><text fill="#343A40" font-family="Verdana" font-size="12.5" lengthAdjust="spacing" textLength="299.6338" x="74.7101" y="407.1757">Suggests new routes based on mobility clusters</text></g><g><polygon fill="#2FA4E7" points="377.3102,452.7995,387.7268,456.9661,377.3102,461.1328,381.4768,456.9661" style="stroke:#2FA4E7;stroke-width:1.0417;"/><line style="stroke:#2FA4E7;stroke-width:3.125;" x1="51.7934" x2="383.5602" y1="456.9661" y2="456.9661"/><text fill="#343A40" font-family="Verdana" font-size="12.5" lengthAdjust="spacing" textLength="205.8289" x="64.2934" y="446.7265">modifyRoutes(routeSuggestions)</text></g><g><polygon fill="#2FA4E7" points="63.2517,492.3503,52.8351,496.5169,63.2517,500.6836,59.0851,496.5169" style="stroke:#2FA4E7;stroke-width:1.0417;"/><line style="stroke:#2FA4E7;stroke-width:3.125;stroke-dasharray:2.0,2.0;" x1="57.0017" x2="388.7685" y1="496.5169" y2="496.5169"/><text fill="#343A40" font-family="Verdana" font-size="12.5" lengthAdjust="spacing" textLength="302.6001" x="74.7101" y="486.2773">Updates the displayed routes with modifications</text></g><g><polygon fill="#2FA4E7" points="377.3102,531.901,387.7268,536.0677,377.3102,540.2344,381.4768,536.0677" style="stroke:#2FA4E7;stroke-width:1.0417;"/><line style="stroke:#2FA4E7;stroke-width:3.125;" x1="51.7934" x2="383.5602" y1="536.0677" y2="536.0677"/><text fill="#343A40" font-family="Verdana" font-size="12.5" lengthAdjust="spacing" textLength="151.5686" x="64.2934" y="525.828">saveRoutes(newRoutes)</text></g><g><polygon fill="#2FA4E7" points="63.2517,571.4518,52.8351,575.6185,63.2517,579.7852,59.0851,575.6185" style="stroke:#2FA4E7;stroke-width:1.0417;"/><line style="stroke:#2FA4E7;stroke-width:3.125;stroke-dasharray:2.0,2.0;" x1="57.0017" x2="388.7685" y1="575.6185" y2="575.6185"/><text fill="#343A40" font-family="Verdana" font-size="12.5" lengthAdjust="spacing" textLength="244.9524" x="74.7101" y="565.3788">Confirms routes are saved successfully</text></g><!--SRC=[bP9DJiCm44RtESMmAujUe0iar2B10YhnSu2fCqb7Skp8CwOAfsUQEB1XOHQH7Cb-t_Ctlj4p3GIEKlQ4eK6dCS53w3aGfQPPLx2zW_U4GLXVI8-Zyi1Vb7RWestOPA6qJzHIK4OljyqVUs5hZ9MtWtqC7QT15W98Tev4mD8xP9yJLOItBAF7wHd7pH1Fx5cd0ohMn1-Mem9M00mu0WUbrA4ZkB2UOUL1Qy0A5I5FJkyJuR5xkg98T8FsUo2r-rHLyiZzsTkdYzM2f1Qkc1g5tFUM-XgpalmKilTPJATAu6qX20IwG9evS48nXHX-6t65MA4qn9QxgHZDm1B1CLGPVOpMForzb6cRJL4hWx88TZWZQrh2Jof2TijbzQ_tMi9jA3EhNPzkbxsVlW40]--></g></svg>