<svg xmlns="http://www.w3.org/2000/svg" xmlns:xlink="http://www.w3.org/1999/xlink" contentStyleType="text/css" data-diagram-type="SEQUENCE" height="612.5px" preserveAspectRatio="none" style="width:507px;height:612px;" version="1.1" viewBox="0 0 507 612" width="507.2917px" zoomAndPan="magnify"><defs><linearGradient id="grbu8zp6uu6uo0" x1="50%" x2="50%" y1="0%" y2="100%"><stop offset="0%" stop-color="#59B6EC"/><stop offset="100%" stop-color="#2FA4E7"/></linearGradient></defs><g><g><title>PTManagementAuthority</title><rect fill="#FFFFFF" fill-opacity="0.00000" height="416.3411" width="8.3333" x="97.4772" y="98.9258"/><line style="stroke:#BABDBF;stroke-width:1.0417;stroke-dasharray:5.0,5.0;" x1="101.0417" x2="101.0417" y1="98.9258" y2="515.2669"/></g><g><title>TransitNetOptimizer</title><rect fill="#FFFFFF" fill-opacity="0.00000" height="416.3411" width="8.3333" x="416.6524" y="98.9258"/><line style="stroke:#BABDBF;stroke-width:1.0417;stroke-dasharray:5.0,5.0;" x1="420.1324" x2="420.1324" y1="98.9258" y2="515.2669"/></g><g><text fill="#343A40" font-family="Verdana" font-size="12.5" lengthAdjust="spacing" textLength="155.3711" x="20.8333" y="90.7694">PTManagementAuthority</text><ellipse cx="101.6439" cy="19.7917" fill="url(#grbu8zp6uu6uo0)" rx="8.3333" ry="8.3333" style="stroke:#2FA4E7;stroke-width:1.0417;"/><path d="M101.6439,28.125 L101.6439,56.25 M88.1022,36.4583 L115.1855,36.4583 M101.6439,56.25 L88.1022,71.875 M101.6439,56.25 L115.1855,71.875 " fill="#FFFFFF" fill-opacity="0.00000" style="stroke:#2FA4E7;stroke-width:1.0417;"/></g><g><text fill="#343A40" font-family="Verdana" font-size="12.5" lengthAdjust="spacing" textLength="155.3711" x="20.8333" y="531.0364">PTManagementAuthority</text><ellipse cx="101.6439" cy="548.5677" fill="url(#grbu8zp6uu6uo0)" rx="8.3333" ry="8.3333" style="stroke:#2FA4E7;stroke-width:1.0417;"/><path d="M101.6439,556.901 L101.6439,585.026 M88.1022,565.2344 L115.1855,565.2344 M101.6439,585.026 L88.1022,600.651 M101.6439,585.026 L115.1855,600.651 " fill="#FFFFFF" fill-opacity="0.00000" style="stroke:#2FA4E7;stroke-width:1.0417;"/></g><g><rect fill="url(#grbu8zp6uu6uo0)" height="39.5508" rx="4.1667" ry="4.1667" style="stroke:#2FA4E7;stroke-width:1.0417;" width="151.3733" x="345.1324" y="58.3333"/><text fill="#FFFFFF" font-family="Verdana" font-size="12.5" lengthAdjust="spacing" textLength="126.3733" x="357.6324" y="82.4361">TransitNetOptimizer</text></g><g><rect fill="url(#grbu8zp6uu6uo0)" height="39.5508" rx="4.1667" ry="4.1667" style="stroke:#2FA4E7;stroke-width:1.0417;" width="151.3733" x="345.1324" y="514.2253"/><text fill="#FFFFFF" font-family="Verdana" font-size="12.5" lengthAdjust="spacing" textLength="126.3733" x="357.6324" y="538.328">TransitNetOptimizer</text></g><g><polygon fill="#2FA4E7" points="408.3191,136.3932,418.7358,140.5599,408.3191,144.7266,412.4858,140.5599" style="stroke:#2FA4E7;stroke-width:1.0417;"/><line style="stroke:#2FA4E7;stroke-width:3.125;" x1="101.6439" x2="414.5691" y1="140.5599" y2="140.5599"/><text fill="#343A40" font-family="Verdana" font-size="12.5" lengthAdjust="spacing" textLength="138.5925" x="114.1439" y="130.3202">login(userCredentials)</text></g><g><polygon fill="#2FA4E7" points="113.1022,175.944,102.6855,180.1107,113.1022,184.2773,108.9355,180.1107" style="stroke:#2FA4E7;stroke-width:1.0417;"/><line style="stroke:#2FA4E7;stroke-width:3.125;stroke-dasharray:2.0,2.0;" x1="106.8522" x2="419.7774" y1="180.1107" y2="180.1107"/><text fill="#343A40" font-family="Verdana" font-size="12.5" lengthAdjust="spacing" textLength="203.7842" x="124.5605" y="169.871">Confirms login success or failure</text></g><g><polygon fill="#2FA4E7" points="408.3191,215.4948,418.7358,219.6615,408.3191,223.8281,412.4858,219.6615" style="stroke:#2FA4E7;stroke-width:1.0417;"/><line style="stroke:#2FA4E7;stroke-width:3.125;" x1="101.6439" x2="414.5691" y1="219.6615" y2="219.6615"/><text fill="#343A40" font-family="Verdana" font-size="12.5" lengthAdjust="spacing" textLength="158.6548" x="114.1439" y="209.4218">accessReportingModule()</text></g><g><polygon fill="#2FA4E7" points="113.1022,255.0456,102.6855,259.2122,113.1022,263.3789,108.9355,259.2122" style="stroke:#2FA4E7;stroke-width:1.0417;"/><line style="stroke:#2FA4E7;stroke-width:3.125;stroke-dasharray:2.0,2.0;" x1="106.8522" x2="419.7774" y1="259.2122" y2="259.2122"/><text fill="#343A40" font-family="Verdana" font-size="12.5" lengthAdjust="spacing" textLength="224.7498" x="124.5605" y="248.9726">Displays available reporting options</text></g><g><polygon fill="#2FA4E7" points="408.3191,294.5964,418.7358,298.763,408.3191,302.9297,412.4858,298.763" style="stroke:#2FA4E7;stroke-width:1.0417;"/><line style="stroke:#2FA4E7;stroke-width:3.125;" x1="101.6439" x2="414.5691" y1="298.763" y2="298.763"/><text fill="#343A40" font-family="Verdana" font-size="12.5" lengthAdjust="spacing" textLength="170.1294" x="114.1439" y="288.5234">compileReport(reportType)</text></g><g><polygon fill="#2FA4E7" points="113.1022,334.1471,102.6855,338.3138,113.1022,342.4805,108.9355,338.3138" style="stroke:#2FA4E7;stroke-width:1.0417;"/><line style="stroke:#2FA4E7;stroke-width:3.125;stroke-dasharray:2.0,2.0;" x1="106.8522" x2="419.7774" y1="338.3138" y2="338.3138"/><text fill="#343A40" font-family="Verdana" font-size="12.5" lengthAdjust="spacing" textLength="283.7585" x="124.5605" y="328.0741">Generates structured report with key metrics</text></g><g><polygon fill="#2FA4E7" points="408.3191,373.6979,418.7358,377.8646,408.3191,382.0313,412.4858,377.8646" style="stroke:#2FA4E7;stroke-width:1.0417;"/><line style="stroke:#2FA4E7;stroke-width:3.125;" x1="101.6439" x2="414.5691" y1="377.8646" y2="377.8646"/><text fill="#343A40" font-family="Verdana" font-size="12.5" lengthAdjust="spacing" textLength="271.2891" x="114.1439" y="367.6249">customizeReportLayout(layoutPreferences)</text></g><g><polygon fill="#2FA4E7" points="113.1022,413.2487,102.6855,417.4154,113.1022,421.582,108.9355,417.4154" style="stroke:#2FA4E7;stroke-width:1.0417;"/><line style="stroke:#2FA4E7;stroke-width:3.125;stroke-dasharray:2.0,2.0;" x1="106.8522" x2="419.7774" y1="417.4154" y2="417.4154"/><text fill="#343A40" font-family="Verdana" font-size="12.5" lengthAdjust="spacing" textLength="243.3411" x="124.5605" y="407.1757">Updates report with customized layout</text></g><g><polygon fill="#2FA4E7" points="408.3191,452.7995,418.7358,456.9661,408.3191,461.1328,412.4858,456.9661" style="stroke:#2FA4E7;stroke-width:1.0417;"/><line style="stroke:#2FA4E7;stroke-width:3.125;" x1="101.6439" x2="414.5691" y1="456.9661" y2="456.9661"/><text fill="#343A40" font-family="Verdana" font-size="12.5" lengthAdjust="spacing" textLength="175.6287" x="114.1439" y="446.7265">exportReport(reportFormat)</text></g><g><polygon fill="#2FA4E7" points="113.1022,492.3503,102.6855,496.5169,113.1022,500.6836,108.9355,496.5169" style="stroke:#2FA4E7;stroke-width:1.0417;"/><line style="stroke:#2FA4E7;stroke-width:3.125;stroke-dasharray:2.0,2.0;" x1="106.8522" x2="419.7774" y1="496.5169" y2="496.5169"/><text fill="#343A40" font-family="Verdana" font-size="12.5" lengthAdjust="spacing" textLength="209.9426" x="124.5605" y="486.2773">Provides downloadable report file</text></g><!--SRC=[bT7DJiCm30VmUv_2tCfXBx034Xg22niJ6WzW4dUpIEFASJRAqvErW8QqIqw9yl7tBywD7QWdSAGv4CO6dOd2ThV6YFko4-q-sq6KRMoQgykmk8ETOani6xANmRZdBz8b1DbpR7CYNIdvSeKnfDlcobbOb8ohuKjOIUnO-pJ7GShEKKfGa1roo4grB9m2NcaGDOxxjVZoyhRQzS1f23Wcm6Dnu7iWqDzCa98WCTNIdFG31vfjxHot6mUgnZrH94MZ1CaqEojjyZyyEB4Tu8D6wCcKNJqo9vFpV6O-uoZPsZ0DMwMEb6BfSBNvRV2J-9BvLyl3NA0MIv_di7yDVHJjqQfvMvKZ- -BpSef1q5zyENJbrxu1]--></g></svg>