<svg xmlns="http://www.w3.org/2000/svg" xmlns:xlink="http://www.w3.org/1999/xlink" contentStyleType="text/css" data-diagram-type="SEQUENCE" height="533.3333px" preserveAspectRatio="none" style="width:393px;height:533px;" version="1.1" viewBox="0 0 393 533" width="393.75px" zoomAndPan="magnify"><defs><linearGradient id="gyt7evvl23qc80" x1="50%" x2="50%" y1="0%" y2="100%"><stop offset="0%" stop-color="#59B6EC"/><stop offset="100%" stop-color="#2FA4E7"/></linearGradient></defs><g><g><title>PolicyMaker</title><rect fill="#FFFFFF" fill-opacity="0.00000" height="337.2396" width="8.3333" x="57.2489" y="98.9258"/><line style="stroke:#BABDBF;stroke-width:1.0417;stroke-dasharray:5.0,5.0;" x1="60.4167" x2="60.4167" y1="98.9258" y2="436.1654"/></g><g><title>TransitNetOptimizer</title><rect fill="#FFFFFF" fill-opacity="0.00000" height="337.2396" width="8.3333" x="302.6082" y="98.9258"/><line style="stroke:#BABDBF;stroke-width:1.0417;stroke-dasharray:5.0,5.0;" x1="306.0883" x2="306.0883" y1="98.9258" y2="436.1654"/></g><g><text fill="#343A40" font-family="Verdana" font-size="12.5" lengthAdjust="spacing" textLength="74.9146" x="20.8333" y="90.7694">PolicyMaker</text><ellipse cx="61.4156" cy="19.7917" fill="url(#gyt7evvl23qc80)" rx="8.3333" ry="8.3333" style="stroke:#2FA4E7;stroke-width:1.0417;"/><path d="M61.4156,28.125 L61.4156,56.25 M47.8739,36.4583 L74.9573,36.4583 M61.4156,56.25 L47.8739,71.875 M61.4156,56.25 L74.9573,71.875 " fill="#FFFFFF" fill-opacity="0.00000" style="stroke:#2FA4E7;stroke-width:1.0417;"/></g><g><text fill="#343A40" font-family="Verdana" font-size="12.5" lengthAdjust="spacing" textLength="74.9146" x="20.8333" y="451.9348">PolicyMaker</text><ellipse cx="61.4156" cy="469.4661" fill="url(#gyt7evvl23qc80)" rx="8.3333" ry="8.3333" style="stroke:#2FA4E7;stroke-width:1.0417;"/><path d="M61.4156,477.7995 L61.4156,505.9245 M47.8739,486.1328 L74.9573,486.1328 M61.4156,505.9245 L47.8739,521.5495 M61.4156,505.9245 L74.9573,521.5495 " fill="#FFFFFF" fill-opacity="0.00000" style="stroke:#2FA4E7;stroke-width:1.0417;"/></g><g><rect fill="url(#gyt7evvl23qc80)" height="39.5508" rx="4.1667" ry="4.1667" style="stroke:#2FA4E7;stroke-width:1.0417;" width="151.3733" x="231.0883" y="58.3333"/><text fill="#FFFFFF" font-family="Verdana" font-size="12.5" lengthAdjust="spacing" textLength="126.3733" x="243.5883" y="82.4361">TransitNetOptimizer</text></g><g><rect fill="url(#gyt7evvl23qc80)" height="39.5508" rx="4.1667" ry="4.1667" style="stroke:#2FA4E7;stroke-width:1.0417;" width="151.3733" x="231.0883" y="435.1237"/><text fill="#FFFFFF" font-family="Verdana" font-size="12.5" lengthAdjust="spacing" textLength="126.3733" x="243.5883" y="459.2265">TransitNetOptimizer</text></g><g><polygon fill="#2FA4E7" points="294.2749,136.3932,304.6916,140.5599,294.2749,144.7266,298.4416,140.5599" style="stroke:#2FA4E7;stroke-width:1.0417;"/><line style="stroke:#2FA4E7;stroke-width:3.125;" x1="61.4156" x2="300.5249" y1="140.5599" y2="140.5599"/><text fill="#343A40" font-family="Verdana" font-size="12.5" lengthAdjust="spacing" textLength="138.5925" x="73.9156" y="130.3202">login(userCredentials)</text></g><g><polygon fill="#2FA4E7" points="72.8739,175.944,62.4573,180.1107,72.8739,184.2773,68.7073,180.1107" style="stroke:#2FA4E7;stroke-width:1.0417;"/><line style="stroke:#2FA4E7;stroke-width:3.125;stroke-dasharray:2.0,2.0;" x1="66.6239" x2="305.7332" y1="180.1107" y2="180.1107"/><text fill="#343A40" font-family="Verdana" font-size="12.5" lengthAdjust="spacing" textLength="203.7842" x="84.3323" y="169.871">Confirms login success or failure</text></g><g><polygon fill="#2FA4E7" points="294.2749,215.4948,304.6916,219.6615,294.2749,223.8281,298.4416,219.6615" style="stroke:#2FA4E7;stroke-width:1.0417;"/><line style="stroke:#2FA4E7;stroke-width:3.125;" x1="61.4156" x2="300.5249" y1="219.6615" y2="219.6615"/><text fill="#343A40" font-family="Verdana" font-size="12.5" lengthAdjust="spacing" textLength="146.8262" x="73.9156" y="209.4218">accessReportsSection()</text></g><g><polygon fill="#2FA4E7" points="72.8739,255.0456,62.4573,259.2122,72.8739,263.3789,68.7073,259.2122" style="stroke:#2FA4E7;stroke-width:1.0417;"/><line style="stroke:#2FA4E7;stroke-width:3.125;stroke-dasharray:2.0,2.0;" x1="66.6239" x2="305.7332" y1="259.2122" y2="259.2122"/><text fill="#343A40" font-family="Verdana" font-size="12.5" lengthAdjust="spacing" textLength="161.9202" x="84.3323" y="248.9726">Displays available reports</text></g><g><polygon fill="#2FA4E7" points="294.2749,294.5964,304.6916,298.763,294.2749,302.9297,298.4416,298.763" style="stroke:#2FA4E7;stroke-width:1.0417;"/><line style="stroke:#2FA4E7;stroke-width:3.125;" x1="61.4156" x2="300.5249" y1="298.763" y2="298.763"/><text fill="#343A40" font-family="Verdana" font-size="12.5" lengthAdjust="spacing" textLength="132.2998" x="73.9156" y="288.5234">viewReport(reportID)</text></g><g><polygon fill="#2FA4E7" points="72.8739,334.1471,62.4573,338.3138,72.8739,342.4805,68.7073,338.3138" style="stroke:#2FA4E7;stroke-width:1.0417;"/><line style="stroke:#2FA4E7;stroke-width:3.125;stroke-dasharray:2.0,2.0;" x1="66.6239" x2="305.7332" y1="338.3138" y2="338.3138"/><text fill="#343A40" font-family="Verdana" font-size="12.5" lengthAdjust="spacing" textLength="149.7437" x="84.3323" y="328.0741">Displays detailed report</text></g><g><polygon fill="#2FA4E7" points="294.2749,373.6979,304.6916,377.8646,294.2749,382.0313,298.4416,377.8646" style="stroke:#2FA4E7;stroke-width:1.0417;"/><line style="stroke:#2FA4E7;stroke-width:3.125;" x1="61.4156" x2="300.5249" y1="377.8646" y2="377.8646"/><text fill="#343A40" font-family="Verdana" font-size="12.5" lengthAdjust="spacing" textLength="195.3613" x="73.9156" y="367.6249">downloadReport(reportFormat)</text></g><g><polygon fill="#2FA4E7" points="72.8739,413.2487,62.4573,417.4154,72.8739,421.582,68.7073,417.4154" style="stroke:#2FA4E7;stroke-width:1.0417;"/><line style="stroke:#2FA4E7;stroke-width:3.125;stroke-dasharray:2.0,2.0;" x1="66.6239" x2="305.7332" y1="417.4154" y2="417.4154"/><text fill="#343A40" font-family="Verdana" font-size="12.5" lengthAdjust="spacing" textLength="209.9426" x="84.3323" y="407.1757">Provides downloadable report file</text></g><!--SRC=[bO-nJiD0343tV8NPmj0VwC3I2ea1g4f_mDmvO74vHxQJglrwJarLfHB3CLgottj-y6_g2GBfc0XpWy55OIU9m-aLVqYRPZ70wWaEYjdOtyZV1-UUpwHhIFB5kHsDTACKAJjZiiVcZrrO5SO2kOQDv8wrjna2DeP0Pb0oEkGqAjKbuELiJuEesmS5PybjPSAMRKXuCi2fAF4p4UWCgdDFJCVPtCvtBzl_cYDvKLEyYkkyKOuv2SOxzxDeZrxftwbC7CbkgCNpq9MWNm00]--></g></svg>