<svg xmlns="http://www.w3.org/2000/svg" xmlns:xlink="http://www.w3.org/1999/xlink" contentStyleType="text/css" data-diagram-type="SEQUENCE" height="612.5px" preserveAspectRatio="none" style="width:458px;height:612px;" version="1.1" viewBox="0 0 458 612" width="458.3333px" zoomAndPan="magnify"><defs><linearGradient id="gc0e9hvxy2hkm0" x1="50%" x2="50%" y1="0%" y2="100%"><stop offset="0%" stop-color="#59B6EC"/><stop offset="100%" stop-color="#2FA4E7"/></linearGradient></defs><g><g><title>User</title><rect fill="#FFFFFF" fill-opacity="0.00000" height="416.3411" width="8.3333" x="34.0373" y="98.9258"/><line style="stroke:#BABDBF;stroke-width:1.0417;stroke-dasharray:5.0,5.0;" x1="37.5" x2="37.5" y1="98.9258" y2="515.2669"/></g><g><title>TransitNetOptimizer</title><rect fill="#FFFFFF" fill-opacity="0.00000" height="416.3411" width="8.3333" x="367.1346" y="98.9258"/><line style="stroke:#BABDBF;stroke-width:1.0417;stroke-dasharray:5.0,5.0;" x1="370.6146" x2="370.6146" y1="98.9258" y2="515.2669"/></g><g><text fill="#343A40" font-family="Verdana" font-size="12.5" lengthAdjust="spacing" textLength="28.4912" x="20.8333" y="90.7694">User</text><ellipse cx="38.2039" cy="19.7917" fill="url(#gc0e9hvxy2hkm0)" rx="8.3333" ry="8.3333" style="stroke:#2FA4E7;stroke-width:1.0417;"/><path d="M38.2039,28.125 L38.2039,56.25 M24.6623,36.4583 L51.7456,36.4583 M38.2039,56.25 L24.6623,71.875 M38.2039,56.25 L51.7456,71.875 " fill="#FFFFFF" fill-opacity="0.00000" style="stroke:#2FA4E7;stroke-width:1.0417;"/></g><g><text fill="#343A40" font-family="Verdana" font-size="12.5" lengthAdjust="spacing" textLength="28.4912" x="20.8333" y="531.0364">User</text><ellipse cx="38.2039" cy="548.5677" fill="url(#gc0e9hvxy2hkm0)" rx="8.3333" ry="8.3333" style="stroke:#2FA4E7;stroke-width:1.0417;"/><path d="M38.2039,556.901 L38.2039,585.026 M24.6623,565.2344 L51.7456,565.2344 M38.2039,585.026 L24.6623,600.651 M38.2039,585.026 L51.7456,600.651 " fill="#FFFFFF" fill-opacity="0.00000" style="stroke:#2FA4E7;stroke-width:1.0417;"/></g><g><rect fill="url(#gc0e9hvxy2hkm0)" height="39.5508" rx="4.1667" ry="4.1667" style="stroke:#2FA4E7;stroke-width:1.0417;" width="151.3733" x="295.6146" y="58.3333"/><text fill="#FFFFFF" font-family="Verdana" font-size="12.5" lengthAdjust="spacing" textLength="126.3733" x="308.1146" y="82.4361">TransitNetOptimizer</text></g><g><rect fill="url(#gc0e9hvxy2hkm0)" height="39.5508" rx="4.1667" ry="4.1667" style="stroke:#2FA4E7;stroke-width:1.0417;" width="151.3733" x="295.6146" y="514.2253"/><text fill="#FFFFFF" font-family="Verdana" font-size="12.5" lengthAdjust="spacing" textLength="126.3733" x="308.1146" y="538.328">TransitNetOptimizer</text></g><g><polygon fill="#2FA4E7" points="358.8013,136.3932,369.2179,140.5599,358.8013,144.7266,362.9679,140.5599" style="stroke:#2FA4E7;stroke-width:1.0417;"/><line style="stroke:#2FA4E7;stroke-width:3.125;" x1="38.2039" x2="365.0513" y1="140.5599" y2="140.5599"/><text fill="#343A40" font-family="Verdana" font-size="12.5" lengthAdjust="spacing" textLength="154.8462" x="50.7039" y="130.3202">navigateToSignUpPage()</text></g><g><polygon fill="#2FA4E7" points="49.6623,175.944,39.2456,180.1107,49.6623,184.2773,45.4956,180.1107" style="stroke:#2FA4E7;stroke-width:1.0417;"/><line style="stroke:#2FA4E7;stroke-width:3.125;stroke-dasharray:2.0,2.0;" x1="43.4123" x2="370.2596" y1="180.1107" y2="180.1107"/><text fill="#343A40" font-family="Verdana" font-size="12.5" lengthAdjust="spacing" textLength="136.1084" x="61.1206" y="169.871">Displays sign-up form</text></g><g><polygon fill="#2FA4E7" points="358.8013,215.4948,369.2179,219.6615,358.8013,223.8281,362.9679,219.6615" style="stroke:#2FA4E7;stroke-width:1.0417;"/><line style="stroke:#2FA4E7;stroke-width:3.125;" x1="38.2039" x2="365.0513" y1="219.6615" y2="219.6615"/><text fill="#343A40" font-family="Verdana" font-size="12.5" lengthAdjust="spacing" textLength="297.6807" x="50.7039" y="209.4218">enterDetails(name, email, password, userType)</text></g><g><polygon fill="#2FA4E7" points="49.6623,255.0456,39.2456,259.2122,49.6623,263.3789,45.4956,259.2122" style="stroke:#2FA4E7;stroke-width:1.0417;"/><line style="stroke:#2FA4E7;stroke-width:3.125;stroke-dasharray:2.0,2.0;" x1="43.4123" x2="370.2596" y1="259.2122" y2="259.2122"/><text fill="#343A40" font-family="Verdana" font-size="12.5" lengthAdjust="spacing" textLength="131.4392" x="61.1206" y="248.9726">Validates input fields</text></g><g><polygon fill="#2FA4E7" points="358.8013,294.5964,369.2179,298.763,358.8013,302.9297,362.9679,298.763" style="stroke:#2FA4E7;stroke-width:1.0417;"/><line style="stroke:#2FA4E7;stroke-width:3.125;" x1="38.2039" x2="365.0513" y1="298.763" y2="298.763"/><text fill="#343A40" font-family="Verdana" font-size="12.5" lengthAdjust="spacing" textLength="129.1748" x="50.7039" y="288.5234">submitSignUpForm()</text></g><g><polygon fill="#2FA4E7" points="49.6623,334.1471,39.2456,338.3138,49.6623,342.4805,45.4956,338.3138" style="stroke:#2FA4E7;stroke-width:1.0417;"/><line style="stroke:#2FA4E7;stroke-width:3.125;stroke-dasharray:2.0,2.0;" x1="43.4123" x2="370.2596" y1="338.3138" y2="338.3138"/><text fill="#343A40" font-family="Verdana" font-size="12.5" lengthAdjust="spacing" textLength="282.5989" x="61.1206" y="328.0741">Creates account and sends verification email</text></g><g><polygon fill="#2FA4E7" points="358.8013,373.6979,369.2179,377.8646,358.8013,382.0313,362.9679,377.8646" style="stroke:#2FA4E7;stroke-width:1.0417;"/><line style="stroke:#2FA4E7;stroke-width:3.125;" x1="38.2039" x2="365.0513" y1="377.8646" y2="377.8646"/><text fill="#343A40" font-family="Verdana" font-size="12.5" lengthAdjust="spacing" textLength="191.5894" x="50.7039" y="367.6249">verifyAccount(verificationLink)</text></g><g><polygon fill="#2FA4E7" points="49.6623,413.2487,39.2456,417.4154,49.6623,421.582,45.4956,417.4154" style="stroke:#2FA4E7;stroke-width:1.0417;"/><line style="stroke:#2FA4E7;stroke-width:3.125;stroke-dasharray:2.0,2.0;" x1="43.4123" x2="370.2596" y1="417.4154" y2="417.4154"/><text fill="#343A40" font-family="Verdana" font-size="12.5" lengthAdjust="spacing" textLength="198.6877" x="61.1206" y="407.1757">Confirms successful verification</text></g><g><polygon fill="#2FA4E7" points="358.8013,452.7995,369.2179,456.9661,358.8013,461.1328,362.9679,456.9661" style="stroke:#2FA4E7;stroke-width:1.0417;"/><line style="stroke:#2FA4E7;stroke-width:3.125;" x1="38.2039" x2="365.0513" y1="456.9661" y2="456.9661"/><text fill="#343A40" font-family="Verdana" font-size="12.5" lengthAdjust="spacing" textLength="138.5925" x="50.7039" y="446.7265">login(userCredentials)</text></g><g><polygon fill="#2FA4E7" points="49.6623,492.3503,39.2456,496.5169,49.6623,500.6836,45.4956,496.5169" style="stroke:#2FA4E7;stroke-width:1.0417;"/><line style="stroke:#2FA4E7;stroke-width:3.125;stroke-dasharray:2.0,2.0;" x1="43.4123" x2="370.2596" y1="496.5169" y2="496.5169"/><text fill="#343A40" font-family="Verdana" font-size="12.5" lengthAdjust="spacing" textLength="178.0884" x="61.1206" y="486.2773">Grants access to the system</text></g><!--SRC=[XP91IyGm48Nl_HNZhSBk7zY382vw4HNiUX_JQHrC9Y4pMQc_thHxKH1o2OJalU-zIQxiWmA1ermyeNJeB6OuAUMkMrVOty2GKPJjYUmv6GV-fdm0mJFFQ3J4Lvxbb5vmflww- -SkxAl7wdM08slok2XerUnBWYdcq02H6EKZ6RBNNZ3G3YZKpGuIgdx5FEwWL8DXITJYlw7diOPMO4d5O6BoepO2Q7aFR9UMzpLli-LTfes1piKY1YWZACceSARC4piqZd9fqM1lWkNsOjJ_bZ-oV3Q3H9auXphkuXofJiN_YT20-pYpzEjiQwEnlWEZrnRpePxQrhq2mIBK3mQwg57u0G00]--></g></svg>