<svg xmlns="http://www.w3.org/2000/svg" xmlns:xlink="http://www.w3.org/1999/xlink" contentStyleType="text/css" data-diagram-type="DESCRIPTION" height="975px" preserveAspectRatio="none" style="width:2308px;height:975px;" version="1.1" viewBox="0 0 2308 975" width="2308.75px" zoomAndPan="magnify"><defs><linearGradient id="glfm3ujx8625n0" x1="50%" x2="50%" y1="0%" y2="100%"><stop offset="0%" stop-color="#33B2E2"/><stop offset="100%" stop-color="#009FDB"/></linearGradient></defs><g><!--cluster Frontend--><g id="cluster_Frontend"><rect fill="#FFFFFF" fill-opacity="0.00000" height="378.6625" rx="12.5" ry="12.5" style="stroke:#33B2E2;stroke-width:2.5;" width="543.75" x="21.25" y="21.25"/><text fill="#5A5A5A" font-family="Verdana" font-size="15" font-weight="bold" lengthAdjust="spacing" textLength="333.5815" x="126.3342" y="47.6733">Frontend (View) - React + Tailwind CSS</text></g><!--cluster Backend--><g id="cluster_Backend"><rect fill="#FFFFFF" fill-opacity="0.00000" height="338.6875" rx="12.5" ry="12.5" style="stroke:#33B2E2;stroke-width:2.5;" width="892.5" x="1322.5" y="51.225"/><text fill="#5A5A5A" font-family="Verdana" font-size="15" font-weight="bold" lengthAdjust="spacing" textLength="364.7388" x="1586.3806" y="77.6483">Backend (Controller) - Node.js + Express.js</text></g><!--cluster OptimizationEngine--><g id="cluster_OptimizationEngine"><rect fill="#FFFFFF" fill-opacity="0.00000" height="463.675" rx="12.5" ry="12.5" style="stroke:#33B2E2;stroke-width:2.5;" width="470" x="745" y="498.6625"/><text fill="#5A5A5A" font-family="Verdana" font-size="15" font-weight="bold" lengthAdjust="spacing" textLength="318.0908" x="820.9546" y="525.0858">Optimization Engine (Model) - Python</text></g><!--cluster Database--><g id="cluster_Database"><rect fill="#FFFFFF" fill-opacity="0.00000" height="182.4625" rx="12.5" ry="12.5" style="stroke:#33B2E2;stroke-width:2.5;" width="946.25" x="1300" y="769.875"/><text fill="#5A5A5A" font-family="Verdana" font-size="15" font-weight="bold" lengthAdjust="spacing" textLength="177.334" x="1684.458" y="796.2983">Database - MongoDB</text></g><!--cluster ExternalAPIs--><g id="cluster_ExternalAPIs"><rect fill="#FFFFFF" fill-opacity="0.00000" height="182.4625" rx="12.5" ry="12.5" style="stroke:#33B2E2;stroke-width:2.5;" width="421.25" x="283.75" y="508.6625"/><text fill="#5A5A5A" font-family="Verdana" font-size="15" font-weight="bold" lengthAdjust="spacing" textLength="112.9395" x="437.9053" y="535.0858">External APIs</text></g><!--entity LoginPage--><g id="elem_LoginPage"><rect fill="url(#glfm3ujx8625n0)" height="62.4609" rx="5" ry="5" style="stroke:#33B2E2;stroke-width:1.25;" width="127.4854" x="51.2625" y="131.25"/><text fill="#FFFFFF" font-family="Verdana" font-size="15" lengthAdjust="spacing" textLength="82.4854" x="73.7625" y="167.6733">Login Page</text></g><!--entity Dashboard--><g id="elem_Dashboard"><rect fill="url(#glfm3ujx8625n0)" height="62.4609" rx="5" ry="5" style="stroke:#33B2E2;stroke-width:1.25;" width="126.6431" x="222.925" y="131.25"/><text fill="#FFFFFF" font-family="Verdana" font-size="15" lengthAdjust="spacing" textLength="81.6431" x="245.425" y="167.6733">Dashboard</text></g><!--entity MapView--><g id="elem_MapView"><rect fill="url(#glfm3ujx8625n0)" height="62.4609" rx="5" ry="5" style="stroke:#33B2E2;stroke-width:1.25;" width="117.3486" x="393.825" y="131.25"/><text fill="#FFFFFF" font-family="Verdana" font-size="15" lengthAdjust="spacing" textLength="72.3486" x="416.325" y="167.6733">Map View</text></g><!--entity OptimizationPage--><g id="elem_OptimizationPage"><rect fill="url(#glfm3ujx8625n0)" height="62.4609" rx="5" ry="5" style="stroke:#33B2E2;stroke-width:1.25;" width="182.71" x="51.15" y="307.45"/><text fill="#FFFFFF" font-family="Verdana" font-size="15" lengthAdjust="spacing" textLength="137.71" x="73.65" y="343.8733">Optimization Page</text></g><!--entity Reports--><g id="elem_Reports"><rect fill="url(#glfm3ujx8625n0)" height="62.4609" rx="5" ry="5" style="stroke:#33B2E2;stroke-width:1.25;" width="103.2129" x="277.1375" y="307.45"/><text fill="#FFFFFF" font-family="Verdana" font-size="15" lengthAdjust="spacing" textLength="58.2129" x="299.6375" y="343.8733">Reports</text></g><!--entity API--><g id="elem_API"><ellipse cx="1618.75" cy="162.475" fill="#D95555" rx="10" ry="10" style="stroke:#CF2A2A;stroke-width:1.25;"/><text fill="#5A5A5A" font-family="Verdana" font-size="15" lengthAdjust="spacing" textLength="67.0825" x="1585.2087" y="207.6483">REST API</text></g><!--entity AuthController--><g id="elem_AuthController"><rect fill="url(#glfm3ujx8625n0)" height="62.4609" rx="5" ry="5" style="stroke:#33B2E2;stroke-width:1.25;" width="159.0381" x="1817.975" y="307.45"/><text fill="#FFFFFF" font-family="Verdana" font-size="15" lengthAdjust="spacing" textLength="114.0381" x="1840.475" y="343.8733">Auth Controller</text></g><!--entity RouteController--><g id="elem_RouteController"><rect fill="url(#glfm3ujx8625n0)" height="62.4609" rx="5" ry="5" style="stroke:#33B2E2;stroke-width:1.25;" width="168.0981" x="1605.95" y="307.45"/><text fill="#FFFFFF" font-family="Verdana" font-size="15" lengthAdjust="spacing" textLength="123.0981" x="1628.45" y="343.8733">Route Controller</text></g><!--entity OptimizationController--><g id="elem_OptimizationController"><rect fill="url(#glfm3ujx8625n0)" height="62.4609" rx="5" ry="5" style="stroke:#33B2E2;stroke-width:1.25;" width="219.8364" x="1342.5875" y="307.45"/><text fill="#FFFFFF" font-family="Verdana" font-size="15" lengthAdjust="spacing" textLength="174.8364" x="1365.0875" y="343.8733">Optimization Controller</text></g><!--entity ReportController--><g id="elem_ReportController"><rect fill="url(#glfm3ujx8625n0)" height="62.4609" rx="5" ry="5" style="stroke:#33B2E2;stroke-width:1.25;" width="174.2798" x="2020.3625" y="307.45"/><text fill="#FFFFFF" font-family="Verdana" font-size="15" lengthAdjust="spacing" textLength="129.2798" x="2042.8625" y="343.8733">Report Controller</text></g><!--entity RouteOptimizer--><g id="elem_RouteOptimizer"><rect fill="url(#glfm3ujx8625n0)" height="62.4609" rx="5" ry="5" style="stroke:#33B2E2;stroke-width:1.25;" width="167.4097" x="775.05" y="608.6625"/><text fill="#FFFFFF" font-family="Verdana" font-size="15" lengthAdjust="spacing" textLength="122.4097" x="797.55" y="645.0858">Route Optimizer</text></g><!--entity MobilityAnalyzer--><g id="elem_MobilityAnalyzer"><rect fill="url(#glfm3ujx8625n0)" height="62.4609" rx="5" ry="5" style="stroke:#33B2E2;stroke-width:1.25;" width="173.9429" x="986.775" y="608.6625"/><text fill="#FFFFFF" font-family="Verdana" font-size="15" lengthAdjust="spacing" textLength="128.9429" x="1009.275" y="645.0858">Mobility Analyzer</text></g><!--entity ReportGenerator--><g id="elem_ReportGenerator"><rect fill="url(#glfm3ujx8625n0)" height="62.4609" rx="5" ry="5" style="stroke:#33B2E2;stroke-width:1.25;" width="176.3379" x="775.575" y="869.875"/><text fill="#FFFFFF" font-family="Verdana" font-size="15" lengthAdjust="spacing" textLength="131.3379" x="798.075" y="906.2983">Report Generator</text></g><!--entity UsersDB--><g id="elem_UsersDB"><rect fill="url(#glfm3ujx8625n0)" height="62.4609" rx="5" ry="5" style="stroke:#33B2E2;stroke-width:1.25;" width="165.9668" x="1834.5125" y="869.875"/><text fill="#FFFFFF" font-family="Verdana" font-size="15" lengthAdjust="spacing" textLength="120.9668" x="1857.0125" y="906.2983">Users Collection</text></g><!--entity RoutesDB--><g id="elem_RoutesDB"><rect fill="url(#glfm3ujx8625n0)" height="62.4609" rx="5" ry="5" style="stroke:#33B2E2;stroke-width:1.25;" width="175.9937" x="1614.5" y="869.875"/><text fill="#FFFFFF" font-family="Verdana" font-size="15" lengthAdjust="spacing" textLength="130.9937" x="1637" y="906.2983">Routes Collection</text></g><!--entity ReportsDB--><g id="elem_ReportsDB"><rect fill="url(#glfm3ujx8625n0)" height="62.4609" rx="5" ry="5" style="stroke:#33B2E2;stroke-width:1.25;" width="182.1753" x="2043.9125" y="869.875"/><text fill="#FFFFFF" font-family="Verdana" font-size="15" lengthAdjust="spacing" textLength="137.1753" x="2066.4125" y="906.2983">Reports Collection</text></g><!--entity MobilityDB--><g id="elem_MobilityDB"><rect fill="url(#glfm3ujx8625n0)" height="62.4609" rx="5" ry="5" style="stroke:#33B2E2;stroke-width:1.25;" width="250.3491" x="1319.825" y="869.875"/><text fill="#FFFFFF" font-family="Verdana" font-size="15" lengthAdjust="spacing" textLength="205.3491" x="1342.325" y="906.2983">Mobility Patterns Collection</text></g><!--entity GoogleMapsAPI--><g id="elem_GoogleMapsAPI"><rect fill="url(#glfm3ujx8625n0)" height="62.4609" rx="5" ry="5" style="stroke:#33B2E2;stroke-width:1.25;" width="170.6323" x="514.6875" y="608.6625"/><text fill="#FFFFFF" font-family="Verdana" font-size="15" lengthAdjust="spacing" textLength="125.6323" x="537.1875" y="645.0858">Google Maps API</text></g><!--entity GoogleAuthAPI--><g id="elem_GoogleAuthAPI"><rect fill="url(#glfm3ujx8625n0)" height="62.4609" rx="5" ry="5" style="stroke:#33B2E2;stroke-width:1.25;" width="166.3184" x="304.3375" y="608.6625"/><text fill="#FFFFFF" font-family="Verdana" font-size="15" lengthAdjust="spacing" textLength="121.3184" x="326.8375" y="645.0858">Google Auth API</text></g><!--link Frontend to API--><g id="link_Frontend_API"><path d="M565.6348,162.475 C567.3348,162.475 569.23,162.475 571.3139,162.475 C579.6497,162.475 591.0054,162.475 604.9729,162.475 C632.9079,162.475 671.2899,162.475 716.8533,162.475 C807.9801,162.475 927.832,162.475 1050.2828,162.475 C1295.1844,162.475 1542.9813,162.475 1599.6625,162.475 " fill="#FFFFFF" fill-opacity="0.00000" id="Frontend-to-API" style="stroke:#009FDB;stroke-width:3.75;"/><polygon fill="#009FDB" points="1607.1625,162.475,1595.9125,157.475,1600.9125,162.475,1595.9125,167.475,1607.1625,162.475" style="stroke:#009FDB;stroke-width:3.75;"/><text fill="#5A5A5A" font-family="Verdana" font-size="15" lengthAdjust="spacing" textLength="115.481" x="1023.7431" y="145.1483">Calls REST APIs</text></g><!--link API to AuthController--><g id="link_API_AuthController"><path d="M1630.3875,168 C1655.4125,177.45 1715.8125,201.6625 1761.25,231.2 C1783.375,245.5875 1785.625,253.4875 1806.25,269.95 C1821.8,282.375 1833.2392,291.0652 1848.7017,302.4027 " fill="#FFFFFF" fill-opacity="0.00000" id="API-to-AuthController" style="stroke:#009FDB;stroke-width:3.75;"/><polygon fill="#009FDB" points="1854.75,306.8375,1848.634,296.1531,1849.7097,303.1418,1842.7209,304.2175,1854.75,306.8375" style="stroke:#009FDB;stroke-width:3.75;"/><text fill="#5A5A5A" font-family="Verdana" font-size="15" lengthAdjust="spacing" textLength="174.5215" x="1817.5" y="256.3733">Handles authentication</text></g><!--link API to RouteController--><g id="link_API_RouteController"><path d="M1615.4625,174.25 C1609.9,194.0125 1600.5875,237.5875 1615,269.95 C1621.3375,284.2 1626.7067,291.7333 1638.3567,301.9833 " fill="#FFFFFF" fill-opacity="0.00000" id="API-to-RouteController" style="stroke:#009FDB;stroke-width:3.75;"/><polygon fill="#009FDB" points="1643.9875,306.9375,1638.844,295.7524,1639.2951,302.809,1632.2385,303.2601,1643.9875,306.9375" style="stroke:#009FDB;stroke-width:3.75;"/><text fill="#5A5A5A" font-family="Verdana" font-size="15" lengthAdjust="spacing" textLength="119.9414" x="1626.25" y="256.3733">Manages routes</text></g><!--link API to ReportController--><g id="link_API_ReportController"><path d="M1630.4125,163.1625 C1679.5875,161.3125 1873.5875,159.1375 2007.5,231.2 C2040.95,249.2125 2065.1128,276.5317 2083.0503,301.0817 " fill="#FFFFFF" fill-opacity="0.00000" id="API-to-ReportController" style="stroke:#009FDB;stroke-width:3.75;"/><polygon fill="#009FDB" points="2087.475,307.1375,2084.8752,295.1041,2083.7878,302.091,2076.8008,301.0036,2087.475,307.1375" style="stroke:#009FDB;stroke-width:3.75;"/><text fill="#5A5A5A" font-family="Verdana" font-size="15" lengthAdjust="spacing" textLength="117.2607" x="2065" y="256.3733">Fetches reports</text></g><!--link API to OptimizationController--><g id="link_API_OptimizationController"><path d="M1607.375,163.35 C1571.6625,162.875 1461.475,166.8625 1415,231.2 C1398.625,253.875 1408.0492,278.1493 1423.2617,300.6493 " fill="#FFFFFF" fill-opacity="0.00000" id="API-to-OptimizationController" style="stroke:#009FDB;stroke-width:3.75;"/><polygon fill="#009FDB" points="1427.4625,306.8625,1425.3034,294.7422,1423.9618,301.6849,1417.0192,300.3433,1427.4625,306.8625" style="stroke:#009FDB;stroke-width:3.75;"/><text fill="#5A5A5A" font-family="Verdana" font-size="15" lengthAdjust="spacing" textLength="159.8438" x="1426.25" y="256.3733">Triggers optimization</text></g><!--link AuthController to UsersDB--><g id="link_AuthController_UsersDB"><path d="M1898.5875,370.4375 C1902.075,468 1912.6572,764.2298 1916.1447,861.8298 " fill="#FFFFFF" fill-opacity="0.00000" id="AuthController-to-UsersDB" style="stroke:#009FDB;stroke-width:3.75;"/><polygon fill="#009FDB" points="1916.4125,869.325,1921.0076,857.9036,1916.1893,863.079,1911.014,858.2607,1916.4125,869.325" style="stroke:#009FDB;stroke-width:3.75;"/><text fill="#5A5A5A" font-family="Verdana" font-size="15" lengthAdjust="spacing" textLength="123.8306" x="1921.25" y="645.6983">Stores user data</text></g><!--link RouteController to RoutesDB--><g id="link_RouteController_RoutesDB"><path d="M1690.675,370.4375 C1692.8625,468 1699.4704,764.2269 1701.6454,861.8269 " fill="#FFFFFF" fill-opacity="0.00000" id="RouteController-to-RoutesDB" style="stroke:#009FDB;stroke-width:3.75;"/><polygon fill="#009FDB" points="1701.8125,869.325,1706.5606,857.9664,1701.6733,863.0766,1696.5631,858.1892,1701.8125,869.325" style="stroke:#009FDB;stroke-width:3.75;"/><text fill="#5A5A5A" font-family="Verdana" font-size="15" lengthAdjust="spacing" textLength="131.0742" x="1708.75" y="645.6983">Stores route data</text></g><!--link OptimizationController to OptimizationEngine--><g id="link_OptimizationController_OptimizationEngine"><path d="M1342.0375,339.975 C1186.0625,342.6625 913.3375,357.85 851.25,429.9125 C840.0125,442.9625 839.2625,456.3 851.25,468.6625 C876.7875,495 1153.8375,454.2875 1181.25,478.6625 C1184.5547,481.6016 1187.5426,484.7845 1190.2403,488.1702 C1191.5891,489.8631 1192.8654,491.6067 1194.0724,493.3958 C1194.6759,494.2903 1195.2621,495.1962 1195.8313,496.1129 C1196.116,496.5713 1196.3964,497.0323 1196.6726,497.4959 C1196.8108,497.7277 1193.1676,491.4826 1193.3036,491.7157 " fill="#FFFFFF" fill-opacity="0.00000" id="OptimizationController-to-OptimizationEngine" style="stroke:#009FDB;stroke-width:3.75;"/><polygon fill="#009FDB" points="1197.0839,498.1933,1195.7319,485.9567,1193.9336,492.7953,1187.095,490.9971,1197.0839,498.1933" style="stroke:#009FDB;stroke-width:3.75;"/><text fill="#5A5A5A" font-family="Verdana" font-size="15" lengthAdjust="spacing" textLength="159.8438" x="862.5" y="455.0858">Triggers optimization</text></g><!--link ReportController to ReportsDB--><g id="link_ReportController_ReportsDB"><path d="M2109,370.4375 C2113.7875,468 2128.345,764.234 2133.1325,861.834 " fill="#FFFFFF" fill-opacity="0.00000" id="ReportController-to-ReportsDB" style="stroke:#009FDB;stroke-width:3.75;"/><polygon fill="#009FDB" points="2133.5,869.325,2137.9428,857.8435,2133.1938,863.0825,2127.9548,858.3335,2133.5,869.325" style="stroke:#009FDB;stroke-width:3.75;"/><text fill="#5A5A5A" font-family="Verdana" font-size="15" lengthAdjust="spacing" textLength="148.0005" x="2135" y="645.6983">Fetches report data</text></g><!--link OptimizationEngine to GoogleMapsAPI--><g id="link_OptimizationEngine_GoogleMapsAPI"><path d="M1215.1116,613.4377 C1215.2388,613.0506 1215.3663,612.6603 1215.4939,612.2668 C1216.0044,610.693 1216.5176,609.0686 1217.0294,607.3981 C1218.053,604.0573 1219.0712,600.5322 1220.0515,596.8592 C1222.0121,589.513 1223.8211,581.5746 1225.2188,573.3328 C1230.8094,540.3656 1229.8188,502.5437 1205.625,478.35 C1134.8125,407.5375 847.1125,439.3875 755,478.6625 C693.2125,505.0125 648.2373,563.0991 622.9123,602.0616 " fill="#FFFFFF" fill-opacity="0.00000" id="OptimizationEngine-to-GoogleMapsAPI" style="stroke:#009FDB;stroke-width:3.75;"/><polygon fill="#009FDB" points="618.825,608.35,629.1483,601.6423,622.2311,603.1097,620.7638,596.1925,618.825,608.35" style="stroke:#009FDB;stroke-width:3.75;"/><text fill="#5A5A5A" font-family="Verdana" font-size="15" lengthAdjust="spacing" textLength="141.8188" x="1053.125" y="455.0858">Fetches route data</text></g><!--link OptimizationEngine to MobilityDB--><g id="link_OptimizationEngine_MobilityDB"><path d="M1215.0141,714.4885 C1215.2377,715.2228 1215.4662,715.9567 1215.6998,716.6896 C1219.4375,728.4172 1224.4719,739.925 1231.25,749.875 C1267.7375,803.45 1323.5302,840.4731 1371.5177,865.8106 " fill="#FFFFFF" fill-opacity="0.00000" id="OptimizationEngine-to-MobilityDB" style="stroke:#009FDB;stroke-width:3.75;"/><polygon fill="#009FDB" points="1378.15,869.3125,1370.5362,859.6382,1372.6231,866.3943,1365.867,868.4812,1378.15,869.3125" style="stroke:#009FDB;stroke-width:3.75;"/><text fill="#5A5A5A" font-family="Verdana" font-size="15" lengthAdjust="spacing" textLength="169.1309" x="1242.5" y="736.2983">Stores transit patterns</text></g><!--link OptimizationEngine to RoutesDB--><g id="link_OptimizationEngine_RoutesDB"><path d="M1215.0675,642.8072 C1215.2172,642.8333 1215.3685,642.8597 1215.5212,642.8864 C1216.7433,643.1003 1218.0624,643.3344 1219.4736,643.5893 C1222.2959,644.0989 1225.4862,644.6912 1229.0043,645.3688 C1243.0766,648.0789 1262.3922,652.1531 1284.3687,657.7594 C1328.3219,668.9719 1382.9188,686.3125 1427.5,711.125 C1450.5625,723.9625 1448.1625,739.675 1472.5,749.875 C1521.85,770.575 1545.375,734.5 1592.5,759.875 C1637.95,784.35 1667.4332,829.8184 1684.8582,863.0934 " fill="#FFFFFF" fill-opacity="0.00000" id="OptimizationEngine-to-RoutesDB" style="stroke:#009FDB;stroke-width:3.75;"/><polygon fill="#009FDB" points="1688.3375,869.7375,1687.548,857.4518,1685.4381,864.2007,1678.6891,862.0908,1688.3375,869.7375" style="stroke:#009FDB;stroke-width:3.75;"/><text fill="#5A5A5A" font-family="Verdana" font-size="15" lengthAdjust="spacing" textLength="176.0962" x="1483.75" y="736.2983">Saves optimized routes</text></g><!--link Frontend to GoogleAuthAPI--><g id="link_Frontend_GoogleAuthAPI"><path d="M537.3,400.8774 C537.1765,401.3077 537.0523,401.7377 536.9274,402.1671 C536.6776,403.0261 536.425,403.8832 536.1694,404.7385 C535.6583,406.4491 535.1356,408.1521 534.6011,409.847 C533.532,413.2368 532.4156,416.5938 531.25,419.9125 C520.8875,449.425 509.6875,452.5375 492.5,478.6625 C462.7375,523.9 432.4095,570.1136 411.3345,602.2886 " fill="#FFFFFF" fill-opacity="0.00000" id="Frontend-to-GoogleAuthAPI" style="stroke:#009FDB;stroke-width:3.75;"/><polygon fill="#009FDB" points="407.225,608.5625,417.5719,601.8913,410.6496,603.3342,409.2066,596.412,407.225,608.5625" style="stroke:#009FDB;stroke-width:3.75;"/><text fill="#5A5A5A" font-family="Verdana" font-size="15" lengthAdjust="spacing" textLength="212.0068" x="566.25" y="344.4858">Handles user authentication</text></g><!--SRC=[VLHDSzCm4BtxLoo-K8P9P-38WPdceuKP0fccSD_OmXPL98-aa8PE_pihMNOiosakiPxUa_Ozx_gDhTcUmKuSMANnb9a21OCFrnypyyXbWnhtKAXzeoIJTcjFjAbPOL5MWcNz4-ItMadBP0bNlpWxleCPt3CiBBo71-JYo6bdiTtcW0PwwdC6zEjFX_oRghY43LRC4_tIhSQy9Pfwfr2NdjQlnhGrDk2gyInQkESnvqTZ-Px_GylLuEOXEbN0FMkKjiPpmtFsCenZZiMZJsD1NhKIWccNoNTLiki_Xb9PFJMQ6KCBVqZ7RoFXb8_-ZGKTTB_QFi3DvgjdqV-uafk3hU5yIKiZx0mbjQk3PME91ozhefH6qk7UAxVwb99hFJfGHI56jwuaDGE3gpL5A5oMcvEjbKnA2BpdQTk1ENJTGqdxg1qNt9xWHg8uTPeExS0BHk-OP1gj6lhiiTZc4Ytkq33oj5QoKijvQEi09rP-6gODHKc95SwoftjmEP-qdP1RT8BTzd92R-6KtqUqGKijAnDbHo1fv7drvEWeN4kt4z0X3aWjtodbT3J4ff-65dFGn5m4WH-FME0W9tZ9tf8nuPl6rBmnMVzXccbUrNRssIdX4-ImG24eXZ2B1lBCxSnATPIE5SsR4tn1MGgA7Mc7ok65loLMZKREoTOewMDZGFlNasSnVpGhJd3BR54xGVWUHOBfmNIo1_9NkHvI0mg9On_TEQ6pd71BpKlN7GY1aleppyOk8dUnohiAiWkrJPKU1lfosKamSMAXY3YgYJB2FVsxZzehEk62Z-w0SFkvzGSPM8tIS0jDc9TNJuWonB-iDyxAlaNIdeswVDYC_gsDEl8_]--></g></svg>