<svg xmlns="http://www.w3.org/2000/svg" xmlns:xlink="http://www.w3.org/1999/xlink" contentStyleType="text/css" data-diagram-type="SEQUENCE" height="1167.7083px" preserveAspectRatio="none" style="width:2235px;height:1167px;" version="1.1" viewBox="0 0 2235 1167" width="2235.4167px" zoomAndPan="magnify"><defs><linearGradient id="g6gf9kf12yesv0" x1="50%" x2="50%" y1="0%" y2="100%"><stop offset="0%" stop-color="#59B6EC"/><stop offset="100%" stop-color="#2FA4E7"/></linearGradient></defs><g><rect fill="#FFFFFF" fill-opacity="0.00000" height="182.0964" rx="4.1667" ry="4.1667" style="stroke:#59B6EC;stroke-width:1.0417;" width="792.4367" x="20.8333" y="209.2773"/><g><title>User - PT Management Authority</title><rect fill="#FFFFFF" fill-opacity="0.00000" height="971.1263" width="8.3333" x="137.5498" y="98.9258"/><line style="stroke:#BABDBF;stroke-width:1.0417;stroke-dasharray:5.0,5.0;" x1="141.6667" x2="141.6667" y1="98.9258" y2="1070.0521"/></g><g><title>Authentication Component</title><rect fill="#FFFFFF" fill-opacity="0.00000" height="971.1263" width="8.3333" x="542.0034" y="98.9258"/><line style="stroke:#BABDBF;stroke-width:1.0417;stroke-dasharray:5.0,5.0;" x1="545.3512" x2="545.3512" y1="98.9258" y2="1070.0521"/></g><g><title>UI Component</title><rect fill="#FFFFFF" fill-opacity="0.00000" height="971.1263" width="8.3333" x="745.6635" y="98.9258"/><line style="stroke:#BABDBF;stroke-width:1.0417;stroke-dasharray:5.0,5.0;" x1="748.8902" x2="748.8902" y1="98.9258" y2="1070.0521"/></g><g><title>Simulation Component</title><rect fill="#FFFFFF" fill-opacity="0.00000" height="971.1263" width="8.3333" x="958.3588" y="98.9258"/><line style="stroke:#BABDBF;stroke-width:1.0417;stroke-dasharray:5.0,5.0;" x1="961.795" x2="961.795" y1="98.9258" y2="1070.0521"/></g><g><title>Analytics Component</title><rect fill="#FFFFFF" fill-opacity="0.00000" height="971.1263" width="8.3333" x="1272.0795" y="98.9258"/><line style="stroke:#BABDBF;stroke-width:1.0417;stroke-dasharray:5.0,5.0;" x1="1275.2177" x2="1275.2177" y1="98.9258" y2="1070.0521"/></g><g><title>Decision Support Component</title><rect fill="#FFFFFF" fill-opacity="0.00000" height="971.1263" width="8.3333" x="1637.4969" y="98.9258"/><line style="stroke:#BABDBF;stroke-width:1.0417;stroke-dasharray:5.0,5.0;" x1="1640.7145" x2="1640.7145" y1="98.9258" y2="1070.0521"/></g><g><title>Export Component</title><rect fill="#FFFFFF" fill-opacity="0.00000" height="971.1263" width="8.3333" x="1859.5673" y="98.9258"/><line style="stroke:#BABDBF;stroke-width:1.0417;stroke-dasharray:5.0,5.0;" x1="1863.3362" x2="1863.3362" y1="98.9258" y2="1070.0521"/></g><g><text fill="#343A40" font-family="Verdana" font-size="12.5" lengthAdjust="spacing" textLength="204.2664" x="36.4583" y="90.7694">User - PT Management Authority</text><ellipse cx="141.7165" cy="19.7917" fill="url(#g6gf9kf12yesv0)" rx="8.3333" ry="8.3333" style="stroke:#2FA4E7;stroke-width:1.0417;"/><path d="M141.7165,28.125 L141.7165,56.25 M128.1748,36.4583 L155.2582,36.4583 M141.7165,56.25 L128.1748,71.875 M141.7165,56.25 L155.2582,71.875 " fill="#FFFFFF" fill-opacity="0.00000" style="stroke:#2FA4E7;stroke-width:1.0417;"/></g><g><text fill="#343A40" font-family="Verdana" font-size="12.5" lengthAdjust="spacing" textLength="204.2664" x="36.4583" y="1085.8215">User - PT Management Authority</text><ellipse cx="141.7165" cy="1103.3529" fill="url(#g6gf9kf12yesv0)" rx="8.3333" ry="8.3333" style="stroke:#2FA4E7;stroke-width:1.0417;"/><path d="M141.7165,1111.6862 L141.7165,1139.8112 M128.1748,1120.0195 L155.2582,1120.0195 M141.7165,1139.8112 L128.1748,1155.4362 M141.7165,1139.8112 L155.2582,1155.4362 " fill="#FFFFFF" fill-opacity="0.00000" style="stroke:#2FA4E7;stroke-width:1.0417;"/></g><g><text fill="#343A40" font-family="Verdana" font-size="12.5" lengthAdjust="spacing" textLength="168.3044" x="458.8928" y="90.7694">Authentication Component</text><ellipse cx="546.17" cy="57.2917" fill="url(#g6gf9kf12yesv0)" rx="12.5" ry="12.5" style="stroke:#2FA4E7;stroke-width:1.0417;"/><line style="stroke:#2FA4E7;stroke-width:1.0417;" x1="533.67" x2="558.67" y1="71.875" y2="71.875"/></g><g><text fill="#343A40" font-family="Verdana" font-size="12.5" lengthAdjust="spacing" textLength="168.3044" x="458.8928" y="1085.8215">Authentication Component</text><ellipse cx="546.17" cy="1110.6445" fill="url(#g6gf9kf12yesv0)" rx="12.5" ry="12.5" style="stroke:#2FA4E7;stroke-width:1.0417;"/><line style="stroke:#2FA4E7;stroke-width:1.0417;" x1="533.67" x2="558.67" y1="1125.2279" y2="1125.2279"/></g><g><text fill="#343A40" font-family="Verdana" font-size="12.5" lengthAdjust="spacing" textLength="89.3799" x="702.0152" y="90.7694">UI Component</text><ellipse cx="749.8301" cy="57.2917" fill="url(#g6gf9kf12yesv0)" rx="12.5" ry="12.5" style="stroke:#2FA4E7;stroke-width:1.0417;"/><line style="stroke:#2FA4E7;stroke-width:1.0417;" x1="737.3301" x2="762.3301" y1="71.875" y2="71.875"/></g><g><text fill="#343A40" font-family="Verdana" font-size="12.5" lengthAdjust="spacing" textLength="89.3799" x="702.0152" y="1085.8215">UI Component</text><ellipse cx="749.8301" cy="1110.6445" fill="url(#g6gf9kf12yesv0)" rx="12.5" ry="12.5" style="stroke:#2FA4E7;stroke-width:1.0417;"/><line style="stroke:#2FA4E7;stroke-width:1.0417;" x1="737.3301" x2="762.3301" y1="1125.2279" y2="1125.2279"/></g><g><text fill="#343A40" font-family="Verdana" font-size="12.5" lengthAdjust="spacing" textLength="143.1274" x="887.8367" y="90.7694">Simulation Component</text><ellipse cx="962.5254" cy="57.2917" fill="url(#g6gf9kf12yesv0)" rx="12.5" ry="12.5" style="stroke:#2FA4E7;stroke-width:1.0417;"/><line style="stroke:#2FA4E7;stroke-width:1.0417;" x1="950.0254" x2="975.0254" y1="71.875" y2="71.875"/></g><g><text fill="#343A40" font-family="Verdana" font-size="12.5" lengthAdjust="spacing" textLength="143.1274" x="887.8367" y="1085.8215">Simulation Component</text><ellipse cx="962.5254" cy="1110.6445" fill="url(#g6gf9kf12yesv0)" rx="12.5" ry="12.5" style="stroke:#2FA4E7;stroke-width:1.0417;"/><line style="stroke:#2FA4E7;stroke-width:1.0417;" x1="950.0254" x2="975.0254" y1="1125.2279" y2="1125.2279"/></g><g><text fill="#343A40" font-family="Verdana" font-size="12.5" lengthAdjust="spacing" textLength="133.3069" x="1206.4677" y="90.7694">Analytics Component</text><ellipse cx="1276.2461" cy="57.2917" fill="url(#g6gf9kf12yesv0)" rx="12.5" ry="12.5" style="stroke:#2FA4E7;stroke-width:1.0417;"/><line style="stroke:#2FA4E7;stroke-width:1.0417;" x1="1263.7461" x2="1288.7461" y1="71.875" y2="71.875"/></g><g><text fill="#343A40" font-family="Verdana" font-size="12.5" lengthAdjust="spacing" textLength="133.3069" x="1206.4677" y="1085.8215">Analytics Component</text><ellipse cx="1276.2461" cy="1110.6445" fill="url(#g6gf9kf12yesv0)" rx="12.5" ry="12.5" style="stroke:#2FA4E7;stroke-width:1.0417;"/><line style="stroke:#2FA4E7;stroke-width:1.0417;" x1="1263.7461" x2="1288.7461" y1="1125.2279" y2="1125.2279"/></g><g><text fill="#343A40" font-family="Verdana" font-size="12.5" lengthAdjust="spacing" textLength="183.1482" x="1546.9645" y="90.7694">Decision Support Component</text><ellipse cx="1641.6636" cy="57.2917" fill="url(#g6gf9kf12yesv0)" rx="12.5" ry="12.5" style="stroke:#2FA4E7;stroke-width:1.0417;"/><line style="stroke:#2FA4E7;stroke-width:1.0417;" x1="1629.1636" x2="1654.1636" y1="71.875" y2="71.875"/></g><g><text fill="#343A40" font-family="Verdana" font-size="12.5" lengthAdjust="spacing" textLength="183.1482" x="1546.9645" y="1085.8215">Decision Support Component</text><ellipse cx="1641.6636" cy="1110.6445" fill="url(#g6gf9kf12yesv0)" rx="12.5" ry="12.5" style="stroke:#2FA4E7;stroke-width:1.0417;"/><line style="stroke:#2FA4E7;stroke-width:1.0417;" x1="1629.1636" x2="1654.1636" y1="1125.2279" y2="1125.2279"/></g><g><text fill="#343A40" font-family="Verdana" font-size="12.5" lengthAdjust="spacing" textLength="117.4622" x="1801.8778" y="90.7694">Export Component</text><ellipse cx="1863.7339" cy="57.2917" fill="url(#g6gf9kf12yesv0)" rx="12.5" ry="12.5" style="stroke:#2FA4E7;stroke-width:1.0417;"/><line style="stroke:#2FA4E7;stroke-width:1.0417;" x1="1851.2339" x2="1876.2339" y1="71.875" y2="71.875"/></g><g><text fill="#343A40" font-family="Verdana" font-size="12.5" lengthAdjust="spacing" textLength="117.4622" x="1801.8778" y="1085.8215">Export Component</text><ellipse cx="1863.7339" cy="1110.6445" fill="url(#g6gf9kf12yesv0)" rx="12.5" ry="12.5" style="stroke:#2FA4E7;stroke-width:1.0417;"/><line style="stroke:#2FA4E7;stroke-width:1.0417;" x1="1851.2339" x2="1876.2339" y1="1125.2279" y2="1125.2279"/></g><g><polygon fill="#2FA4E7" points="533.67,136.3932,544.0867,140.5599,533.67,144.7266,537.8367,140.5599" style="stroke:#2FA4E7;stroke-width:1.0417;"/><line style="stroke:#2FA4E7;stroke-width:3.125;" x1="141.7165" x2="539.92" y1="140.5599" y2="140.5599"/><text fill="#343A40" font-family="Verdana" font-size="12.5" lengthAdjust="spacing" textLength="138.5925" x="154.2165" y="130.3202">login(userCredentials)</text></g><g><line style="stroke:#2FA4E7;stroke-width:3.125;" x1="546.17" x2="589.92" y1="180.1107" y2="180.1107"/><line style="stroke:#2FA4E7;stroke-width:3.125;" x1="589.92" x2="589.92" y1="180.1107" y2="193.6523"/><line style="stroke:#2FA4E7;stroke-width:3.125;" x1="547.2117" x2="589.92" y1="193.6523" y2="193.6523"/><polygon fill="#2FA4E7" points="557.6284,189.4857,547.2117,193.6523,557.6284,197.819,553.4617,193.6523" style="stroke:#2FA4E7;stroke-width:1.0417;"/><text fill="#343A40" font-family="Verdana" font-size="12.5" lengthAdjust="spacing" textLength="109.8938" x="558.67" y="169.871">Verify credentials</text></g><path d="M25,209.2773 L96.8201,209.2773 L96.8201,225.9115 L86.4034,236.3281 L20.8333,236.3281 L20.8333,213.444 A4.1667,4.1667 0 0 1 25,209.2773 " fill="#E9ECEF" style="stroke:#868E96;stroke-width:1.0417;"/><rect fill="#FFFFFF" fill-opacity="0.00000" height="182.0964" rx="4.1667" ry="4.1667" style="stroke:#59B6EC;stroke-width:1.0417;" width="792.4367" x="20.8333" y="209.2773"/><text fill="#033C73" font-family="Verdana" font-size="12.5" font-weight="bold" lengthAdjust="spacing" textLength="18.6951" x="41.6667" y="227.1301">alt</text><text fill="#343A40" font-family="Verdana" font-size="12.5" font-weight="bold" lengthAdjust="spacing" textLength="130.2002" x="117.6534" y="228.1718">[Valid credentials]</text><g><polygon fill="#2FA4E7" points="737.3301,272.7214,747.7468,276.888,737.3301,281.0547,741.4968,276.888" style="stroke:#2FA4E7;stroke-width:1.0417;"/><line style="stroke:#2FA4E7;stroke-width:3.125;" x1="546.17" x2="743.5801" y1="276.888" y2="276.888"/><text fill="#343A40" font-family="Verdana" font-size="12.5" lengthAdjust="spacing" textLength="168.2434" x="558.67" y="266.6484">Grant access to dashboard</text></g><g><polygon fill="#2FA4E7" points="153.1748,312.2721,142.7582,316.4388,153.1748,320.6055,149.0082,316.4388" style="stroke:#2FA4E7;stroke-width:1.0417;"/><line style="stroke:#2FA4E7;stroke-width:3.125;" x1="146.9248" x2="748.7885" y1="316.4388" y2="316.4388"/><text fill="#343A40" font-family="Verdana" font-size="12.5" lengthAdjust="spacing" textLength="116.394" x="164.6332" y="306.1991">Display dashboard</text></g><line style="stroke:#59B6EC;stroke-width:1.0417;stroke-dasharray:2.0,2.0;" x1="20.8333" x2="813.2701" y1="325.8138" y2="325.8138"/><text fill="#343A40" font-family="Verdana" font-size="12.5" font-weight="bold" lengthAdjust="spacing" textLength="142.2241" x="31.25" y="342.6249">[Invalid credentials]</text><g><polygon fill="#2FA4E7" points="153.1748,378.8737,142.7582,383.0404,153.1748,387.207,149.0082,383.0404" style="stroke:#2FA4E7;stroke-width:1.0417;"/><line style="stroke:#2FA4E7;stroke-width:3.125;" x1="146.9248" x2="545.1284" y1="383.0404" y2="383.0404"/><text fill="#343A40" font-family="Verdana" font-size="12.5" lengthAdjust="spacing" textLength="369.0369" x="164.6332" y="372.8007">Display error message ("Incorrect username or password")</text></g><g><polygon fill="#2FA4E7" points="737.3301,425.7161,747.7468,429.8828,737.3301,434.0495,741.4968,429.8828" style="stroke:#2FA4E7;stroke-width:1.0417;"/><line style="stroke:#2FA4E7;stroke-width:3.125;" x1="141.7165" x2="743.5801" y1="429.8828" y2="429.8828"/><text fill="#343A40" font-family="Verdana" font-size="12.5" lengthAdjust="spacing" textLength="187.4207" x="154.2165" y="419.6431">accessDecisionSupportTools()</text></g><g><line style="stroke:#2FA4E7;stroke-width:3.125;" x1="749.8301" x2="793.5801" y1="469.4336" y2="469.4336"/><line style="stroke:#2FA4E7;stroke-width:3.125;" x1="793.5801" x2="793.5801" y1="469.4336" y2="482.9753"/><line style="stroke:#2FA4E7;stroke-width:3.125;" x1="750.8718" x2="793.5801" y1="482.9753" y2="482.9753"/><polygon fill="#2FA4E7" points="761.2885,478.8086,750.8718,482.9753,761.2885,487.1419,757.1218,482.9753" style="stroke:#2FA4E7;stroke-width:1.0417;"/><text fill="#343A40" font-family="Verdana" font-size="12.5" lengthAdjust="spacing" textLength="187.6953" x="762.3301" y="459.1939">Display decision support tools</text></g><g><polygon fill="#2FA4E7" points="153.1748,518.3594,142.7582,522.526,153.1748,526.6927,149.0082,522.526" style="stroke:#2FA4E7;stroke-width:1.0417;"/><line style="stroke:#2FA4E7;stroke-width:3.125;" x1="146.9248" x2="748.7885" y1="522.526" y2="522.526"/><text fill="#343A40" font-family="Verdana" font-size="12.5" lengthAdjust="spacing" textLength="315.332" x="164.6332" y="512.2864">Show transport analytics and scenario simulations</text></g><g><polygon fill="#2FA4E7" points="950.0254,557.9102,960.4421,562.0768,950.0254,566.2435,954.1921,562.0768" style="stroke:#2FA4E7;stroke-width:1.0417;"/><line style="stroke:#2FA4E7;stroke-width:3.125;" x1="141.7165" x2="956.2754" y1="562.0768" y2="562.0768"/><text fill="#343A40" font-family="Verdana" font-size="12.5" lengthAdjust="spacing" textLength="226.3977" x="154.2165" y="551.8372">simulateScenario(simulationDetails)</text></g><g><line style="stroke:#2FA4E7;stroke-width:3.125;" x1="962.5254" x2="1006.2754" y1="601.6276" y2="601.6276"/><line style="stroke:#2FA4E7;stroke-width:3.125;" x1="1006.2754" x2="1006.2754" y1="601.6276" y2="615.1693"/><line style="stroke:#2FA4E7;stroke-width:3.125;" x1="963.5671" x2="1006.2754" y1="615.1693" y2="615.1693"/><polygon fill="#2FA4E7" points="973.9838,611.0026,963.5671,615.1693,973.9838,619.3359,969.8171,615.1693" style="stroke:#2FA4E7;stroke-width:1.0417;"/><text fill="#343A40" font-family="Verdana" font-size="12.5" lengthAdjust="spacing" textLength="288.7207" x="975.0254" y="591.3879">Simulate transport scenario (e.g., new routes)</text></g><g><polygon fill="#2FA4E7" points="153.1748,650.5534,142.7582,654.7201,153.1748,658.8867,149.0082,654.7201" style="stroke:#2FA4E7;stroke-width:1.0417;"/><line style="stroke:#2FA4E7;stroke-width:3.125;" x1="146.9248" x2="961.4838" y1="654.7201" y2="654.7201"/><text fill="#343A40" font-family="Verdana" font-size="12.5" lengthAdjust="spacing" textLength="432.5317" x="164.6332" y="644.4804">Display simulation outcomes (cost efficiency, passenger distribution)</text></g><g><polygon fill="#2FA4E7" points="1263.7461,690.1042,1274.1628,694.2708,1263.7461,698.4375,1267.9128,694.2708" style="stroke:#2FA4E7;stroke-width:1.0417;"/><line style="stroke:#2FA4E7;stroke-width:3.125;" x1="141.7165" x2="1269.9961" y1="694.2708" y2="694.2708"/><text fill="#343A40" font-family="Verdana" font-size="12.5" lengthAdjust="spacing" textLength="184.1125" x="154.2165" y="684.0312">analyzeImpact(scenarioData)</text></g><g><line style="stroke:#2FA4E7;stroke-width:3.125;" x1="1276.2461" x2="1319.9961" y1="733.8216" y2="733.8216"/><line style="stroke:#2FA4E7;stroke-width:3.125;" x1="1319.9961" x2="1319.9961" y1="733.8216" y2="747.3633"/><line style="stroke:#2FA4E7;stroke-width:3.125;" x1="1277.2878" x2="1319.9961" y1="747.3633" y2="747.3633"/><polygon fill="#2FA4E7" points="1287.7045,743.1966,1277.2878,747.3633,1287.7045,751.5299,1283.5378,747.3633" style="stroke:#2FA4E7;stroke-width:1.0417;"/><text fill="#343A40" font-family="Verdana" font-size="12.5" lengthAdjust="spacing" textLength="340.4175" x="1288.7461" y="723.5819">Analyze impact (cost changes, efficiency, satisfaction)</text></g><g><polygon fill="#2FA4E7" points="153.1748,782.7474,142.7582,786.9141,153.1748,791.0807,149.0082,786.9141" style="stroke:#2FA4E7;stroke-width:1.0417;"/><line style="stroke:#2FA4E7;stroke-width:3.125;" x1="146.9248" x2="1275.2045" y1="786.9141" y2="786.9141"/><text fill="#343A40" font-family="Verdana" font-size="12.5" lengthAdjust="spacing" textLength="257.2693" x="164.6332" y="776.6744">Provide analysis results (graphs, reports)</text></g><g><polygon fill="#2FA4E7" points="1629.1636,822.2982,1639.5803,826.4648,1629.1636,830.6315,1633.3303,826.4648" style="stroke:#2FA4E7;stroke-width:1.0417;"/><line style="stroke:#2FA4E7;stroke-width:3.125;" x1="141.7165" x2="1635.4136" y1="826.4648" y2="826.4648"/><text fill="#343A40" font-family="Verdana" font-size="12.5" lengthAdjust="spacing" textLength="192.2546" x="154.2165" y="816.2252">finalizeDecisions(decisionPlan)</text></g><g><line style="stroke:#2FA4E7;stroke-width:3.125;" x1="1641.6636" x2="1685.4136" y1="866.0156" y2="866.0156"/><line style="stroke:#2FA4E7;stroke-width:3.125;" x1="1685.4136" x2="1685.4136" y1="866.0156" y2="879.5573"/><line style="stroke:#2FA4E7;stroke-width:3.125;" x1="1642.7053" x2="1685.4136" y1="879.5573" y2="879.5573"/><polygon fill="#2FA4E7" points="1653.1219,875.3906,1642.7053,879.5573,1653.1219,883.724,1648.9553,879.5573" style="stroke:#2FA4E7;stroke-width:1.0417;"/><text fill="#343A40" font-family="Verdana" font-size="12.5" lengthAdjust="spacing" textLength="197.0703" x="1654.1636" y="855.776">Store decision plan in database</text></g><g><polygon fill="#2FA4E7" points="153.1748,914.9414,142.7582,919.1081,153.1748,923.2747,149.0082,919.1081" style="stroke:#2FA4E7;stroke-width:1.0417;"/><line style="stroke:#2FA4E7;stroke-width:3.125;" x1="146.9248" x2="1640.6219" y1="919.1081" y2="919.1081"/><text fill="#343A40" font-family="Verdana" font-size="12.5" lengthAdjust="spacing" textLength="152.6672" x="164.6332" y="908.8684">Confirm decisions saved</text></g><g><polygon fill="#2FA4E7" points="1851.2339,954.4922,1861.6506,958.6589,1851.2339,962.8255,1855.4006,958.6589" style="stroke:#2FA4E7;stroke-width:1.0417;"/><line style="stroke:#2FA4E7;stroke-width:3.125;" x1="141.7165" x2="1857.4839" y1="958.6589" y2="958.6589"/><text fill="#343A40" font-family="Verdana" font-size="12.5" lengthAdjust="spacing" textLength="180.5176" x="154.2165" y="948.4192">exportDecisions(planDetails)</text></g><g><line style="stroke:#2FA4E7;stroke-width:3.125;" x1="1863.7339" x2="1907.4839" y1="998.2096" y2="998.2096"/><line style="stroke:#2FA4E7;stroke-width:3.125;" x1="1907.4839" x2="1907.4839" y1="998.2096" y2="1011.7513"/><line style="stroke:#2FA4E7;stroke-width:3.125;" x1="1864.7756" x2="1907.4839" y1="1011.7513" y2="1011.7513"/><polygon fill="#2FA4E7" points="1875.1923,1007.5846,1864.7756,1011.7513,1875.1923,1015.918,1871.0256,1011.7513" style="stroke:#2FA4E7;stroke-width:1.0417;"/><text fill="#343A40" font-family="Verdana" font-size="12.5" lengthAdjust="spacing" textLength="346.759" x="1876.2339" y="987.97">Generate downloadable decision plan (PDF, Excel, etc.)</text></g><g><polygon fill="#2FA4E7" points="153.1748,1047.1354,142.7582,1051.3021,153.1748,1055.4688,149.0082,1051.3021" style="stroke:#2FA4E7;stroke-width:1.0417;"/><line style="stroke:#2FA4E7;stroke-width:3.125;" x1="146.9248" x2="1862.6923" y1="1051.3021" y2="1051.3021"/><text fill="#343A40" font-family="Verdana" font-size="12.5" lengthAdjust="spacing" textLength="361.9934" x="164.6332" y="1041.0624">Provide download link and share option with stakeholders</text></g><!--SRC=[ZLJBRkCm3BpxAxWvEK0s7z330aMpM-ImG82qlJCo4mjL94EKcqs_VYd7Rpj5Uqb1pOo7v4W_Gavd0aM-D8GsIL05vs7nokJX9-nUu2zQF0d61dWiG-wy3jS584E498dKfG2BU1R_LnYqi_3apeMpKgYWyR2jj9JNxGZskfs2zlfScZdDxc1AUhHehkA5npwQ-fIo8QKvVcLV5eNpOSHiZklJAV_tlndMhTY1azjOVmq70WzWt4dRj9JJ9qzPr4J3osG8c-6zaTV7AwYEbA09y8P6PuCgoDz4hJTlqNhsAB-e5353S90XvmU7Fgl8VMoanaOUOAEvC7ZjOSammTP-VDF1K8Qyb_2TnO143jB5rYhdFQa0SJGM9QboNY3pnVbiiPJfPzrGX-tS6XdjxSKvm-ao6NSpOBPDDP7WEX8XifFvIUnpTu4W8-GAYcq2qMR0YYnwxO3Rq7BdUoR98bX3QLzpquwxeO0wvcEEULUmhbBFPUihfVLflG9B5_2k37HVUxInpXG8JpdP7QJASG0w7hNIPDLrLMsCx4cOcURWzQ6CZ6NlFamkPjnWB7xIzbp8evGsNZSOK6x6b71Fvl4c0xhIgTsf7CKFhmOsMHhXeu0gS_EVgFlVUVUXCxfvPCtWYKiJfFcJno8NOKznnDnhyjuR8d97BJhwane8fqtuTWR5ortgrx9xUSkfox5ip8AsSbi37f3fIzcwqITdZzgVMn6MANrGxzQDtZYXK5NfMecVRICxXiygF9Cb7wEQkOir3ZCyc74VwMxpPoLSHKQs6DHwLdkqhaOFZBRljwkPeup85LM4Bpham07VANSc8y__0G00]--></g></svg>