<svg xmlns="http://www.w3.org/2000/svg" xmlns:xlink="http://www.w3.org/1999/xlink" contentStyleType="text/css" data-diagram-type="SEQUENCE" height="1114.5833px" preserveAspectRatio="none" style="width:1622px;height:1114px;" version="1.1" viewBox="0 0 1622 1114" width="1622.9167px" zoomAndPan="magnify"><defs><linearGradient id="gd711itxbiz4k0" x1="50%" x2="50%" y1="0%" y2="100%"><stop offset="0%" stop-color="#59B6EC"/><stop offset="100%" stop-color="#2FA4E7"/></linearGradient></defs><g><rect fill="#FFFFFF" fill-opacity="0.00000" height="182.0964" rx="4.1667" ry="4.1667" style="stroke:#59B6EC;stroke-width:1.0417;" width="858.0221" x="20.8333" y="209.2773"/><g><title>User - Public Transport Engineer / PT Management Authority</title><rect fill="#FFFFFF" fill-opacity="0.00000" height="918.0339" width="8.3333" x="224.29" y="98.9258"/><line style="stroke:#BABDBF;stroke-width:1.0417;stroke-dasharray:5.0,5.0;" x1="228.125" x2="228.125" y1="98.9258" y2="1016.9596"/></g><g><title>Authentication Component</title><rect fill="#FFFFFF" fill-opacity="0.00000" height="918.0339" width="8.3333" x="628.7435" y="98.9258"/><line style="stroke:#BABDBF;stroke-width:1.0417;stroke-dasharray:5.0,5.0;" x1="632.0913" x2="632.0913" y1="98.9258" y2="1016.9596"/></g><g><title>UI Component</title><rect fill="#FFFFFF" fill-opacity="0.00000" height="918.0339" width="8.3333" x="811.2488" y="98.9258"/><line style="stroke:#BABDBF;stroke-width:1.0417;stroke-dasharray:5.0,5.0;" x1="814.4755" x2="814.4755" y1="98.9258" y2="1016.9596"/></g><g><title>Data Filtering Component</title><rect fill="#FFFFFF" fill-opacity="0.00000" height="918.0339" width="8.3333" x="1018.8782" y="98.9258"/><line style="stroke:#BABDBF;stroke-width:1.0417;stroke-dasharray:5.0,5.0;" x1="1022.4731" x2="1022.4731" y1="98.9258" y2="1016.9596"/></g><g><title>Analysis Engine</title><rect fill="#FFFFFF" fill-opacity="0.00000" height="918.0339" width="8.3333" x="1176.6052" y="98.9258"/><line style="stroke:#BABDBF;stroke-width:1.0417;stroke-dasharray:5.0,5.0;" x1="1180.5725" x2="1180.5725" y1="98.9258" y2="1016.9596"/></g><g><title>Database Component</title><rect fill="#FFFFFF" fill-opacity="0.00000" height="918.0339" width="8.3333" x="1431.0059" y="98.9258"/><line style="stroke:#BABDBF;stroke-width:1.0417;stroke-dasharray:5.0,5.0;" x1="1434.787" x2="1434.787" y1="98.9258" y2="1016.9596"/></g><g><text fill="#343A40" font-family="Verdana" font-size="12.5" lengthAdjust="spacing" textLength="377.7466" x="36.4583" y="90.7694">User - Public Transport Engineer / PT Management Authority</text><ellipse cx="228.4566" cy="19.7917" fill="url(#gd711itxbiz4k0)" rx="8.3333" ry="8.3333" style="stroke:#2FA4E7;stroke-width:1.0417;"/><path d="M228.4566,28.125 L228.4566,56.25 M214.915,36.4583 L241.9983,36.4583 M228.4566,56.25 L214.915,71.875 M228.4566,56.25 L241.9983,71.875 " fill="#FFFFFF" fill-opacity="0.00000" style="stroke:#2FA4E7;stroke-width:1.0417;"/></g><g><text fill="#343A40" font-family="Verdana" font-size="12.5" lengthAdjust="spacing" textLength="377.7466" x="36.4583" y="1032.7291">User - Public Transport Engineer / PT Management Authority</text><ellipse cx="228.4566" cy="1050.2604" fill="url(#gd711itxbiz4k0)" rx="8.3333" ry="8.3333" style="stroke:#2FA4E7;stroke-width:1.0417;"/><path d="M228.4566,1058.5938 L228.4566,1086.7188 M214.915,1066.9271 L241.9983,1066.9271 M228.4566,1086.7188 L214.915,1102.3438 M228.4566,1086.7188 L241.9983,1102.3438 " fill="#FFFFFF" fill-opacity="0.00000" style="stroke:#2FA4E7;stroke-width:1.0417;"/></g><g><text fill="#343A40" font-family="Verdana" font-size="12.5" lengthAdjust="spacing" textLength="168.3044" x="545.6329" y="90.7694">Authentication Component</text><ellipse cx="632.9102" cy="57.2917" fill="url(#gd711itxbiz4k0)" rx="12.5" ry="12.5" style="stroke:#2FA4E7;stroke-width:1.0417;"/><line style="stroke:#2FA4E7;stroke-width:1.0417;" x1="620.4102" x2="645.4102" y1="71.875" y2="71.875"/></g><g><text fill="#343A40" font-family="Verdana" font-size="12.5" lengthAdjust="spacing" textLength="168.3044" x="545.6329" y="1032.7291">Authentication Component</text><ellipse cx="632.9102" cy="1057.5521" fill="url(#gd711itxbiz4k0)" rx="12.5" ry="12.5" style="stroke:#2FA4E7;stroke-width:1.0417;"/><line style="stroke:#2FA4E7;stroke-width:1.0417;" x1="620.4102" x2="645.4102" y1="1072.1354" y2="1072.1354"/></g><g><text fill="#343A40" font-family="Verdana" font-size="12.5" lengthAdjust="spacing" textLength="89.3799" x="767.6005" y="90.7694">UI Component</text><ellipse cx="815.4154" cy="57.2917" fill="url(#gd711itxbiz4k0)" rx="12.5" ry="12.5" style="stroke:#2FA4E7;stroke-width:1.0417;"/><line style="stroke:#2FA4E7;stroke-width:1.0417;" x1="802.9154" x2="827.9154" y1="71.875" y2="71.875"/></g><g><text fill="#343A40" font-family="Verdana" font-size="12.5" lengthAdjust="spacing" textLength="89.3799" x="767.6005" y="1032.7291">UI Component</text><ellipse cx="815.4154" cy="1057.5521" fill="url(#gd711itxbiz4k0)" rx="12.5" ry="12.5" style="stroke:#2FA4E7;stroke-width:1.0417;"/><line style="stroke:#2FA4E7;stroke-width:1.0417;" x1="802.9154" x2="827.9154" y1="1072.1354" y2="1072.1354"/></g><g><text fill="#343A40" font-family="Verdana" font-size="12.5" lengthAdjust="spacing" textLength="161.5601" x="939.1398" y="90.7694">Data Filtering Component</text><ellipse cx="1023.0448" cy="57.2917" fill="url(#gd711itxbiz4k0)" rx="12.5" ry="12.5" style="stroke:#2FA4E7;stroke-width:1.0417;"/><line style="stroke:#2FA4E7;stroke-width:1.0417;" x1="1010.5448" x2="1035.5448" y1="71.875" y2="71.875"/></g><g><text fill="#343A40" font-family="Verdana" font-size="12.5" lengthAdjust="spacing" textLength="161.5601" x="939.1398" y="1032.7291">Data Filtering Component</text><ellipse cx="1023.0448" cy="1057.5521" fill="url(#gd711itxbiz4k0)" rx="12.5" ry="12.5" style="stroke:#2FA4E7;stroke-width:1.0417;"/><line style="stroke:#2FA4E7;stroke-width:1.0417;" x1="1010.5448" x2="1035.5448" y1="1072.1354" y2="1072.1354"/></g><g><text fill="#343A40" font-family="Verdana" font-size="12.5" lengthAdjust="spacing" textLength="98.3154" x="1128.4892" y="90.7694">Analysis Engine</text><ellipse cx="1180.7719" cy="57.2917" fill="url(#gd711itxbiz4k0)" rx="12.5" ry="12.5" style="stroke:#2FA4E7;stroke-width:1.0417;"/><line style="stroke:#2FA4E7;stroke-width:1.0417;" x1="1168.2719" x2="1193.2719" y1="71.875" y2="71.875"/></g><g><text fill="#343A40" font-family="Verdana" font-size="12.5" lengthAdjust="spacing" textLength="98.3154" x="1128.4892" y="1032.7291">Analysis Engine</text><ellipse cx="1180.7719" cy="1057.5521" fill="url(#gd711itxbiz4k0)" rx="12.5" ry="12.5" style="stroke:#2FA4E7;stroke-width:1.0417;"/><line style="stroke:#2FA4E7;stroke-width:1.0417;" x1="1168.2719" x2="1193.2719" y1="1072.1354" y2="1072.1354"/></g><g><text fill="#343A40" font-family="Verdana" font-size="12.5" lengthAdjust="spacing" textLength="136.1877" x="1363.9537" y="90.7694">Database Component</text><ellipse cx="1435.1725" cy="57.2917" fill="url(#gd711itxbiz4k0)" rx="12.5" ry="12.5" style="stroke:#2FA4E7;stroke-width:1.0417;"/><line style="stroke:#2FA4E7;stroke-width:1.0417;" x1="1422.6725" x2="1447.6725" y1="71.875" y2="71.875"/></g><g><text fill="#343A40" font-family="Verdana" font-size="12.5" lengthAdjust="spacing" textLength="136.1877" x="1363.9537" y="1032.7291">Database Component</text><ellipse cx="1435.1725" cy="1057.5521" fill="url(#gd711itxbiz4k0)" rx="12.5" ry="12.5" style="stroke:#2FA4E7;stroke-width:1.0417;"/><line style="stroke:#2FA4E7;stroke-width:1.0417;" x1="1422.6725" x2="1447.6725" y1="1072.1354" y2="1072.1354"/></g><g><polygon fill="#2FA4E7" points="620.4102,136.3932,630.8268,140.5599,620.4102,144.7266,624.5768,140.5599" style="stroke:#2FA4E7;stroke-width:1.0417;"/><line style="stroke:#2FA4E7;stroke-width:3.125;" x1="228.4566" x2="626.6602" y1="140.5599" y2="140.5599"/><text fill="#343A40" font-family="Verdana" font-size="12.5" lengthAdjust="spacing" textLength="138.5925" x="240.9566" y="130.3202">login(userCredentials)</text></g><g><line style="stroke:#2FA4E7;stroke-width:3.125;" x1="632.9102" x2="676.6602" y1="180.1107" y2="180.1107"/><line style="stroke:#2FA4E7;stroke-width:3.125;" x1="676.6602" x2="676.6602" y1="180.1107" y2="193.6523"/><line style="stroke:#2FA4E7;stroke-width:3.125;" x1="633.9518" x2="676.6602" y1="193.6523" y2="193.6523"/><polygon fill="#2FA4E7" points="644.3685,189.4857,633.9518,193.6523,644.3685,197.819,640.2018,193.6523" style="stroke:#2FA4E7;stroke-width:1.0417;"/><text fill="#343A40" font-family="Verdana" font-size="12.5" lengthAdjust="spacing" textLength="109.8938" x="645.4102" y="169.871">Verify credentials</text></g><path d="M25,209.2773 L96.8201,209.2773 L96.8201,225.9115 L86.4034,236.3281 L20.8333,236.3281 L20.8333,213.444 A4.1667,4.1667 0 0 1 25,209.2773 " fill="#E9ECEF" style="stroke:#868E96;stroke-width:1.0417;"/><rect fill="#FFFFFF" fill-opacity="0.00000" height="182.0964" rx="4.1667" ry="4.1667" style="stroke:#59B6EC;stroke-width:1.0417;" width="858.0221" x="20.8333" y="209.2773"/><text fill="#033C73" font-family="Verdana" font-size="12.5" font-weight="bold" lengthAdjust="spacing" textLength="18.6951" x="41.6667" y="227.1301">alt</text><text fill="#343A40" font-family="Verdana" font-size="12.5" font-weight="bold" lengthAdjust="spacing" textLength="130.2002" x="117.6534" y="228.1718">[Valid credentials]</text><g><polygon fill="#2FA4E7" points="802.9154,272.7214,813.3321,276.888,802.9154,281.0547,807.0821,276.888" style="stroke:#2FA4E7;stroke-width:1.0417;"/><line style="stroke:#2FA4E7;stroke-width:3.125;" x1="632.9102" x2="809.1654" y1="276.888" y2="276.888"/><text fill="#343A40" font-family="Verdana" font-size="12.5" lengthAdjust="spacing" textLength="147.0886" x="645.4102" y="266.6484">Grant access to system</text></g><g><polygon fill="#2FA4E7" points="239.915,312.2721,229.4983,316.4388,239.915,320.6055,235.7483,316.4388" style="stroke:#2FA4E7;stroke-width:1.0417;"/><line style="stroke:#2FA4E7;stroke-width:3.125;" x1="233.665" x2="814.3738" y1="316.4388" y2="316.4388"/><text fill="#343A40" font-family="Verdana" font-size="12.5" lengthAdjust="spacing" textLength="151.5991" x="251.3733" y="306.1991">Display main dashboard</text></g><line style="stroke:#59B6EC;stroke-width:1.0417;stroke-dasharray:2.0,2.0;" x1="20.8333" x2="878.8554" y1="325.8138" y2="325.8138"/><text fill="#343A40" font-family="Verdana" font-size="12.5" font-weight="bold" lengthAdjust="spacing" textLength="142.2241" x="31.25" y="342.6249">[Invalid credentials]</text><g><polygon fill="#2FA4E7" points="239.915,378.8737,229.4983,383.0404,239.915,387.207,235.7483,383.0404" style="stroke:#2FA4E7;stroke-width:1.0417;"/><line style="stroke:#2FA4E7;stroke-width:3.125;" x1="233.665" x2="631.8685" y1="383.0404" y2="383.0404"/><text fill="#343A40" font-family="Verdana" font-size="12.5" lengthAdjust="spacing" textLength="369.0369" x="251.3733" y="372.8007">Display error message ("Incorrect username or password")</text></g><g><polygon fill="#2FA4E7" points="802.9154,425.7161,813.3321,429.8828,802.9154,434.0495,807.0821,429.8828" style="stroke:#2FA4E7;stroke-width:1.0417;"/><line style="stroke:#2FA4E7;stroke-width:3.125;" x1="228.4566" x2="809.1654" y1="429.8828" y2="429.8828"/><text fill="#343A40" font-family="Verdana" font-size="12.5" lengthAdjust="spacing" textLength="218.457" x="240.9566" y="419.6431">accessDataManipulationInterface()</text></g><g><line style="stroke:#2FA4E7;stroke-width:3.125;" x1="815.4154" x2="859.1654" y1="469.4336" y2="469.4336"/><line style="stroke:#2FA4E7;stroke-width:3.125;" x1="859.1654" x2="859.1654" y1="469.4336" y2="482.9753"/><line style="stroke:#2FA4E7;stroke-width:3.125;" x1="816.4571" x2="859.1654" y1="482.9753" y2="482.9753"/><polygon fill="#2FA4E7" points="826.8738,478.8086,816.4571,482.9753,826.8738,487.1419,822.7071,482.9753" style="stroke:#2FA4E7;stroke-width:1.0417;"/><text fill="#343A40" font-family="Verdana" font-size="12.5" lengthAdjust="spacing" textLength="182.6294" x="827.9154" y="459.1939">Load data manipulation tools</text></g><g><polygon fill="#2FA4E7" points="239.915,518.3594,229.4983,522.526,239.915,526.6927,235.7483,522.526" style="stroke:#2FA4E7;stroke-width:1.0417;"/><line style="stroke:#2FA4E7;stroke-width:3.125;" x1="233.665" x2="814.3738" y1="522.526" y2="522.526"/><text fill="#343A40" font-family="Verdana" font-size="12.5" lengthAdjust="spacing" textLength="270.1355" x="251.3733" y="512.2864">Display filtering, sorting, and analysis tools</text></g><g><polygon fill="#2FA4E7" points="1010.5448,557.9102,1020.9615,562.0768,1010.5448,566.2435,1014.7115,562.0768" style="stroke:#2FA4E7;stroke-width:1.0417;"/><line style="stroke:#2FA4E7;stroke-width:3.125;" x1="228.4566" x2="1016.7948" y1="562.0768" y2="562.0768"/><text fill="#343A40" font-family="Verdana" font-size="12.5" lengthAdjust="spacing" textLength="113.0249" x="240.9566" y="551.8372">filterData(criteria)</text></g><g><line style="stroke:#2FA4E7;stroke-width:3.125;" x1="1023.0448" x2="1066.7948" y1="601.6276" y2="601.6276"/><line style="stroke:#2FA4E7;stroke-width:3.125;" x1="1066.7948" x2="1066.7948" y1="601.6276" y2="615.1693"/><line style="stroke:#2FA4E7;stroke-width:3.125;" x1="1024.0865" x2="1066.7948" y1="615.1693" y2="615.1693"/><polygon fill="#2FA4E7" points="1034.5032,611.0026,1024.0865,615.1693,1034.5032,619.3359,1030.3365,615.1693" style="stroke:#2FA4E7;stroke-width:1.0417;"/><text fill="#343A40" font-family="Verdana" font-size="12.5" lengthAdjust="spacing" textLength="132.7271" x="1035.5448" y="591.3879">Process filter request</text></g><g><polygon fill="#2FA4E7" points="826.8738,650.5534,816.4571,654.7201,826.8738,658.8867,822.7071,654.7201" style="stroke:#2FA4E7;stroke-width:1.0417;"/><line style="stroke:#2FA4E7;stroke-width:3.125;" x1="820.6238" x2="1022.0032" y1="654.7201" y2="654.7201"/><text fill="#343A40" font-family="Verdana" font-size="12.5" lengthAdjust="spacing" textLength="126.8799" x="838.3321" y="644.4804">Display filtered data</text></g><g><polygon fill="#2FA4E7" points="239.915,690.1042,229.4983,694.2708,239.915,698.4375,235.7483,694.2708" style="stroke:#2FA4E7;stroke-width:1.0417;"/><line style="stroke:#2FA4E7;stroke-width:3.125;" x1="233.665" x2="814.3738" y1="694.2708" y2="694.2708"/><text fill="#343A40" font-family="Verdana" font-size="12.5" lengthAdjust="spacing" textLength="133.6365" x="251.3733" y="684.0312">Show filtered dataset</text></g><g><polygon fill="#2FA4E7" points="1168.2719,729.6549,1178.6886,733.8216,1168.2719,737.9883,1172.4386,733.8216" style="stroke:#2FA4E7;stroke-width:1.0417;"/><line style="stroke:#2FA4E7;stroke-width:3.125;" x1="228.4566" x2="1174.5219" y1="733.8216" y2="733.8216"/><text fill="#343A40" font-family="Verdana" font-size="12.5" lengthAdjust="spacing" textLength="184.9304" x="240.9566" y="723.5819">analyzePatterns(filteredData)</text></g><g><line style="stroke:#2FA4E7;stroke-width:3.125;" x1="1180.7719" x2="1224.5219" y1="773.3724" y2="773.3724"/><line style="stroke:#2FA4E7;stroke-width:3.125;" x1="1224.5219" x2="1224.5219" y1="773.3724" y2="786.9141"/><line style="stroke:#2FA4E7;stroke-width:3.125;" x1="1181.8136" x2="1224.5219" y1="786.9141" y2="786.9141"/><polygon fill="#2FA4E7" points="1192.2302,782.7474,1181.8136,786.9141,1192.2302,791.0807,1188.0636,786.9141" style="stroke:#2FA4E7;stroke-width:1.0417;"/><text fill="#343A40" font-family="Verdana" font-size="12.5" lengthAdjust="spacing" textLength="229.4006" x="1193.2719" y="763.1327">Process data for patterns and trends</text></g><g><polygon fill="#2FA4E7" points="826.8738,822.2982,816.4571,826.4648,826.8738,830.6315,822.7071,826.4648" style="stroke:#2FA4E7;stroke-width:1.0417;"/><line style="stroke:#2FA4E7;stroke-width:3.125;" x1="820.6238" x2="1179.7302" y1="826.4648" y2="826.4648"/><text fill="#343A40" font-family="Verdana" font-size="12.5" lengthAdjust="spacing" textLength="279.7058" x="838.3321" y="816.2252">Display analyzed results (graphs, heatmaps)</text></g><g><polygon fill="#2FA4E7" points="239.915,861.849,229.4983,866.0156,239.915,870.1823,235.7483,866.0156" style="stroke:#2FA4E7;stroke-width:1.0417;"/><line style="stroke:#2FA4E7;stroke-width:3.125;" x1="233.665" x2="814.3738" y1="866.0156" y2="866.0156"/><text fill="#343A40" font-family="Verdana" font-size="12.5" lengthAdjust="spacing" textLength="118.4814" x="251.3733" y="855.776">Show data insights</text></g><g><polygon fill="#2FA4E7" points="1422.6725,901.3997,1433.0892,905.5664,1422.6725,909.7331,1426.8392,905.5664" style="stroke:#2FA4E7;stroke-width:1.0417;"/><line style="stroke:#2FA4E7;stroke-width:3.125;" x1="228.4566" x2="1428.9225" y1="905.5664" y2="905.5664"/><text fill="#343A40" font-family="Verdana" font-size="12.5" lengthAdjust="spacing" textLength="208.4351" x="240.9566" y="895.3267">saveInsights(customizedInsights)</text></g><g><line style="stroke:#2FA4E7;stroke-width:3.125;" x1="1435.1725" x2="1478.9225" y1="945.1172" y2="945.1172"/><line style="stroke:#2FA4E7;stroke-width:3.125;" x1="1478.9225" x2="1478.9225" y1="945.1172" y2="958.6589"/><line style="stroke:#2FA4E7;stroke-width:3.125;" x1="1436.2142" x2="1478.9225" y1="958.6589" y2="958.6589"/><polygon fill="#2FA4E7" points="1446.6309,954.4922,1436.2142,958.6589,1446.6309,962.8255,1442.4642,958.6589" style="stroke:#2FA4E7;stroke-width:1.0417;"/><text fill="#343A40" font-family="Verdana" font-size="12.5" lengthAdjust="spacing" textLength="163.2324" x="1447.6725" y="934.8775">Store insights in database</text></g><g><polygon fill="#2FA4E7" points="239.915,994.043,229.4983,998.2096,239.915,1002.3763,235.7483,998.2096" style="stroke:#2FA4E7;stroke-width:1.0417;"/><line style="stroke:#2FA4E7;stroke-width:3.125;" x1="233.665" x2="1434.1309" y1="998.2096" y2="998.2096"/><text fill="#343A40" font-family="Verdana" font-size="12.5" lengthAdjust="spacing" textLength="222.8149" x="251.3733" y="987.97">Confirm insights saved successfully</text></g><!--SRC=[ZLLDYzim4BtxLqnpgGFRb7xiPG-5a6rBe8L0DdkVs4eia2LN8sT9Vtr7KknOYHCQ29YPUM- -tjZlN2Lg0OMmhHAeimmBPonCDYGiV81LkrMoW1UBcXfZ7NpNUwa5-px2wWL-eyOzuxM3UUigOwKxJW09F3pBsCu6c7YVVoxGIQDXOUh6Q3Q4KE_iBJraixm8soolWvxH8VoGoWahzVu2u9szxnexrwYE9EdKKIpbP8kc9CqMIOmayEOpT_OUFir2xv2sdCLnVakRXITGXZFbBNiNLfGUW8gcMHesWdlbhdP7ACwW39M3LrIoJAp0loksmIoPwoSlrm4MXI02Pu2Ev4GTaCD0Z_DTFC6pf4RX4MgK6agaQclGbfbGFAAbFlnd3IcNi9PbLtC9B2Z89qjT66j5uS0FHoDhbFqD4hqPMqwcl9pIp_lp3EQXSYy07ddOYjUbR5eLvRRKh84T5gBVGjf_xDpZXh0UbK-pop4ay5y6Ivu2Pws7MPqntFhz0UuwUJu0yN651zGb_q_QZ2JSvfVPGETTctq_urBdH361T-S5toRxSPhTYBx7ix8cg2FoWHL_Ma7k3bCwehHV4STrOpRhohobWIJ2PNsTnVlycsnwXOuZDPqlBBbXlzu04brWtd5xE5zQ6Zv6q3KVThmBAenKOLVEiX9fX6Ty1ATgIfuXjSeHv7kBJKKFK0bqDJOqlJUOK8FK9FUL2y9udC4Q3-7jrv8pjVJSoovWA93aLSLyX0VH1UP53-vCKISfw0RJchyOegyAmaiXHerpd1fQ6BsJjZu3VKKbK1lkSTSgTVm7]--></g></svg>