<svg xmlns="http://www.w3.org/2000/svg" xmlns:xlink="http://www.w3.org/1999/xlink" contentStyleType="text/css" data-diagram-type="SEQUENCE" height="1085.4167px" preserveAspectRatio="none" style="width:1561px;height:1085px;" version="1.1" viewBox="0 0 1561 1085" width="1561.4583px" zoomAndPan="magnify"><defs><linearGradient id="g18cj2n54su1p30" x1="50%" x2="50%" y1="0%" y2="100%"><stop offset="0%" stop-color="#59B6EC"/><stop offset="100%" stop-color="#2FA4E7"/></linearGradient></defs><g><rect fill="#FFFFFF" fill-opacity="0.00000" height="392.3177" rx="4.1667" ry="4.1667" style="stroke:#59B6EC;stroke-width:1.0417;" width="1528.1881" x="20.8333" y="487.207"/><rect fill="#FFFFFF" fill-opacity="0.00000" height="182.0964" rx="4.1667" ry="4.1667" style="stroke:#59B6EC;stroke-width:1.0417;" width="1507.3547" x="31.25" y="623.5352"/><rect fill="#FFFFFF" fill-opacity="0.00000" height="75.944" rx="4.1667" ry="4.1667" style="stroke:#59B6EC;stroke-width:1.0417;" width="837.1887" x="31.25" y="894.1081"/><g><title>User</title><rect fill="#FFFFFF" fill-opacity="0.00000" height="888.8346" width="8.3333" x="60.0789" y="98.9258"/><line style="stroke:#BABDBF;stroke-width:1.0417;stroke-dasharray:5.0,5.0;" x1="63.5417" x2="63.5417" y1="98.9258" y2="987.7604"/></g><g><title>UI Component</title><rect fill="#FFFFFF" fill-opacity="0.00000" height="888.8346" width="8.3333" x="296.1548" y="98.9258"/><line style="stroke:#BABDBF;stroke-width:1.0417;stroke-dasharray:5.0,5.0;" x1="299.3815" x2="299.3815" y1="98.9258" y2="987.7604"/></g><g><title>Validation Component</title><rect fill="#FFFFFF" fill-opacity="0.00000" height="888.8346" width="8.3333" x="437.5478" y="98.9258"/><line style="stroke:#BABDBF;stroke-width:1.0417;stroke-dasharray:5.0,5.0;" x1="440.8447" x2="440.8447" y1="98.9258" y2="987.7604"/></g><g><title>Database Component</title><rect fill="#FFFFFF" fill-opacity="0.00000" height="888.8346" width="8.3333" x="777.4282" y="98.9258"/><line style="stroke:#BABDBF;stroke-width:1.0417;stroke-dasharray:5.0,5.0;" x1="781.2093" x2="781.2093" y1="98.9258" y2="987.7604"/></g><g><title>Authorization Component</title><rect fill="#FFFFFF" fill-opacity="0.00000" height="888.8346" width="8.3333" x="1163.3291" y="98.9258"/><line style="stroke:#BABDBF;stroke-width:1.0417;stroke-dasharray:5.0,5.0;" x1="1166.5293" x2="1166.5293" y1="98.9258" y2="987.7604"/></g><g><title>Access Control Component</title><rect fill="#FFFFFF" fill-opacity="0.00000" height="888.8346" width="8.3333" x="1431.1941" y="98.9258"/><line style="stroke:#BABDBF;stroke-width:1.0417;stroke-dasharray:5.0,5.0;" x1="1435.2417" x2="1435.2417" y1="98.9258" y2="987.7604"/></g><g><text fill="#343A40" font-family="Verdana" font-size="12.5" lengthAdjust="spacing" textLength="28.4912" x="46.875" y="90.7694">User</text><ellipse cx="64.2456" cy="19.7917" fill="url(#g18cj2n54su1p30)" rx="8.3333" ry="8.3333" style="stroke:#2FA4E7;stroke-width:1.0417;"/><path d="M64.2456,28.125 L64.2456,56.25 M50.7039,36.4583 L77.7873,36.4583 M64.2456,56.25 L50.7039,71.875 M64.2456,56.25 L77.7873,71.875 " fill="#FFFFFF" fill-opacity="0.00000" style="stroke:#2FA4E7;stroke-width:1.0417;"/></g><g><text fill="#343A40" font-family="Verdana" font-size="12.5" lengthAdjust="spacing" textLength="28.4912" x="46.875" y="1003.5299">User</text><ellipse cx="64.2456" cy="1021.0612" fill="url(#g18cj2n54su1p30)" rx="8.3333" ry="8.3333" style="stroke:#2FA4E7;stroke-width:1.0417;"/><path d="M64.2456,1029.3945 L64.2456,1057.5195 M50.7039,1037.7279 L77.7873,1037.7279 M64.2456,1057.5195 L50.7039,1073.1445 M64.2456,1057.5195 L77.7873,1073.1445 " fill="#FFFFFF" fill-opacity="0.00000" style="stroke:#2FA4E7;stroke-width:1.0417;"/></g><g><text fill="#343A40" font-family="Verdana" font-size="12.5" lengthAdjust="spacing" textLength="89.3799" x="252.5065" y="90.7694">UI Component</text><ellipse cx="300.3215" cy="57.2917" fill="url(#g18cj2n54su1p30)" rx="12.5" ry="12.5" style="stroke:#2FA4E7;stroke-width:1.0417;"/><line style="stroke:#2FA4E7;stroke-width:1.0417;" x1="287.8215" x2="312.8215" y1="71.875" y2="71.875"/></g><g><text fill="#343A40" font-family="Verdana" font-size="12.5" lengthAdjust="spacing" textLength="89.3799" x="252.5065" y="1003.5299">UI Component</text><ellipse cx="300.3215" cy="1028.3529" fill="url(#g18cj2n54su1p30)" rx="12.5" ry="12.5" style="stroke:#2FA4E7;stroke-width:1.0417;"/><line style="stroke:#2FA4E7;stroke-width:1.0417;" x1="287.8215" x2="312.8215" y1="1042.9362" y2="1042.9362"/></g><g><text fill="#343A40" font-family="Verdana" font-size="12.5" lengthAdjust="spacing" textLength="139.2395" x="368.9697" y="90.7694">Validation Component</text><ellipse cx="441.7145" cy="57.2917" fill="url(#g18cj2n54su1p30)" rx="12.5" ry="12.5" style="stroke:#2FA4E7;stroke-width:1.0417;"/><line style="stroke:#2FA4E7;stroke-width:1.0417;" x1="429.2145" x2="454.2145" y1="71.875" y2="71.875"/></g><g><text fill="#343A40" font-family="Verdana" font-size="12.5" lengthAdjust="spacing" textLength="139.2395" x="368.9697" y="1003.5299">Validation Component</text><ellipse cx="441.7145" cy="1028.3529" fill="url(#g18cj2n54su1p30)" rx="12.5" ry="12.5" style="stroke:#2FA4E7;stroke-width:1.0417;"/><line style="stroke:#2FA4E7;stroke-width:1.0417;" x1="429.2145" x2="454.2145" y1="1042.9362" y2="1042.9362"/></g><g><text fill="#343A40" font-family="Verdana" font-size="12.5" lengthAdjust="spacing" textLength="136.1877" x="710.376" y="90.7694">Database Component</text><ellipse cx="781.5948" cy="57.2917" fill="url(#g18cj2n54su1p30)" rx="12.5" ry="12.5" style="stroke:#2FA4E7;stroke-width:1.0417;"/><line style="stroke:#2FA4E7;stroke-width:1.0417;" x1="769.0948" x2="794.0948" y1="71.875" y2="71.875"/></g><g><text fill="#343A40" font-family="Verdana" font-size="12.5" lengthAdjust="spacing" textLength="136.1877" x="710.376" y="1003.5299">Database Component</text><ellipse cx="781.5948" cy="1028.3529" fill="url(#g18cj2n54su1p30)" rx="12.5" ry="12.5" style="stroke:#2FA4E7;stroke-width:1.0417;"/><line style="stroke:#2FA4E7;stroke-width:1.0417;" x1="769.0948" x2="794.0948" y1="1042.9362" y2="1042.9362"/></g><g><text fill="#343A40" font-family="Verdana" font-size="12.5" lengthAdjust="spacing" textLength="160.2661" x="1084.2377" y="90.7694">Authorization Component</text><ellipse cx="1167.4957" cy="57.2917" fill="url(#g18cj2n54su1p30)" rx="12.5" ry="12.5" style="stroke:#2FA4E7;stroke-width:1.0417;"/><line style="stroke:#2FA4E7;stroke-width:1.0417;" x1="1154.9957" x2="1179.9957" y1="71.875" y2="71.875"/></g><g><text fill="#343A40" font-family="Verdana" font-size="12.5" lengthAdjust="spacing" textLength="160.2661" x="1084.2377" y="1003.5299">Authorization Component</text><ellipse cx="1167.4957" cy="1028.3529" fill="url(#g18cj2n54su1p30)" rx="12.5" ry="12.5" style="stroke:#2FA4E7;stroke-width:1.0417;"/><line style="stroke:#2FA4E7;stroke-width:1.0417;" x1="1154.9957" x2="1179.9957" y1="1042.9362" y2="1042.9362"/></g><g><text fill="#343A40" font-family="Verdana" font-size="12.5" lengthAdjust="spacing" textLength="168.988" x="1347.7417" y="90.7694">Access Control Component</text><ellipse cx="1435.3607" cy="57.2917" fill="url(#g18cj2n54su1p30)" rx="12.5" ry="12.5" style="stroke:#2FA4E7;stroke-width:1.0417;"/><line style="stroke:#2FA4E7;stroke-width:1.0417;" x1="1422.8607" x2="1447.8607" y1="71.875" y2="71.875"/></g><g><text fill="#343A40" font-family="Verdana" font-size="12.5" lengthAdjust="spacing" textLength="168.988" x="1347.7417" y="1003.5299">Access Control Component</text><ellipse cx="1435.3607" cy="1028.3529" fill="url(#g18cj2n54su1p30)" rx="12.5" ry="12.5" style="stroke:#2FA4E7;stroke-width:1.0417;"/><line style="stroke:#2FA4E7;stroke-width:1.0417;" x1="1422.8607" x2="1447.8607" y1="1042.9362" y2="1042.9362"/></g><g><polygon fill="#2FA4E7" points="287.8215,136.3932,298.2381,140.5599,287.8215,144.7266,291.9881,140.5599" style="stroke:#2FA4E7;stroke-width:1.0417;"/><line style="stroke:#2FA4E7;stroke-width:3.125;" x1="64.2456" x2="294.0715" y1="140.5599" y2="140.5599"/><text fill="#343A40" font-family="Verdana" font-size="12.5" lengthAdjust="spacing" textLength="144.4397" x="76.7456" y="130.3202">navigateToLoginPage()</text></g><g><line style="stroke:#2FA4E7;stroke-width:3.125;" x1="300.3215" x2="344.0715" y1="180.1107" y2="180.1107"/><line style="stroke:#2FA4E7;stroke-width:3.125;" x1="344.0715" x2="344.0715" y1="180.1107" y2="193.6523"/><line style="stroke:#2FA4E7;stroke-width:3.125;" x1="301.3631" x2="344.0715" y1="193.6523" y2="193.6523"/><polygon fill="#2FA4E7" points="311.7798,189.4857,301.3631,193.6523,311.7798,197.819,307.6131,193.6523" style="stroke:#2FA4E7;stroke-width:1.0417;"/><text fill="#343A40" font-family="Verdana" font-size="12.5" lengthAdjust="spacing" textLength="113.8367" x="312.8215" y="169.871">Display login form</text></g><g><polygon fill="#2FA4E7" points="75.7039,229.0365,65.2873,233.2031,75.7039,237.3698,71.5373,233.2031" style="stroke:#2FA4E7;stroke-width:1.0417;"/><line style="stroke:#2FA4E7;stroke-width:3.125;" x1="69.4539" x2="299.2798" y1="233.2031" y2="233.2031"/><text fill="#343A40" font-family="Verdana" font-size="12.5" lengthAdjust="spacing" textLength="200.6592" x="87.1623" y="222.9635">Show email and password fields</text></g><g><polygon fill="#2FA4E7" points="429.2145,268.5872,439.6311,272.7539,429.2145,276.9206,433.3811,272.7539" style="stroke:#2FA4E7;stroke-width:1.0417;"/><line style="stroke:#2FA4E7;stroke-width:3.125;" x1="64.2456" x2="435.4645" y1="272.7539" y2="272.7539"/><text fill="#343A40" font-family="Verdana" font-size="12.5" lengthAdjust="spacing" textLength="215.0146" x="76.7456" y="262.5142">inputCredentials(email, password)</text></g><g><line style="stroke:#2FA4E7;stroke-width:3.125;" x1="441.7145" x2="485.4645" y1="312.3047" y2="312.3047"/><line style="stroke:#2FA4E7;stroke-width:3.125;" x1="485.4645" x2="485.4645" y1="312.3047" y2="325.8464"/><line style="stroke:#2FA4E7;stroke-width:3.125;" x1="442.7561" x2="485.4645" y1="325.8464" y2="325.8464"/><polygon fill="#2FA4E7" points="453.1728,321.6797,442.7561,325.8464,453.1728,330.013,449.0061,325.8464" style="stroke:#2FA4E7;stroke-width:1.0417;"/><text fill="#343A40" font-family="Verdana" font-size="12.5" lengthAdjust="spacing" textLength="314.8804" x="454.2145" y="302.065">Validate email format and password requirements</text></g><g><polygon fill="#2FA4E7" points="769.0948,361.2305,779.5115,365.3971,769.0948,369.5638,773.2615,365.3971" style="stroke:#2FA4E7;stroke-width:1.0417;"/><line style="stroke:#2FA4E7;stroke-width:3.125;" x1="441.7145" x2="775.3448" y1="365.3971" y2="365.3971"/><text fill="#343A40" font-family="Verdana" font-size="12.5" lengthAdjust="spacing" textLength="256.1462" x="454.2145" y="355.1575">Check user existence and authentication</text></g><g><line style="stroke:#2FA4E7;stroke-width:3.125;" x1="781.5948" x2="825.3448" y1="404.9479" y2="404.9479"/><line style="stroke:#2FA4E7;stroke-width:3.125;" x1="825.3448" x2="825.3448" y1="404.9479" y2="418.4896"/><line style="stroke:#2FA4E7;stroke-width:3.125;" x1="782.6365" x2="825.3448" y1="418.4896" y2="418.4896"/><polygon fill="#2FA4E7" points="793.0532,414.3229,782.6365,418.4896,793.0532,422.6563,788.8865,418.4896" style="stroke:#2FA4E7;stroke-width:1.0417;"/><text fill="#343A40" font-family="Verdana" font-size="12.5" lengthAdjust="spacing" textLength="296.5637" x="794.0948" y="394.7083">Search for email and retrieve hashed password</text></g><g><line style="stroke:#2FA4E7;stroke-width:3.125;" x1="781.5948" x2="825.3448" y1="458.0404" y2="458.0404"/><line style="stroke:#2FA4E7;stroke-width:3.125;" x1="825.3448" x2="825.3448" y1="458.0404" y2="471.582"/><line style="stroke:#2FA4E7;stroke-width:3.125;" x1="782.6365" x2="825.3448" y1="471.582" y2="471.582"/><polygon fill="#2FA4E7" points="793.0532,467.4154,782.6365,471.582,793.0532,475.7487,788.8865,471.582" style="stroke:#2FA4E7;stroke-width:1.0417;"/><text fill="#343A40" font-family="Verdana" font-size="12.5" lengthAdjust="spacing" textLength="360.9009" x="794.0948" y="447.8007">Compare entered password with stored hashed password</text></g><path d="M25,487.207 L96.8201,487.207 L96.8201,503.8411 L86.4034,514.2578 L20.8333,514.2578 L20.8333,491.3737 A4.1667,4.1667 0 0 1 25,487.207 " fill="#E9ECEF" style="stroke:#868E96;stroke-width:1.0417;"/><rect fill="#FFFFFF" fill-opacity="0.00000" height="392.3177" rx="4.1667" ry="4.1667" style="stroke:#59B6EC;stroke-width:1.0417;" width="1528.1881" x="20.8333" y="487.207"/><text fill="#033C73" font-family="Verdana" font-size="12.5" font-weight="bold" lengthAdjust="spacing" textLength="18.6951" x="41.6667" y="505.0598">alt</text><text fill="#343A40" font-family="Verdana" font-size="12.5" font-weight="bold" lengthAdjust="spacing" textLength="140.0818" x="117.6534" y="506.1015">[Credentials match]</text><g><polygon fill="#2FA4E7" points="1154.9957,550.651,1165.4124,554.8177,1154.9957,558.9844,1159.1624,554.8177" style="stroke:#2FA4E7;stroke-width:1.0417;"/><line style="stroke:#2FA4E7;stroke-width:3.125;" x1="781.5948" x2="1161.2457" y1="554.8177" y2="554.8177"/><text fill="#343A40" font-family="Verdana" font-size="12.5" lengthAdjust="spacing" textLength="207.0679" x="794.0948" y="544.578">Verify user type and access level</text></g><g><line style="stroke:#2FA4E7;stroke-width:3.125;" x1="1167.4957" x2="1211.2457" y1="594.3685" y2="594.3685"/><line style="stroke:#2FA4E7;stroke-width:3.125;" x1="1211.2457" x2="1211.2457" y1="594.3685" y2="607.9102"/><line style="stroke:#2FA4E7;stroke-width:3.125;" x1="1168.5374" x2="1211.2457" y1="607.9102" y2="607.9102"/><polygon fill="#2FA4E7" points="1178.9541,603.7435,1168.5374,607.9102,1178.9541,612.0768,1174.7874,607.9102" style="stroke:#2FA4E7;stroke-width:1.0417;"/><text fill="#343A40" font-family="Verdana" font-size="12.5" lengthAdjust="spacing" textLength="242.865" x="1179.9957" y="584.1288">Check if user type matches stored role</text></g><path d="M35.4167,623.5352 L107.2367,623.5352 L107.2367,640.1693 L96.8201,650.5859 L31.25,650.5859 L31.25,627.7018 A4.1667,4.1667 0 0 1 35.4167,623.5352 " fill="#E9ECEF" style="stroke:#868E96;stroke-width:1.0417;"/><rect fill="#FFFFFF" fill-opacity="0.00000" height="182.0964" rx="4.1667" ry="4.1667" style="stroke:#59B6EC;stroke-width:1.0417;" width="1507.3547" x="31.25" y="623.5352"/><text fill="#033C73" font-family="Verdana" font-size="12.5" font-weight="bold" lengthAdjust="spacing" textLength="18.6951" x="52.0833" y="641.3879">alt</text><text fill="#343A40" font-family="Verdana" font-size="12.5" font-weight="bold" lengthAdjust="spacing" textLength="143.573" x="128.0701" y="642.4296">[User type matches]</text><g><polygon fill="#2FA4E7" points="1422.8607,686.9792,1433.2774,691.1458,1422.8607,695.3125,1427.0274,691.1458" style="stroke:#2FA4E7;stroke-width:1.0417;"/><line style="stroke:#2FA4E7;stroke-width:3.125;" x1="1167.4957" x2="1429.1107" y1="691.1458" y2="691.1458"/><text fill="#343A40" font-family="Verdana" font-size="12.5" lengthAdjust="spacing" textLength="81.4026" x="1179.9957" y="680.9062">Grant access</text></g><g><polygon fill="#2FA4E7" points="75.7039,726.5299,65.2873,730.6966,75.7039,734.8633,71.5373,730.6966" style="stroke:#2FA4E7;stroke-width:1.0417;"/><line style="stroke:#2FA4E7;stroke-width:3.125;" x1="69.4539" x2="1434.3191" y1="730.6966" y2="730.6966"/><text fill="#343A40" font-family="Verdana" font-size="12.5" lengthAdjust="spacing" textLength="228.3997" x="87.1623" y="720.4569">Redirect to dashboard based on role</text></g><line style="stroke:#59B6EC;stroke-width:1.0417;stroke-dasharray:2.0,2.0;" x1="31.25" x2="1538.6047" y1="740.0716" y2="740.0716"/><text fill="#343A40" font-family="Verdana" font-size="12.5" font-weight="bold" lengthAdjust="spacing" textLength="152.4048" x="41.6667" y="756.8827">[User type mismatch]</text><g><polygon fill="#2FA4E7" points="75.7039,793.1315,65.2873,797.2982,75.7039,801.4648,71.5373,797.2982" style="stroke:#2FA4E7;stroke-width:1.0417;"/><line style="stroke:#2FA4E7;stroke-width:3.125;" x1="69.4539" x2="1166.4541" y1="797.2982" y2="797.2982"/><text fill="#343A40" font-family="Verdana" font-size="12.5" lengthAdjust="spacing" textLength="190.4785" x="87.1623" y="787.0585">Error - Unauthorized user type</text></g><line style="stroke:#59B6EC;stroke-width:1.0417;stroke-dasharray:2.0,2.0;" x1="20.8333" x2="1549.0214" y1="813.9648" y2="813.9648"/><text fill="#343A40" font-family="Verdana" font-size="12.5" font-weight="bold" lengthAdjust="spacing" textLength="189.7827" x="31.25" y="830.776">[Credentials do not match]</text><g><polygon fill="#2FA4E7" points="75.7039,867.0247,65.2873,871.1914,75.7039,875.3581,71.5373,871.1914" style="stroke:#2FA4E7;stroke-width:1.0417;"/><line style="stroke:#2FA4E7;stroke-width:3.125;" x1="69.4539" x2="780.5532" y1="871.1914" y2="871.1914"/><text fill="#343A40" font-family="Verdana" font-size="12.5" lengthAdjust="spacing" textLength="203.7109" x="87.1623" y="860.9517">Error - Invalid email or password</text></g><path d="M35.4167,894.1081 L107.2367,894.1081 L107.2367,910.7422 L96.8201,921.1589 L31.25,921.1589 L31.25,898.2747 A4.1667,4.1667 0 0 1 35.4167,894.1081 " fill="#E9ECEF" style="stroke:#868E96;stroke-width:1.0417;"/><rect fill="#FFFFFF" fill-opacity="0.00000" height="75.944" rx="4.1667" ry="4.1667" style="stroke:#59B6EC;stroke-width:1.0417;" width="837.1887" x="31.25" y="894.1081"/><text fill="#033C73" font-family="Verdana" font-size="12.5" font-weight="bold" lengthAdjust="spacing" textLength="18.6951" x="52.0833" y="911.9609">alt</text><text fill="#343A40" font-family="Verdana" font-size="12.5" font-weight="bold" lengthAdjust="spacing" textLength="166.1499" x="128.0701" y="913.0025">[Multiple login failures]</text><g><polygon fill="#2FA4E7" points="75.7039,957.5521,65.2873,961.7188,75.7039,965.8854,71.5373,961.7188" style="stroke:#2FA4E7;stroke-width:1.0417;"/><line style="stroke:#2FA4E7;stroke-width:3.125;" x1="69.4539" x2="780.5532" y1="961.7188" y2="961.7188"/><text fill="#343A40" font-family="Verdana" font-size="12.5" lengthAdjust="spacing" textLength="309.1919" x="87.1623" y="951.4791">Prompt for password recovery or account lockout</text></g><!--SRC=[ZLJ1Rjim3BthAxYUMc3zWHu63Eam1DY0OfrtPoKc5gf8daGdoxv-bEBOhksaooM9nFSU-KZg0zUq8z0KMqVebKBD8KALA2f5dYqVuQPQmohick3bu0OmGRNk__T1lz1PWso3dmGF5tFG8pA-OA89v7my1tnkkGxH_bqIUdEt0DMQKXACvnZS55ikkxi1gx8HSFzfN34yWCUztIBJp_0jRAr_mYtTtgbnp0poQ5FZy0Wk0s0JucuMdwKUuBaE1w0TMWVe3JIOqY540njBpgGXemLR1Mrzq_8gaibLeqktXUbZJtEdbd0NwRfJwXBAQIE_pIlIxzP66IBFwHBvh9z2lQf9lqARgw4_DZ5vJOKPfOqvUrrub9g3Bp0-4qPTvoH7_aNYQ6bFK6EgQSZx_sdpRunYWMUA8mOuMAuXoRh8uPGT7SEe3I2swLg1V1PrbqStDu2YtHnFDl6nwHmwJRAJibpXl02_Hdootsv6r2L7IkUIP16eiETQgcbKkNb7Ut6dHFjhHFa-LJ7mB4SFY_63ZCoPPk00Hkn-2IXDo5OQaBUWJvUSl2UZV6qQpB-US2Vq9KOPeNkeF7QXej3RTDBmHXMTSOzD01_ulLPFHDP-dtUccrWvwaSeQvGv-juwjesZyziXWMtiEd1DuYdA8PTz66sh3dkAnwma3GYj85pGhw7D3wNv1m00]--></g></svg>