<svg xmlns="http://www.w3.org/2000/svg" xmlns:xlink="http://www.w3.org/1999/xlink" contentStyleType="text/css" data-diagram-type="SEQUENCE" height="1167.7083px" preserveAspectRatio="none" style="width:2088px;height:1167px;" version="1.1" viewBox="0 0 2088 1167" width="2088.5417px" zoomAndPan="magnify"><defs><linearGradient id="gth5jz23tpr320" x1="50%" x2="50%" y1="0%" y2="100%"><stop offset="0%" stop-color="#59B6EC"/><stop offset="100%" stop-color="#2FA4E7"/></linearGradient></defs><g><rect fill="#FFFFFF" fill-opacity="0.00000" height="182.0964" rx="4.1667" ry="4.1667" style="stroke:#59B6EC;stroke-width:1.0417;" width="894.9788" x="20.8333" y="209.2773"/><g><title>User - Public Transportation Engineer / PT Management Authority</title><rect fill="#FFFFFF" fill-opacity="0.00000" height="971.1263" width="8.3333" x="240.092" y="98.9258"/><line style="stroke:#BABDBF;stroke-width:1.0417;stroke-dasharray:5.0,5.0;" x1="243.75" x2="243.75" y1="98.9258" y2="1070.0521"/></g><g><title>Authentication Component</title><rect fill="#FFFFFF" fill-opacity="0.00000" height="971.1263" width="8.3333" x="644.5455" y="98.9258"/><line style="stroke:#BABDBF;stroke-width:1.0417;stroke-dasharray:5.0,5.0;" x1="647.8933" x2="647.8933" y1="98.9258" y2="1070.0521"/></g><g><title>UI Component</title><rect fill="#FFFFFF" fill-opacity="0.00000" height="971.1263" width="8.3333" x="848.2056" y="98.9258"/><line style="stroke:#BABDBF;stroke-width:1.0417;stroke-dasharray:5.0,5.0;" x1="851.4323" x2="851.4323" y1="98.9258" y2="1070.0521"/></g><g><title>Visualization Engine</title><rect fill="#FFFFFF" fill-opacity="0.00000" height="971.1263" width="8.3333" x="1039.4592" y="98.9258"/><line style="stroke:#BABDBF;stroke-width:1.0417;stroke-dasharray:5.0,5.0;" x1="1043.104" x2="1043.104" y1="98.9258" y2="1070.0521"/></g><g><title>UI &amp; Rendering Component</title><rect fill="#FFFFFF" fill-opacity="0.00000" height="971.1263" width="8.3333" x="1326.8738" y="98.9258"/><line style="stroke:#BABDBF;stroke-width:1.0417;stroke-dasharray:5.0,5.0;" x1="1330.7241" x2="1330.7241" y1="98.9258" y2="1070.0521"/></g><g><title>Export Component</title><rect fill="#FFFFFF" fill-opacity="0.00000" height="971.1263" width="8.3333" x="1703.7231" y="98.9258"/><line style="stroke:#BABDBF;stroke-width:1.0417;stroke-dasharray:5.0,5.0;" x1="1707.4921" x2="1707.4921" y1="98.9258" y2="1070.0521"/></g><g><text fill="#343A40" font-family="Verdana" font-size="12.5" lengthAdjust="spacing" textLength="409.3506" x="36.4583" y="90.7694">User - Public Transportation Engineer / PT Management Authority</text><ellipse cx="244.2586" cy="19.7917" fill="url(#gth5jz23tpr320)" rx="8.3333" ry="8.3333" style="stroke:#2FA4E7;stroke-width:1.0417;"/><path d="M244.2586,28.125 L244.2586,56.25 M230.717,36.4583 L257.8003,36.4583 M244.2586,56.25 L230.717,71.875 M244.2586,56.25 L257.8003,71.875 " fill="#FFFFFF" fill-opacity="0.00000" style="stroke:#2FA4E7;stroke-width:1.0417;"/></g><g><text fill="#343A40" font-family="Verdana" font-size="12.5" lengthAdjust="spacing" textLength="409.3506" x="36.4583" y="1085.8215">User - Public Transportation Engineer / PT Management Authority</text><ellipse cx="244.2586" cy="1103.3529" fill="url(#gth5jz23tpr320)" rx="8.3333" ry="8.3333" style="stroke:#2FA4E7;stroke-width:1.0417;"/><path d="M244.2586,1111.6862 L244.2586,1139.8112 M230.717,1120.0195 L257.8003,1120.0195 M244.2586,1139.8112 L230.717,1155.4362 M244.2586,1139.8112 L257.8003,1155.4362 " fill="#FFFFFF" fill-opacity="0.00000" style="stroke:#2FA4E7;stroke-width:1.0417;"/></g><g><text fill="#343A40" font-family="Verdana" font-size="12.5" lengthAdjust="spacing" textLength="168.3044" x="561.4349" y="90.7694">Authentication Component</text><ellipse cx="648.7122" cy="57.2917" fill="url(#gth5jz23tpr320)" rx="12.5" ry="12.5" style="stroke:#2FA4E7;stroke-width:1.0417;"/><line style="stroke:#2FA4E7;stroke-width:1.0417;" x1="636.2122" x2="661.2122" y1="71.875" y2="71.875"/></g><g><text fill="#343A40" font-family="Verdana" font-size="12.5" lengthAdjust="spacing" textLength="168.3044" x="561.4349" y="1085.8215">Authentication Component</text><ellipse cx="648.7122" cy="1110.6445" fill="url(#gth5jz23tpr320)" rx="12.5" ry="12.5" style="stroke:#2FA4E7;stroke-width:1.0417;"/><line style="stroke:#2FA4E7;stroke-width:1.0417;" x1="636.2122" x2="661.2122" y1="1125.2279" y2="1125.2279"/></g><g><text fill="#343A40" font-family="Verdana" font-size="12.5" lengthAdjust="spacing" textLength="89.3799" x="804.5573" y="90.7694">UI Component</text><ellipse cx="852.3722" cy="57.2917" fill="url(#gth5jz23tpr320)" rx="12.5" ry="12.5" style="stroke:#2FA4E7;stroke-width:1.0417;"/><line style="stroke:#2FA4E7;stroke-width:1.0417;" x1="839.8722" x2="864.8722" y1="71.875" y2="71.875"/></g><g><text fill="#343A40" font-family="Verdana" font-size="12.5" lengthAdjust="spacing" textLength="89.3799" x="804.5573" y="1085.8215">UI Component</text><ellipse cx="852.3722" cy="1110.6445" fill="url(#gth5jz23tpr320)" rx="12.5" ry="12.5" style="stroke:#2FA4E7;stroke-width:1.0417;"/><line style="stroke:#2FA4E7;stroke-width:1.0417;" x1="839.8722" x2="864.8722" y1="1125.2279" y2="1125.2279"/></g><g><text fill="#343A40" font-family="Verdana" font-size="12.5" lengthAdjust="spacing" textLength="126.0437" x="977.479" y="90.7694">Visualization Engine</text><ellipse cx="1043.6259" cy="57.2917" fill="url(#gth5jz23tpr320)" rx="12.5" ry="12.5" style="stroke:#2FA4E7;stroke-width:1.0417;"/><line style="stroke:#2FA4E7;stroke-width:1.0417;" x1="1031.1259" x2="1056.1259" y1="71.875" y2="71.875"/></g><g><text fill="#343A40" font-family="Verdana" font-size="12.5" lengthAdjust="spacing" textLength="126.0437" x="977.479" y="1085.8215">Visualization Engine</text><ellipse cx="1043.6259" cy="1110.6445" fill="url(#gth5jz23tpr320)" rx="12.5" ry="12.5" style="stroke:#2FA4E7;stroke-width:1.0417;"/><line style="stroke:#2FA4E7;stroke-width:1.0417;" x1="1031.1259" x2="1056.1259" y1="1125.2279" y2="1125.2279"/></g><g><text fill="#343A40" font-family="Verdana" font-size="12.5" lengthAdjust="spacing" textLength="171.4661" x="1242.1824" y="90.7694">UI &amp; Rendering Component</text><ellipse cx="1331.0404" cy="57.2917" fill="url(#gth5jz23tpr320)" rx="12.5" ry="12.5" style="stroke:#2FA4E7;stroke-width:1.0417;"/><line style="stroke:#2FA4E7;stroke-width:1.0417;" x1="1318.5404" x2="1343.5404" y1="71.875" y2="71.875"/></g><g><text fill="#343A40" font-family="Verdana" font-size="12.5" lengthAdjust="spacing" textLength="171.4661" x="1242.1824" y="1085.8215">UI &amp; Rendering Component</text><ellipse cx="1331.0404" cy="1110.6445" fill="url(#gth5jz23tpr320)" rx="12.5" ry="12.5" style="stroke:#2FA4E7;stroke-width:1.0417;"/><line style="stroke:#2FA4E7;stroke-width:1.0417;" x1="1318.5404" x2="1343.5404" y1="1125.2279" y2="1125.2279"/></g><g><text fill="#343A40" font-family="Verdana" font-size="12.5" lengthAdjust="spacing" textLength="117.4622" x="1646.0337" y="90.7694">Export Component</text><ellipse cx="1707.8898" cy="57.2917" fill="url(#gth5jz23tpr320)" rx="12.5" ry="12.5" style="stroke:#2FA4E7;stroke-width:1.0417;"/><line style="stroke:#2FA4E7;stroke-width:1.0417;" x1="1695.3898" x2="1720.3898" y1="71.875" y2="71.875"/></g><g><text fill="#343A40" font-family="Verdana" font-size="12.5" lengthAdjust="spacing" textLength="117.4622" x="1646.0337" y="1085.8215">Export Component</text><ellipse cx="1707.8898" cy="1110.6445" fill="url(#gth5jz23tpr320)" rx="12.5" ry="12.5" style="stroke:#2FA4E7;stroke-width:1.0417;"/><line style="stroke:#2FA4E7;stroke-width:1.0417;" x1="1695.3898" x2="1720.3898" y1="1125.2279" y2="1125.2279"/></g><g><polygon fill="#2FA4E7" points="636.2122,136.3932,646.6288,140.5599,636.2122,144.7266,640.3788,140.5599" style="stroke:#2FA4E7;stroke-width:1.0417;"/><line style="stroke:#2FA4E7;stroke-width:3.125;" x1="244.2586" x2="642.4622" y1="140.5599" y2="140.5599"/><text fill="#343A40" font-family="Verdana" font-size="12.5" lengthAdjust="spacing" textLength="138.5925" x="256.7586" y="130.3202">login(userCredentials)</text></g><g><line style="stroke:#2FA4E7;stroke-width:3.125;" x1="648.7122" x2="692.4622" y1="180.1107" y2="180.1107"/><line style="stroke:#2FA4E7;stroke-width:3.125;" x1="692.4622" x2="692.4622" y1="180.1107" y2="193.6523"/><line style="stroke:#2FA4E7;stroke-width:3.125;" x1="649.7538" x2="692.4622" y1="193.6523" y2="193.6523"/><polygon fill="#2FA4E7" points="660.1705,189.4857,649.7538,193.6523,660.1705,197.819,656.0038,193.6523" style="stroke:#2FA4E7;stroke-width:1.0417;"/><text fill="#343A40" font-family="Verdana" font-size="12.5" lengthAdjust="spacing" textLength="109.8938" x="661.2122" y="169.871">Verify credentials</text></g><path d="M25,209.2773 L96.8201,209.2773 L96.8201,225.9115 L86.4034,236.3281 L20.8333,236.3281 L20.8333,213.444 A4.1667,4.1667 0 0 1 25,209.2773 " fill="#E9ECEF" style="stroke:#868E96;stroke-width:1.0417;"/><rect fill="#FFFFFF" fill-opacity="0.00000" height="182.0964" rx="4.1667" ry="4.1667" style="stroke:#59B6EC;stroke-width:1.0417;" width="894.9788" x="20.8333" y="209.2773"/><text fill="#033C73" font-family="Verdana" font-size="12.5" font-weight="bold" lengthAdjust="spacing" textLength="18.6951" x="41.6667" y="227.1301">alt</text><text fill="#343A40" font-family="Verdana" font-size="12.5" font-weight="bold" lengthAdjust="spacing" textLength="130.2002" x="117.6534" y="228.1718">[Valid credentials]</text><g><polygon fill="#2FA4E7" points="839.8722,272.7214,850.2889,276.888,839.8722,281.0547,844.0389,276.888" style="stroke:#2FA4E7;stroke-width:1.0417;"/><line style="stroke:#2FA4E7;stroke-width:3.125;" x1="648.7122" x2="846.1222" y1="276.888" y2="276.888"/><text fill="#343A40" font-family="Verdana" font-size="12.5" lengthAdjust="spacing" textLength="168.2434" x="661.2122" y="266.6484">Grant access to dashboard</text></g><g><polygon fill="#2FA4E7" points="255.717,312.2721,245.3003,316.4388,255.717,320.6055,251.5503,316.4388" style="stroke:#2FA4E7;stroke-width:1.0417;"/><line style="stroke:#2FA4E7;stroke-width:3.125;" x1="249.467" x2="851.3306" y1="316.4388" y2="316.4388"/><text fill="#343A40" font-family="Verdana" font-size="12.5" lengthAdjust="spacing" textLength="116.394" x="267.1753" y="306.1991">Display dashboard</text></g><line style="stroke:#59B6EC;stroke-width:1.0417;stroke-dasharray:2.0,2.0;" x1="20.8333" x2="915.8122" y1="325.8138" y2="325.8138"/><text fill="#343A40" font-family="Verdana" font-size="12.5" font-weight="bold" lengthAdjust="spacing" textLength="142.2241" x="31.25" y="342.6249">[Invalid credentials]</text><g><polygon fill="#2FA4E7" points="255.717,378.8737,245.3003,383.0404,255.717,387.207,251.5503,383.0404" style="stroke:#2FA4E7;stroke-width:1.0417;"/><line style="stroke:#2FA4E7;stroke-width:3.125;" x1="249.467" x2="647.6705" y1="383.0404" y2="383.0404"/><text fill="#343A40" font-family="Verdana" font-size="12.5" lengthAdjust="spacing" textLength="369.0369" x="267.1753" y="372.8007">Display error message ("Incorrect username or password")</text></g><g><polygon fill="#2FA4E7" points="839.8722,425.7161,850.2889,429.8828,839.8722,434.0495,844.0389,429.8828" style="stroke:#2FA4E7;stroke-width:1.0417;"/><line style="stroke:#2FA4E7;stroke-width:3.125;" x1="244.2586" x2="846.1222" y1="429.8828" y2="429.8828"/><text fill="#343A40" font-family="Verdana" font-size="12.5" lengthAdjust="spacing" textLength="171.5759" x="256.7586" y="419.6431">selectVisualizationModule()</text></g><g><line style="stroke:#2FA4E7;stroke-width:3.125;" x1="852.3722" x2="896.1222" y1="469.4336" y2="469.4336"/><line style="stroke:#2FA4E7;stroke-width:3.125;" x1="896.1222" x2="896.1222" y1="469.4336" y2="482.9753"/><line style="stroke:#2FA4E7;stroke-width:3.125;" x1="853.4139" x2="896.1222" y1="482.9753" y2="482.9753"/><polygon fill="#2FA4E7" points="863.8306,478.8086,853.4139,482.9753,863.8306,487.1419,859.6639,482.9753" style="stroke:#2FA4E7;stroke-width:1.0417;"/><text fill="#343A40" font-family="Verdana" font-size="12.5" lengthAdjust="spacing" textLength="166.2537" x="864.8722" y="459.1939">Open visualization module</text></g><g><polygon fill="#2FA4E7" points="255.717,518.3594,245.3003,522.526,255.717,526.6927,251.5503,522.526" style="stroke:#2FA4E7;stroke-width:1.0417;"/><line style="stroke:#2FA4E7;stroke-width:3.125;" x1="249.467" x2="851.3306" y1="522.526" y2="522.526"/><text fill="#343A40" font-family="Verdana" font-size="12.5" lengthAdjust="spacing" textLength="291.6382" x="267.1753" y="512.2864">Show available visualization tools and settings</text></g><g><polygon fill="#2FA4E7" points="1031.1259,557.9102,1041.5426,562.0768,1031.1259,566.2435,1035.2926,562.0768" style="stroke:#2FA4E7;stroke-width:1.0417;"/><line style="stroke:#2FA4E7;stroke-width:3.125;" x1="244.2586" x2="1037.3759" y1="562.0768" y2="562.0768"/><text fill="#343A40" font-family="Verdana" font-size="12.5" lengthAdjust="spacing" textLength="244.2505" x="256.7586" y="551.8372">displayVisualizationLayers(dataLayers)</text></g><g><line style="stroke:#2FA4E7;stroke-width:3.125;" x1="1043.6259" x2="1087.3759" y1="601.6276" y2="601.6276"/><line style="stroke:#2FA4E7;stroke-width:3.125;" x1="1087.3759" x2="1087.3759" y1="601.6276" y2="615.1693"/><line style="stroke:#2FA4E7;stroke-width:3.125;" x1="1044.6676" x2="1087.3759" y1="615.1693" y2="615.1693"/><polygon fill="#2FA4E7" points="1055.0842,611.0026,1044.6676,615.1693,1055.0842,619.3359,1050.9176,615.1693" style="stroke:#2FA4E7;stroke-width:1.0417;"/><text fill="#343A40" font-family="Verdana" font-size="12.5" lengthAdjust="spacing" textLength="217.926" x="1056.1259" y="591.3879">Display default visualization layers</text></g><g><polygon fill="#2FA4E7" points="255.717,650.5534,245.3003,654.7201,255.717,658.8867,251.5503,654.7201" style="stroke:#2FA4E7;stroke-width:1.0417;"/><line style="stroke:#2FA4E7;stroke-width:3.125;" x1="249.467" x2="1042.5842" y1="654.7201" y2="654.7201"/><text fill="#343A40" font-family="Verdana" font-size="12.5" lengthAdjust="spacing" textLength="378.0579" x="267.1753" y="644.4804">Show layers (traffic flow, route efficiency, congestion zones)</text></g><g><polygon fill="#2FA4E7" points="1031.1259,690.1042,1041.5426,694.2708,1031.1259,698.4375,1035.2926,694.2708" style="stroke:#2FA4E7;stroke-width:1.0417;"/><line style="stroke:#2FA4E7;stroke-width:3.125;" x1="244.2586" x2="1037.3759" y1="694.2708" y2="694.2708"/><text fill="#343A40" font-family="Verdana" font-size="12.5" lengthAdjust="spacing" textLength="174.0295" x="256.7586" y="684.0312">toggleLayers(layerControls)</text></g><g><line style="stroke:#2FA4E7;stroke-width:3.125;" x1="1043.6259" x2="1087.3759" y1="733.8216" y2="733.8216"/><line style="stroke:#2FA4E7;stroke-width:3.125;" x1="1087.3759" x2="1087.3759" y1="733.8216" y2="747.3633"/><line style="stroke:#2FA4E7;stroke-width:3.125;" x1="1044.6676" x2="1087.3759" y1="747.3633" y2="747.3633"/><polygon fill="#2FA4E7" points="1055.0842,743.1966,1044.6676,747.3633,1055.0842,751.5299,1050.9176,747.3633" style="stroke:#2FA4E7;stroke-width:1.0417;"/><text fill="#343A40" font-family="Verdana" font-size="12.5" lengthAdjust="spacing" textLength="262.4146" x="1056.1259" y="723.5819">Update displayed layers based on toggles</text></g><g><polygon fill="#2FA4E7" points="255.717,782.7474,245.3003,786.9141,255.717,791.0807,251.5503,786.9141" style="stroke:#2FA4E7;stroke-width:1.0417;"/><line style="stroke:#2FA4E7;stroke-width:3.125;" x1="249.467" x2="1042.5842" y1="786.9141" y2="786.9141"/><text fill="#343A40" font-family="Verdana" font-size="12.5" lengthAdjust="spacing" textLength="287.0178" x="267.1753" y="776.6744">Adjust layers (show/hide based on user input)</text></g><g><polygon fill="#2FA4E7" points="1318.5404,822.2982,1328.9571,826.4648,1318.5404,830.6315,1322.7071,826.4648" style="stroke:#2FA4E7;stroke-width:1.0417;"/><line style="stroke:#2FA4E7;stroke-width:3.125;" x1="244.2586" x2="1324.7904" y1="826.4648" y2="826.4648"/><text fill="#343A40" font-family="Verdana" font-size="12.5" lengthAdjust="spacing" textLength="218.1213" x="256.7586" y="816.2252">customizeParameters(parameters)</text></g><g><line style="stroke:#2FA4E7;stroke-width:3.125;" x1="1331.0404" x2="1374.7904" y1="866.0156" y2="866.0156"/><line style="stroke:#2FA4E7;stroke-width:3.125;" x1="1374.7904" x2="1374.7904" y1="866.0156" y2="879.5573"/><line style="stroke:#2FA4E7;stroke-width:3.125;" x1="1332.0821" x2="1374.7904" y1="879.5573" y2="879.5573"/><polygon fill="#2FA4E7" points="1342.4988,875.3906,1332.0821,879.5573,1342.4988,883.724,1338.3321,879.5573" style="stroke:#2FA4E7;stroke-width:1.0417;"/><text fill="#343A40" font-family="Verdana" font-size="12.5" lengthAdjust="spacing" textLength="351.8494" x="1343.5404" y="855.776">Update visualization settings (zoom, color scheme, etc.)</text></g><g><polygon fill="#2FA4E7" points="255.717,914.9414,245.3003,919.1081,255.717,923.2747,251.5503,919.1081" style="stroke:#2FA4E7;stroke-width:1.0417;"/><line style="stroke:#2FA4E7;stroke-width:3.125;" x1="249.467" x2="1329.9988" y1="919.1081" y2="919.1081"/><text fill="#343A40" font-family="Verdana" font-size="12.5" lengthAdjust="spacing" textLength="366.7114" x="267.1753" y="908.8684">Display updated visualization with customized parameters</text></g><g><polygon fill="#2FA4E7" points="1695.3898,954.4922,1705.8065,958.6589,1695.3898,962.8255,1699.5565,958.6589" style="stroke:#2FA4E7;stroke-width:1.0417;"/><line style="stroke:#2FA4E7;stroke-width:3.125;" x1="244.2586" x2="1701.6398" y1="958.6589" y2="958.6589"/><text fill="#343A40" font-family="Verdana" font-size="12.5" lengthAdjust="spacing" textLength="228.1494" x="256.7586" y="948.4192">exportVisualizations(visualizedData)</text></g><g><line style="stroke:#2FA4E7;stroke-width:3.125;" x1="1707.8898" x2="1751.6398" y1="998.2096" y2="998.2096"/><line style="stroke:#2FA4E7;stroke-width:3.125;" x1="1751.6398" x2="1751.6398" y1="998.2096" y2="1011.7513"/><line style="stroke:#2FA4E7;stroke-width:3.125;" x1="1708.9315" x2="1751.6398" y1="1011.7513" y2="1011.7513"/><polygon fill="#2FA4E7" points="1719.3481,1007.5846,1708.9315,1011.7513,1719.3481,1015.918,1715.1815,1011.7513" style="stroke:#2FA4E7;stroke-width:1.0417;"/><text fill="#343A40" font-family="Verdana" font-size="12.5" lengthAdjust="spacing" textLength="356.4697" x="1720.3898" y="987.97">Generate downloadable visualization file (PNG, PDF, GIS)</text></g><g><polygon fill="#2FA4E7" points="255.717,1047.1354,245.3003,1051.3021,255.717,1055.4688,251.5503,1051.3021" style="stroke:#2FA4E7;stroke-width:1.0417;"/><line style="stroke:#2FA4E7;stroke-width:3.125;" x1="249.467" x2="1706.8481" y1="1051.3021" y2="1051.3021"/><text fill="#343A40" font-family="Verdana" font-size="12.5" lengthAdjust="spacing" textLength="339.1907" x="267.1753" y="1041.0624">Provide export file and share option with stakeholders</text></g><!--SRC=[bLJ1Rjim3BtxAxWS1WV8rdiF0ugs2mAiMx0slJCM4sjJH4EIaoLVFyfkuiXnsoqdX-HxuYEVz26Kj24eoDM6q6OP5e4TZ1QU77o2URqqke0dXzPNx086pHRkxLfRae8hc3_10rfS2uaDS5E7afqE-n6WXyYHPHAN08nYBduNBSSjRogs4cXAO_8KEK4MirxPOdPPzAnzZKOVpbjhYfD46pzd_WW_oIfosgulJZbbBe-x_nFdq4EqmQuuQyVt9TK5rs1OsiXhoTuwKf4JZHzdQTa0xbcwMUsXw40PcW3FeaybKP3V1TlPs8HhAiiCW4L1taDWKEZB9QDJ3VYyDaAZa6kuqxuok3-h9UC9PdRxZnsaDEISc6mZ3OXp81_DRC7EKH4WZiQYE5Bo5Ng_OwT6Ovc-weQQol5a19Wi-u6Lk3aVPtqn2V17HHQsYNis3J0Rdi5ZoJl0BMg3IqCzP60s7j0gwIS4SOxl-Xqmej2fTXP9yXlkoVbSOS3sSvmDWL_bFAs9LbYBFz8UJKFv6kEvohOIyk1mjPBxlpAycu3ZEX1GZ6YonNu21Tir-ORy8EEITjyH7NYzDlGYipdbbcrmRFvNwQAI8T5nYAIEBI_Hovzc8V6azzJUg5-r3oUzNiHVbLfHnnCD2TfMTHYVE_3oXH2sGhXuemyqHoSU3b5aTVgCTXo0lKxteZ5Tuj5Ua1-ODt45HgwAB-8pFW4AnUStpablOTtmgzu1EntAJec2Ja2dl_VU2ISraMJOFZyIaxeJHu-pFcoGQKgMNBDRtbd3g0PksqfBA9z_dqvWVlTr0jFPuo3xY-2vusrSQjjaYswkQebENfggq-q3_gQIZGpF_mK0]--></g></svg>