<svg xmlns="http://www.w3.org/2000/svg" xmlns:xlink="http://www.w3.org/1999/xlink" contentStyleType="text/css" data-diagram-type="SEQUENCE" height="1207.2917px" preserveAspectRatio="none" style="width:2328px;height:1207px;" version="1.1" viewBox="0 0 2328 1207" width="2328.125px" zoomAndPan="magnify"><defs><linearGradient id="g1rokk3zulss6y0" x1="50%" x2="50%" y1="0%" y2="100%"><stop offset="0%" stop-color="#59B6EC"/><stop offset="100%" stop-color="#2FA4E7"/></linearGradient></defs><g><rect fill="#FFFFFF" fill-opacity="0.00000" height="182.0964" rx="4.1667" ry="4.1667" style="stroke:#59B6EC;stroke-width:1.0417;" width="858.0221" x="20.8333" y="209.2773"/><g><title>User - Public Transport Engineer / PT Management Authority</title><rect fill="#FFFFFF" fill-opacity="0.00000" height="1010.6771" width="8.3333" x="224.29" y="98.9258"/><line style="stroke:#BABDBF;stroke-width:1.0417;stroke-dasharray:5.0,5.0;" x1="228.125" x2="228.125" y1="98.9258" y2="1109.6029"/></g><g><title>Authentication Component</title><rect fill="#FFFFFF" fill-opacity="0.00000" height="1010.6771" width="8.3333" x="628.7435" y="98.9258"/><line style="stroke:#BABDBF;stroke-width:1.0417;stroke-dasharray:5.0,5.0;" x1="632.0913" x2="632.0913" y1="98.9258" y2="1109.6029"/></g><g><title>UI Component</title><rect fill="#FFFFFF" fill-opacity="0.00000" height="1010.6771" width="8.3333" x="811.2488" y="98.9258"/><line style="stroke:#BABDBF;stroke-width:1.0417;stroke-dasharray:5.0,5.0;" x1="814.4755" x2="814.4755" y1="98.9258" y2="1109.6029"/></g><g><title>Data Processing Component</title><rect fill="#FFFFFF" fill-opacity="0.00000" height="1010.6771" width="8.3333" x="1037.3759" y="98.9258"/><line style="stroke:#BABDBF;stroke-width:1.0417;stroke-dasharray:5.0,5.0;" x1="1041.2811" x2="1041.2811" y1="98.9258" y2="1109.6029"/></g><g><title>Visualization Engine</title><rect fill="#FFFFFF" fill-opacity="0.00000" height="1010.6771" width="8.3333" x="1256.4006" y="98.9258"/><line style="stroke:#BABDBF;stroke-width:1.0417;stroke-dasharray:5.0,5.0;" x1="1260.0454" x2="1260.0454" y1="98.9258" y2="1109.6029"/></g><g><title>AI/Optimization Component</title><rect fill="#FFFFFF" fill-opacity="0.00000" height="1010.6771" width="8.3333" x="1513.8896" y="98.9258"/><line style="stroke:#BABDBF;stroke-width:1.0417;stroke-dasharray:5.0,5.0;" x1="1518.0369" x2="1518.0369" y1="98.9258" y2="1109.6029"/></g><g><title>Optimization Algorithm</title><rect fill="#FFFFFF" fill-opacity="0.00000" height="1010.6771" width="8.3333" x="1845.5424" y="98.9258"/><line style="stroke:#BABDBF;stroke-width:1.0417;stroke-dasharray:5.0,5.0;" x1="1849.0072" x2="1849.0072" y1="98.9258" y2="1109.6029"/></g><g><title>Database Component</title><rect fill="#FFFFFF" fill-opacity="0.00000" height="1010.6771" width="8.3333" x="2156.9926" y="98.9258"/><line style="stroke:#BABDBF;stroke-width:1.0417;stroke-dasharray:5.0,5.0;" x1="2160.7737" x2="2160.7737" y1="98.9258" y2="1109.6029"/></g><g><text fill="#343A40" font-family="Verdana" font-size="12.5" lengthAdjust="spacing" textLength="377.7466" x="36.4583" y="90.7694">User - Public Transport Engineer / PT Management Authority</text><ellipse cx="228.4566" cy="19.7917" fill="url(#g1rokk3zulss6y0)" rx="8.3333" ry="8.3333" style="stroke:#2FA4E7;stroke-width:1.0417;"/><path d="M228.4566,28.125 L228.4566,56.25 M214.915,36.4583 L241.9983,36.4583 M228.4566,56.25 L214.915,71.875 M228.4566,56.25 L241.9983,71.875 " fill="#FFFFFF" fill-opacity="0.00000" style="stroke:#2FA4E7;stroke-width:1.0417;"/></g><g><text fill="#343A40" font-family="Verdana" font-size="12.5" lengthAdjust="spacing" textLength="377.7466" x="36.4583" y="1125.3723">User - Public Transport Engineer / PT Management Authority</text><ellipse cx="228.4566" cy="1142.9036" fill="url(#g1rokk3zulss6y0)" rx="8.3333" ry="8.3333" style="stroke:#2FA4E7;stroke-width:1.0417;"/><path d="M228.4566,1151.237 L228.4566,1179.362 M214.915,1159.5703 L241.9983,1159.5703 M228.4566,1179.362 L214.915,1194.987 M228.4566,1179.362 L241.9983,1194.987 " fill="#FFFFFF" fill-opacity="0.00000" style="stroke:#2FA4E7;stroke-width:1.0417;"/></g><g><text fill="#343A40" font-family="Verdana" font-size="12.5" lengthAdjust="spacing" textLength="168.3044" x="545.6329" y="90.7694">Authentication Component</text><ellipse cx="632.9102" cy="57.2917" fill="url(#g1rokk3zulss6y0)" rx="12.5" ry="12.5" style="stroke:#2FA4E7;stroke-width:1.0417;"/><line style="stroke:#2FA4E7;stroke-width:1.0417;" x1="620.4102" x2="645.4102" y1="71.875" y2="71.875"/></g><g><text fill="#343A40" font-family="Verdana" font-size="12.5" lengthAdjust="spacing" textLength="168.3044" x="545.6329" y="1125.3723">Authentication Component</text><ellipse cx="632.9102" cy="1150.1953" fill="url(#g1rokk3zulss6y0)" rx="12.5" ry="12.5" style="stroke:#2FA4E7;stroke-width:1.0417;"/><line style="stroke:#2FA4E7;stroke-width:1.0417;" x1="620.4102" x2="645.4102" y1="1164.7786" y2="1164.7786"/></g><g><text fill="#343A40" font-family="Verdana" font-size="12.5" lengthAdjust="spacing" textLength="89.3799" x="767.6005" y="90.7694">UI Component</text><ellipse cx="815.4154" cy="57.2917" fill="url(#g1rokk3zulss6y0)" rx="12.5" ry="12.5" style="stroke:#2FA4E7;stroke-width:1.0417;"/><line style="stroke:#2FA4E7;stroke-width:1.0417;" x1="802.9154" x2="827.9154" y1="71.875" y2="71.875"/></g><g><text fill="#343A40" font-family="Verdana" font-size="12.5" lengthAdjust="spacing" textLength="89.3799" x="767.6005" y="1125.3723">UI Component</text><ellipse cx="815.4154" cy="1150.1953" fill="url(#g1rokk3zulss6y0)" rx="12.5" ry="12.5" style="stroke:#2FA4E7;stroke-width:1.0417;"/><line style="stroke:#2FA4E7;stroke-width:1.0417;" x1="802.9154" x2="827.9154" y1="1164.7786" y2="1164.7786"/></g><g><text fill="#343A40" font-family="Verdana" font-size="12.5" lengthAdjust="spacing" textLength="177.6062" x="949.6145" y="90.7694">Data Processing Component</text><ellipse cx="1041.5426" cy="57.2917" fill="url(#g1rokk3zulss6y0)" rx="12.5" ry="12.5" style="stroke:#2FA4E7;stroke-width:1.0417;"/><line style="stroke:#2FA4E7;stroke-width:1.0417;" x1="1029.0426" x2="1054.0426" y1="71.875" y2="71.875"/></g><g><text fill="#343A40" font-family="Verdana" font-size="12.5" lengthAdjust="spacing" textLength="177.6062" x="949.6145" y="1125.3723">Data Processing Component</text><ellipse cx="1041.5426" cy="1150.1953" fill="url(#g1rokk3zulss6y0)" rx="12.5" ry="12.5" style="stroke:#2FA4E7;stroke-width:1.0417;"/><line style="stroke:#2FA4E7;stroke-width:1.0417;" x1="1029.0426" x2="1054.0426" y1="1164.7786" y2="1164.7786"/></g><g><text fill="#343A40" font-family="Verdana" font-size="12.5" lengthAdjust="spacing" textLength="126.0437" x="1194.4204" y="90.7694">Visualization Engine</text><ellipse cx="1260.5672" cy="57.2917" fill="url(#g1rokk3zulss6y0)" rx="12.5" ry="12.5" style="stroke:#2FA4E7;stroke-width:1.0417;"/><line style="stroke:#2FA4E7;stroke-width:1.0417;" x1="1248.0672" x2="1273.0672" y1="71.875" y2="71.875"/></g><g><text fill="#343A40" font-family="Verdana" font-size="12.5" lengthAdjust="spacing" textLength="126.0437" x="1194.4204" y="1125.3723">Visualization Engine</text><ellipse cx="1260.5672" cy="1150.1953" fill="url(#g1rokk3zulss6y0)" rx="12.5" ry="12.5" style="stroke:#2FA4E7;stroke-width:1.0417;"/><line style="stroke:#2FA4E7;stroke-width:1.0417;" x1="1248.0672" x2="1273.0672" y1="1164.7786" y2="1164.7786"/></g><g><text fill="#343A40" font-family="Verdana" font-size="12.5" lengthAdjust="spacing" textLength="172.9553" x="1428.4536" y="90.7694">AI/Optimization Component</text><ellipse cx="1518.0562" cy="57.2917" fill="url(#g1rokk3zulss6y0)" rx="12.5" ry="12.5" style="stroke:#2FA4E7;stroke-width:1.0417;"/><line style="stroke:#2FA4E7;stroke-width:1.0417;" x1="1505.5562" x2="1530.5562" y1="71.875" y2="71.875"/></g><g><text fill="#343A40" font-family="Verdana" font-size="12.5" lengthAdjust="spacing" textLength="172.9553" x="1428.4536" y="1125.3723">AI/Optimization Component</text><ellipse cx="1518.0562" cy="1150.1953" fill="url(#g1rokk3zulss6y0)" rx="12.5" ry="12.5" style="stroke:#2FA4E7;stroke-width:1.0417;"/><line style="stroke:#2FA4E7;stroke-width:1.0417;" x1="1505.5562" x2="1530.5562" y1="1164.7786" y2="1164.7786"/></g><g><text fill="#343A40" font-family="Verdana" font-size="12.5" lengthAdjust="spacing" textLength="145.1538" x="1774.0072" y="90.7694">Optimization Algorithm</text><ellipse cx="1849.7091" cy="57.2917" fill="url(#g1rokk3zulss6y0)" rx="12.5" ry="12.5" style="stroke:#2FA4E7;stroke-width:1.0417;"/><line style="stroke:#2FA4E7;stroke-width:1.0417;" x1="1837.2091" x2="1862.2091" y1="71.875" y2="71.875"/></g><g><text fill="#343A40" font-family="Verdana" font-size="12.5" lengthAdjust="spacing" textLength="145.1538" x="1774.0072" y="1125.3723">Optimization Algorithm</text><ellipse cx="1849.7091" cy="1150.1953" fill="url(#g1rokk3zulss6y0)" rx="12.5" ry="12.5" style="stroke:#2FA4E7;stroke-width:1.0417;"/><line style="stroke:#2FA4E7;stroke-width:1.0417;" x1="1837.2091" x2="1862.2091" y1="1164.7786" y2="1164.7786"/></g><g><text fill="#343A40" font-family="Verdana" font-size="12.5" lengthAdjust="spacing" textLength="136.1877" x="2089.9404" y="90.7694">Database Component</text><ellipse cx="2161.1593" cy="57.2917" fill="url(#g1rokk3zulss6y0)" rx="12.5" ry="12.5" style="stroke:#2FA4E7;stroke-width:1.0417;"/><line style="stroke:#2FA4E7;stroke-width:1.0417;" x1="2148.6593" x2="2173.6593" y1="71.875" y2="71.875"/></g><g><text fill="#343A40" font-family="Verdana" font-size="12.5" lengthAdjust="spacing" textLength="136.1877" x="2089.9404" y="1125.3723">Database Component</text><ellipse cx="2161.1593" cy="1150.1953" fill="url(#g1rokk3zulss6y0)" rx="12.5" ry="12.5" style="stroke:#2FA4E7;stroke-width:1.0417;"/><line style="stroke:#2FA4E7;stroke-width:1.0417;" x1="2148.6593" x2="2173.6593" y1="1164.7786" y2="1164.7786"/></g><g><polygon fill="#2FA4E7" points="620.4102,136.3932,630.8268,140.5599,620.4102,144.7266,624.5768,140.5599" style="stroke:#2FA4E7;stroke-width:1.0417;"/><line style="stroke:#2FA4E7;stroke-width:3.125;" x1="228.4566" x2="626.6602" y1="140.5599" y2="140.5599"/><text fill="#343A40" font-family="Verdana" font-size="12.5" lengthAdjust="spacing" textLength="138.5925" x="240.9566" y="130.3202">login(userCredentials)</text></g><g><line style="stroke:#2FA4E7;stroke-width:3.125;" x1="632.9102" x2="676.6602" y1="180.1107" y2="180.1107"/><line style="stroke:#2FA4E7;stroke-width:3.125;" x1="676.6602" x2="676.6602" y1="180.1107" y2="193.6523"/><line style="stroke:#2FA4E7;stroke-width:3.125;" x1="633.9518" x2="676.6602" y1="193.6523" y2="193.6523"/><polygon fill="#2FA4E7" points="644.3685,189.4857,633.9518,193.6523,644.3685,197.819,640.2018,193.6523" style="stroke:#2FA4E7;stroke-width:1.0417;"/><text fill="#343A40" font-family="Verdana" font-size="12.5" lengthAdjust="spacing" textLength="109.8938" x="645.4102" y="169.871">Verify credentials</text></g><path d="M25,209.2773 L96.8201,209.2773 L96.8201,225.9115 L86.4034,236.3281 L20.8333,236.3281 L20.8333,213.444 A4.1667,4.1667 0 0 1 25,209.2773 " fill="#E9ECEF" style="stroke:#868E96;stroke-width:1.0417;"/><rect fill="#FFFFFF" fill-opacity="0.00000" height="182.0964" rx="4.1667" ry="4.1667" style="stroke:#59B6EC;stroke-width:1.0417;" width="858.0221" x="20.8333" y="209.2773"/><text fill="#033C73" font-family="Verdana" font-size="12.5" font-weight="bold" lengthAdjust="spacing" textLength="18.6951" x="41.6667" y="227.1301">alt</text><text fill="#343A40" font-family="Verdana" font-size="12.5" font-weight="bold" lengthAdjust="spacing" textLength="130.2002" x="117.6534" y="228.1718">[Valid credentials]</text><g><polygon fill="#2FA4E7" points="802.9154,272.7214,813.3321,276.888,802.9154,281.0547,807.0821,276.888" style="stroke:#2FA4E7;stroke-width:1.0417;"/><line style="stroke:#2FA4E7;stroke-width:3.125;" x1="632.9102" x2="809.1654" y1="276.888" y2="276.888"/><text fill="#343A40" font-family="Verdana" font-size="12.5" lengthAdjust="spacing" textLength="147.0886" x="645.4102" y="266.6484">Grant access to system</text></g><g><polygon fill="#2FA4E7" points="239.915,312.2721,229.4983,316.4388,239.915,320.6055,235.7483,316.4388" style="stroke:#2FA4E7;stroke-width:1.0417;"/><line style="stroke:#2FA4E7;stroke-width:3.125;" x1="233.665" x2="814.3738" y1="316.4388" y2="316.4388"/><text fill="#343A40" font-family="Verdana" font-size="12.5" lengthAdjust="spacing" textLength="151.5991" x="251.3733" y="306.1991">Display main dashboard</text></g><line style="stroke:#59B6EC;stroke-width:1.0417;stroke-dasharray:2.0,2.0;" x1="20.8333" x2="878.8554" y1="325.8138" y2="325.8138"/><text fill="#343A40" font-family="Verdana" font-size="12.5" font-weight="bold" lengthAdjust="spacing" textLength="142.2241" x="31.25" y="342.6249">[Invalid credentials]</text><g><polygon fill="#2FA4E7" points="239.915,378.8737,229.4983,383.0404,239.915,387.207,235.7483,383.0404" style="stroke:#2FA4E7;stroke-width:1.0417;"/><line style="stroke:#2FA4E7;stroke-width:3.125;" x1="233.665" x2="631.8685" y1="383.0404" y2="383.0404"/><text fill="#343A40" font-family="Verdana" font-size="12.5" lengthAdjust="spacing" textLength="369.0369" x="251.3733" y="372.8007">Display error message ("Incorrect username or password")</text></g><g><polygon fill="#2FA4E7" points="1029.0426,425.7161,1039.4592,429.8828,1029.0426,434.0495,1033.2092,429.8828" style="stroke:#2FA4E7;stroke-width:1.0417;"/><line style="stroke:#2FA4E7;stroke-width:3.125;" x1="228.4566" x2="1035.2926" y1="429.8828" y2="429.8828"/><text fill="#343A40" font-family="Verdana" font-size="12.5" lengthAdjust="spacing" textLength="174.1455" x="240.9566" y="419.6431">uploadRouteData(routeFile)</text></g><g><line style="stroke:#2FA4E7;stroke-width:3.125;" x1="1041.5426" x2="1085.2926" y1="469.4336" y2="469.4336"/><line style="stroke:#2FA4E7;stroke-width:3.125;" x1="1085.2926" x2="1085.2926" y1="469.4336" y2="482.9753"/><line style="stroke:#2FA4E7;stroke-width:3.125;" x1="1042.5842" x2="1085.2926" y1="482.9753" y2="482.9753"/><polygon fill="#2FA4E7" points="1053.0009,478.8086,1042.5842,482.9753,1053.0009,487.1419,1048.8342,482.9753" style="stroke:#2FA4E7;stroke-width:1.0417;"/><text fill="#343A40" font-family="Verdana" font-size="12.5" lengthAdjust="spacing" textLength="194.0247" x="1054.0426" y="459.1939">Verify file format and structure</text></g><g><polygon fill="#2FA4E7" points="826.8738,518.3594,816.4571,522.526,826.8738,526.6927,822.7071,522.526" style="stroke:#2FA4E7;stroke-width:1.0417;"/><line style="stroke:#2FA4E7;stroke-width:3.125;" x1="820.6238" x2="1040.5009" y1="522.526" y2="522.526"/><text fill="#343A40" font-family="Verdana" font-size="12.5" lengthAdjust="spacing" textLength="190.7104" x="838.3321" y="512.2864">Display current routes on map</text></g><g><polygon fill="#2FA4E7" points="239.915,557.9102,229.4983,562.0768,239.915,566.2435,235.7483,562.0768" style="stroke:#2FA4E7;stroke-width:1.0417;"/><line style="stroke:#2FA4E7;stroke-width:3.125;" x1="233.665" x2="814.3738" y1="562.0768" y2="562.0768"/><text fill="#343A40" font-family="Verdana" font-size="12.5" lengthAdjust="spacing" textLength="139.6851" x="251.3733" y="551.8372">Show uploaded routes</text></g><g><polygon fill="#2FA4E7" points="1248.0672,597.4609,1258.4839,601.6276,1248.0672,605.7943,1252.2339,601.6276" style="stroke:#2FA4E7;stroke-width:1.0417;"/><line style="stroke:#2FA4E7;stroke-width:3.125;" x1="228.4566" x2="1254.3172" y1="601.6276" y2="601.6276"/><text fill="#343A40" font-family="Verdana" font-size="12.5" lengthAdjust="spacing" textLength="331.8542" x="240.9566" y="591.3879">overlayRoutesWithPatterns(routeData, mobilityData)</text></g><g><line style="stroke:#2FA4E7;stroke-width:3.125;" x1="1260.5672" x2="1304.3172" y1="641.1784" y2="641.1784"/><line style="stroke:#2FA4E7;stroke-width:3.125;" x1="1304.3172" x2="1304.3172" y1="641.1784" y2="654.7201"/><line style="stroke:#2FA4E7;stroke-width:3.125;" x1="1261.6089" x2="1304.3172" y1="654.7201" y2="654.7201"/><polygon fill="#2FA4E7" points="1272.0256,650.5534,1261.6089,654.7201,1272.0256,658.8867,1267.8589,654.7201" style="stroke:#2FA4E7;stroke-width:1.0417;"/><text fill="#343A40" font-family="Verdana" font-size="12.5" lengthAdjust="spacing" textLength="232.489" x="1273.0672" y="630.9387">Merge route paths with mobility data</text></g><g><polygon fill="#2FA4E7" points="239.915,690.1042,229.4983,694.2708,239.915,698.4375,235.7483,694.2708" style="stroke:#2FA4E7;stroke-width:1.0417;"/><line style="stroke:#2FA4E7;stroke-width:3.125;" x1="233.665" x2="1259.5256" y1="694.2708" y2="694.2708"/><text fill="#343A40" font-family="Verdana" font-size="12.5" lengthAdjust="spacing" textLength="358.8684" x="251.3733" y="684.0312">Display overlay with current routes and mobility patterns</text></g><g><polygon fill="#2FA4E7" points="1505.5562,729.6549,1515.9729,733.8216,1505.5562,737.9883,1509.7229,733.8216" style="stroke:#2FA4E7;stroke-width:1.0417;"/><line style="stroke:#2FA4E7;stroke-width:3.125;" x1="228.4566" x2="1511.8062" y1="733.8216" y2="733.8216"/><text fill="#343A40" font-family="Verdana" font-size="12.5" lengthAdjust="spacing" textLength="227.9724" x="240.9566" y="723.5819">identifyInefficiencies(currentRoutes)</text></g><g><line style="stroke:#2FA4E7;stroke-width:3.125;" x1="1518.0562" x2="1561.8062" y1="773.3724" y2="773.3724"/><line style="stroke:#2FA4E7;stroke-width:3.125;" x1="1561.8062" x2="1561.8062" y1="773.3724" y2="786.9141"/><line style="stroke:#2FA4E7;stroke-width:3.125;" x1="1519.0979" x2="1561.8062" y1="786.9141" y2="786.9141"/><polygon fill="#2FA4E7" points="1529.5146,782.7474,1519.0979,786.9141,1529.5146,791.0807,1525.3479,786.9141" style="stroke:#2FA4E7;stroke-width:1.0417;"/><text fill="#343A40" font-family="Verdana" font-size="12.5" lengthAdjust="spacing" textLength="306.6528" x="1530.5562" y="763.1327">Detect inefficiencies (bottlenecks, redundancies)</text></g><g><polygon fill="#2FA4E7" points="239.915,822.2982,229.4983,826.4648,239.915,830.6315,235.7483,826.4648" style="stroke:#2FA4E7;stroke-width:1.0417;"/><line style="stroke:#2FA4E7;stroke-width:3.125;" x1="233.665" x2="1517.0146" y1="826.4648" y2="826.4648"/><text fill="#343A40" font-family="Verdana" font-size="12.5" lengthAdjust="spacing" textLength="201.4282" x="251.3733" y="816.2252">Highlight inefficiencies in routes</text></g><g><polygon fill="#2FA4E7" points="1837.2091,861.849,1847.6257,866.0156,1837.2091,870.1823,1841.3757,866.0156" style="stroke:#2FA4E7;stroke-width:1.0417;"/><line style="stroke:#2FA4E7;stroke-width:3.125;" x1="228.4566" x2="1843.4591" y1="866.0156" y2="866.0156"/><text fill="#343A40" font-family="Verdana" font-size="12.5" lengthAdjust="spacing" textLength="251.3062" x="240.9566" y="855.776">suggestOptimizedRoutes(routeAnalysis)</text></g><g><line style="stroke:#2FA4E7;stroke-width:3.125;" x1="1849.7091" x2="1893.4591" y1="905.5664" y2="905.5664"/><line style="stroke:#2FA4E7;stroke-width:3.125;" x1="1893.4591" x2="1893.4591" y1="905.5664" y2="919.1081"/><line style="stroke:#2FA4E7;stroke-width:3.125;" x1="1850.7507" x2="1893.4591" y1="919.1081" y2="919.1081"/><polygon fill="#2FA4E7" points="1861.1674,914.9414,1850.7507,919.1081,1861.1674,923.2747,1857.0007,919.1081" style="stroke:#2FA4E7;stroke-width:1.0417;"/><text fill="#343A40" font-family="Verdana" font-size="12.5" lengthAdjust="spacing" textLength="286.4502" x="1862.2091" y="895.3267">Analyze passenger demand, traffic, efficiency</text></g><g><polygon fill="#2FA4E7" points="239.915,954.4922,229.4983,958.6589,239.915,962.8255,235.7483,958.6589" style="stroke:#2FA4E7;stroke-width:1.0417;"/><line style="stroke:#2FA4E7;stroke-width:3.125;" x1="233.665" x2="1848.6674" y1="958.6589" y2="958.6589"/><text fill="#343A40" font-family="Verdana" font-size="12.5" lengthAdjust="spacing" textLength="228.7964" x="251.3733" y="948.4192">Provide optimized route suggestions</text></g><g><polygon fill="#2FA4E7" points="2148.6593,994.043,2159.0759,998.2096,2148.6593,1002.3763,2152.8259,998.2096" style="stroke:#2FA4E7;stroke-width:1.0417;"/><line style="stroke:#2FA4E7;stroke-width:3.125;" x1="228.4566" x2="2154.9093" y1="998.2096" y2="998.2096"/><text fill="#343A40" font-family="Verdana" font-size="12.5" lengthAdjust="spacing" textLength="241.6931" x="240.9566" y="987.97">saveOptimizedRoutes(updatedRoutes)</text></g><g><line style="stroke:#2FA4E7;stroke-width:3.125;" x1="2161.1593" x2="2204.9093" y1="1037.7604" y2="1037.7604"/><line style="stroke:#2FA4E7;stroke-width:3.125;" x1="2204.9093" x2="2204.9093" y1="1037.7604" y2="1051.3021"/><line style="stroke:#2FA4E7;stroke-width:3.125;" x1="2162.2009" x2="2204.9093" y1="1051.3021" y2="1051.3021"/><polygon fill="#2FA4E7" points="2172.6176,1047.1354,2162.2009,1051.3021,2172.6176,1055.4688,2168.4509,1051.3021" style="stroke:#2FA4E7;stroke-width:1.0417;"/><text fill="#343A40" font-family="Verdana" font-size="12.5" lengthAdjust="spacing" textLength="142.865" x="2173.6593" y="1027.5208">Store optimized routes</text></g><g><polygon fill="#2FA4E7" points="239.915,1086.6862,229.4983,1090.8529,239.915,1095.0195,235.7483,1090.8529" style="stroke:#2FA4E7;stroke-width:1.0417;"/><line style="stroke:#2FA4E7;stroke-width:3.125;" x1="233.665" x2="2160.1176" y1="1090.8529" y2="1090.8529"/><text fill="#343A40" font-family="Verdana" font-size="12.5" lengthAdjust="spacing" textLength="213.9771" x="251.3733" y="1080.6132">Confirm routes saved successfully</text></g><!--SRC=[ZLRBRjim4BphAxQ-r0PS1tqUSYWG96tgGn2ZJj8pBQraeXGfyE50-VekILaoRTce0G4obpFSdPsb_SvkiKR8KJk1J6OPowtIC7asgE43hDn6y1oUD9EcKTh23rbnYHIxWjKJF339Ai9B2pVERfNcjfq0C-3XMKRhj00J7_FlERDSIRXLTQCaBOIjFjYlz93dvT6sv-NffZjc6Qoqoj4OBgiZX8yEmLFq2pUE2VuMaug51M0IYEj3ASkhnyRoUWyxgcLv63mzCe7UYCeBjgq3z33KHv9ADypWI8b-UJWfUmyV5q5-I5NFOaU_fth3DGX51KuTHMyr5Xx0X9bbwROHt0jgNhQG3w2C2Gilf5oHh09zJjWEsabSz-Gl2optlGAhmBJ6OXsGXnizpbTn3NVSD8ArK3CkeM1ckr5C5naAacWfT_-PGyg5MfFpQqg1F0tJoLBcIclCBNXn9ACneNZ3Z7bLkfZCg3c5r_iJwTq8nOfWGKSGegVX-AsSnT2YNlipbgGaN6084BzfgltRJovmbfq3NUJhkbCI0vHArupabGKOgrrkdSPBh6blzlBaNMKXCmDau9ersNXxrblrsfM4HOVmKdrUmECEDT5vhNv7fbToEZoe3HVUwebU8vD8x2fIHFWVGg-OjTGX4rNp37EeEqB_RPQD4PtbVq1D1WXSr6wxxLBSCvBVACKpZ4UUwbAD14SA-dxqd4rNWbVfomAMmRdb81Ev6ikIvnmbFMQOvl4RXrBW7KKAd7P9HF5epC_WBrBVeVLZmHDcc6wKjG8bvd_D76Zud2nO25qyfbFi5w-sWfuJMXhmmK1V5t1F9sYY8MKwJh9Or6ZjgWgDFs4GQFHUfVDCtDjJH46YWsua4wtXbFSu-W9jWBvXk2PGLfH3WJLrUWvMCr_M7FhgslFqdIWqe3lg8wY-qEXASr0egV9j0MksyuhGZN-iYabkd-JNmil0TdYiWMl8uVjlyVv9OMUurlJFuIHNCuxl2hnLikIwte-4puOkAHT-24edHFiF]--></g></svg>