<svg xmlns="http://www.w3.org/2000/svg" xmlns:xlink="http://www.w3.org/1999/xlink" contentStyleType="text/css" data-diagram-type="SEQUENCE" height="1141.6667px" preserveAspectRatio="none" style="width:1678px;height:1141px;" version="1.1" viewBox="0 0 1678 1141" width="1678.125px" zoomAndPan="magnify"><defs><linearGradient id="gvn8gelqbiir00" x1="50%" x2="50%" y1="0%" y2="100%"><stop offset="0%" stop-color="#59B6EC"/><stop offset="100%" stop-color="#2FA4E7"/></linearGradient></defs><g><rect fill="#FFFFFF" fill-opacity="0.00000" height="248.7305" rx="4.1667" ry="4.1667" style="stroke:#59B6EC;stroke-width:1.0417;" width="666.4958" x="20.8333" y="248.8281"/><g><title>Engineer</title><rect fill="#FFFFFF" fill-opacity="0.00000" height="945.1172" width="8.3333" x="63.2517" y="98.9258"/><line style="stroke:#BABDBF;stroke-width:1.0417;stroke-dasharray:5.0,5.0;" x1="66.6667" x2="66.6667" y1="98.9258" y2="1044.043"/></g><g><title>Authentication Component</title><rect fill="#FFFFFF" fill-opacity="0.00000" height="945.1172" width="8.3333" x="278.5899" y="98.9258"/><line style="stroke:#BABDBF;stroke-width:1.0417;stroke-dasharray:5.0,5.0;" x1="281.9377" x2="281.9377" y1="98.9258" y2="1044.043"/></g><g><title>Interface &amp; Data Display</title><rect fill="#FFFFFF" fill-opacity="0.00000" height="945.1172" width="8.3333" x="466.6016" y="98.9258"/><line style="stroke:#BABDBF;stroke-width:1.0417;stroke-dasharray:5.0,5.0;" x1="470.0338" x2="470.0338" y1="98.9258" y2="1044.043"/></g><g><title>Map and Analysis Component</title><rect fill="#FFFFFF" fill-opacity="0.00000" height="945.1172" width="8.3333" x="677.9541" y="98.9258"/><line style="stroke:#BABDBF;stroke-width:1.0417;stroke-dasharray:5.0,5.0;" x1="681.8848" x2="681.8848" y1="98.9258" y2="1044.043"/></g><g><title>Route Suggestion Component</title><rect fill="#FFFFFF" fill-opacity="0.00000" height="945.1172" width="8.3333" x="964.6729" y="98.9258"/><line style="stroke:#BABDBF;stroke-width:1.0417;stroke-dasharray:5.0,5.0;" x1="967.9291" x2="967.9291" y1="98.9258" y2="1044.043"/></g><g><title>Route Modification Component</title><rect fill="#FFFFFF" fill-opacity="0.00000" height="945.1172" width="8.3333" x="1228.3447" y="98.9258"/><line style="stroke:#BABDBF;stroke-width:1.0417;stroke-dasharray:5.0,5.0;" x1="1231.5674" x2="1231.5674" y1="98.9258" y2="1044.043"/></g><g><title>Database &amp; Save Component</title><rect fill="#FFFFFF" fill-opacity="0.00000" height="945.1172" width="8.3333" x="1496.9788" y="98.9258"/><line style="stroke:#BABDBF;stroke-width:1.0417;stroke-dasharray:5.0,5.0;" x1="1500.53" x2="1500.53" y1="98.9258" y2="1044.043"/></g><g><text fill="#343A40" font-family="Verdana" font-size="12.5" lengthAdjust="spacing" textLength="55.6702" x="36.4583" y="90.7694">Engineer</text><ellipse cx="67.4184" cy="19.7917" fill="url(#gvn8gelqbiir00)" rx="8.3333" ry="8.3333" style="stroke:#2FA4E7;stroke-width:1.0417;"/><path d="M67.4184,28.125 L67.4184,56.25 M53.8767,36.4583 L80.9601,36.4583 M67.4184,56.25 L53.8767,71.875 M67.4184,56.25 L80.9601,71.875 " fill="#FFFFFF" fill-opacity="0.00000" style="stroke:#2FA4E7;stroke-width:1.0417;"/></g><g><text fill="#343A40" font-family="Verdana" font-size="12.5" lengthAdjust="spacing" textLength="55.6702" x="36.4583" y="1059.8124">Engineer</text><ellipse cx="67.4184" cy="1077.3438" fill="url(#gvn8gelqbiir00)" rx="8.3333" ry="8.3333" style="stroke:#2FA4E7;stroke-width:1.0417;"/><path d="M67.4184,1085.6771 L67.4184,1113.8021 M53.8767,1094.0104 L80.9601,1094.0104 M67.4184,1113.8021 L53.8767,1129.4271 M67.4184,1113.8021 L80.9601,1129.4271 " fill="#FFFFFF" fill-opacity="0.00000" style="stroke:#2FA4E7;stroke-width:1.0417;"/></g><g><text fill="#343A40" font-family="Verdana" font-size="12.5" lengthAdjust="spacing" textLength="168.3044" x="195.4793" y="90.7694">Authentication Component</text><ellipse cx="282.7566" cy="57.2917" fill="url(#gvn8gelqbiir00)" rx="12.5" ry="12.5" style="stroke:#2FA4E7;stroke-width:1.0417;"/><line style="stroke:#2FA4E7;stroke-width:1.0417;" x1="270.2566" x2="295.2566" y1="71.875" y2="71.875"/></g><g><text fill="#343A40" font-family="Verdana" font-size="12.5" lengthAdjust="spacing" textLength="168.3044" x="195.4793" y="1059.8124">Authentication Component</text><ellipse cx="282.7566" cy="1084.6354" fill="url(#gvn8gelqbiir00)" rx="12.5" ry="12.5" style="stroke:#2FA4E7;stroke-width:1.0417;"/><line style="stroke:#2FA4E7;stroke-width:1.0417;" x1="270.2566" x2="295.2566" y1="1099.2188" y2="1099.2188"/></g><g><text fill="#343A40" font-family="Verdana" font-size="12.5" lengthAdjust="spacing" textLength="153.5522" x="390.8671" y="90.7694">Interface &amp; Data Display</text><ellipse cx="470.7682" cy="57.2917" fill="url(#gvn8gelqbiir00)" rx="12.5" ry="12.5" style="stroke:#2FA4E7;stroke-width:1.0417;"/><line style="stroke:#2FA4E7;stroke-width:1.0417;" x1="458.2682" x2="483.2682" y1="71.875" y2="71.875"/></g><g><text fill="#343A40" font-family="Verdana" font-size="12.5" lengthAdjust="spacing" textLength="153.5522" x="390.8671" y="1059.8124">Interface &amp; Data Display</text><ellipse cx="470.7682" cy="1084.6354" fill="url(#gvn8gelqbiir00)" rx="12.5" ry="12.5" style="stroke:#2FA4E7;stroke-width:1.0417;"/><line style="stroke:#2FA4E7;stroke-width:1.0417;" x1="458.2682" x2="483.2682" y1="1099.2188" y2="1099.2188"/></g><g><text fill="#343A40" font-family="Verdana" font-size="12.5" lengthAdjust="spacing" textLength="185.8887" x="586.0514" y="90.7694">Map and Analysis Component</text><ellipse cx="682.1208" cy="57.2917" fill="url(#gvn8gelqbiir00)" rx="12.5" ry="12.5" style="stroke:#2FA4E7;stroke-width:1.0417;"/><line style="stroke:#2FA4E7;stroke-width:1.0417;" x1="669.6208" x2="694.6208" y1="71.875" y2="71.875"/></g><g><text fill="#343A40" font-family="Verdana" font-size="12.5" lengthAdjust="spacing" textLength="185.8887" x="586.0514" y="1059.8124">Map and Analysis Component</text><ellipse cx="682.1208" cy="1084.6354" fill="url(#gvn8gelqbiir00)" rx="12.5" ry="12.5" style="stroke:#2FA4E7;stroke-width:1.0417;"/><line style="stroke:#2FA4E7;stroke-width:1.0417;" x1="669.6208" x2="694.6208" y1="1099.2188" y2="1099.2188"/></g><g><text fill="#343A40" font-family="Verdana" font-size="12.5" lengthAdjust="spacing" textLength="187.2375" x="872.0957" y="90.7694">Route Suggestion Component</text><ellipse cx="968.8395" cy="57.2917" fill="url(#gvn8gelqbiir00)" rx="12.5" ry="12.5" style="stroke:#2FA4E7;stroke-width:1.0417;"/><line style="stroke:#2FA4E7;stroke-width:1.0417;" x1="956.3395" x2="981.3395" y1="71.875" y2="71.875"/></g><g><text fill="#343A40" font-family="Verdana" font-size="12.5" lengthAdjust="spacing" textLength="187.2375" x="872.0957" y="1059.8124">Route Suggestion Component</text><ellipse cx="968.8395" cy="1084.6354" fill="url(#gvn8gelqbiir00)" rx="12.5" ry="12.5" style="stroke:#2FA4E7;stroke-width:1.0417;"/><line style="stroke:#2FA4E7;stroke-width:1.0417;" x1="956.3395" x2="981.3395" y1="1099.2188" y2="1099.2188"/></g><g><text fill="#343A40" font-family="Verdana" font-size="12.5" lengthAdjust="spacing" textLength="193.5547" x="1132.609" y="90.7694">Route Modification Component</text><ellipse cx="1232.5114" cy="57.2917" fill="url(#gvn8gelqbiir00)" rx="12.5" ry="12.5" style="stroke:#2FA4E7;stroke-width:1.0417;"/><line style="stroke:#2FA4E7;stroke-width:1.0417;" x1="1220.0114" x2="1245.0114" y1="71.875" y2="71.875"/></g><g><text fill="#343A40" font-family="Verdana" font-size="12.5" lengthAdjust="spacing" textLength="193.5547" x="1132.609" y="1059.8124">Route Modification Component</text><ellipse cx="1232.5114" cy="1084.6354" fill="url(#gvn8gelqbiir00)" rx="12.5" ry="12.5" style="stroke:#2FA4E7;stroke-width:1.0417;"/><line style="stroke:#2FA4E7;stroke-width:1.0417;" x1="1220.0114" x2="1245.0114" y1="1099.2188" y2="1099.2188"/></g><g><text fill="#343A40" font-family="Verdana" font-size="12.5" lengthAdjust="spacing" textLength="184.5642" x="1405.7383" y="90.7694">Database &amp; Save Component</text><ellipse cx="1501.1454" cy="57.2917" fill="url(#gvn8gelqbiir00)" rx="12.5" ry="12.5" style="stroke:#2FA4E7;stroke-width:1.0417;"/><line style="stroke:#2FA4E7;stroke-width:1.0417;" x1="1488.6454" x2="1513.6454" y1="71.875" y2="71.875"/></g><g><text fill="#343A40" font-family="Verdana" font-size="12.5" lengthAdjust="spacing" textLength="184.5642" x="1405.7383" y="1059.8124">Database &amp; Save Component</text><ellipse cx="1501.1454" cy="1084.6354" fill="url(#gvn8gelqbiir00)" rx="12.5" ry="12.5" style="stroke:#2FA4E7;stroke-width:1.0417;"/><line style="stroke:#2FA4E7;stroke-width:1.0417;" x1="1488.6454" x2="1513.6454" y1="1099.2188" y2="1099.2188"/></g><g><polygon fill="#2FA4E7" points="270.2566,136.3932,280.6732,140.5599,270.2566,144.7266,274.4232,140.5599" style="stroke:#2FA4E7;stroke-width:1.0417;"/><line style="stroke:#2FA4E7;stroke-width:3.125;" x1="67.4184" x2="276.5066" y1="140.5599" y2="140.5599"/><text fill="#343A40" font-family="Verdana" font-size="12.5" lengthAdjust="spacing" textLength="138.5925" x="79.9184" y="130.3202">login(userCredentials)</text></g><g><line style="stroke:#2FA4E7;stroke-width:3.125;" x1="282.7566" x2="326.5066" y1="180.1107" y2="180.1107"/><line style="stroke:#2FA4E7;stroke-width:3.125;" x1="326.5066" x2="326.5066" y1="180.1107" y2="193.6523"/><line style="stroke:#2FA4E7;stroke-width:3.125;" x1="283.7982" x2="326.5066" y1="193.6523" y2="193.6523"/><polygon fill="#2FA4E7" points="294.2149,189.4857,283.7982,193.6523,294.2149,197.819,290.0482,193.6523" style="stroke:#2FA4E7;stroke-width:1.0417;"/><text fill="#343A40" font-family="Verdana" font-size="12.5" lengthAdjust="spacing" textLength="124.585" x="295.2566" y="169.871">Validate credentials</text></g><g><polygon fill="#2FA4E7" points="78.8767,229.0365,68.4601,233.2031,78.8767,237.3698,74.7101,233.2031" style="stroke:#2FA4E7;stroke-width:1.0417;"/><line style="stroke:#2FA4E7;stroke-width:3.125;" x1="72.6267" x2="281.7149" y1="233.2031" y2="233.2031"/><text fill="#343A40" font-family="Verdana" font-size="12.5" lengthAdjust="spacing" textLength="147.3022" x="90.3351" y="222.9635">Login success or failure</text></g><path d="M25,248.8281 L96.8201,248.8281 L96.8201,265.4622 L86.4034,275.8789 L20.8333,275.8789 L20.8333,252.9948 A4.1667,4.1667 0 0 1 25,248.8281 " fill="#E9ECEF" style="stroke:#868E96;stroke-width:1.0417;"/><rect fill="#FFFFFF" fill-opacity="0.00000" height="248.7305" rx="4.1667" ry="4.1667" style="stroke:#59B6EC;stroke-width:1.0417;" width="666.4958" x="20.8333" y="248.8281"/><text fill="#033C73" font-family="Verdana" font-size="12.5" font-weight="bold" lengthAdjust="spacing" textLength="18.6951" x="41.6667" y="266.6809">alt</text><text fill="#343A40" font-family="Verdana" font-size="12.5" font-weight="bold" lengthAdjust="spacing" textLength="108.9783" x="117.6534" y="267.7226">[Login success]</text><g><polygon fill="#2FA4E7" points="458.2682,312.2721,468.6849,316.4388,458.2682,320.6055,462.4349,316.4388" style="stroke:#2FA4E7;stroke-width:1.0417;"/><line style="stroke:#2FA4E7;stroke-width:3.125;" x1="67.4184" x2="464.5182" y1="316.4388" y2="316.4388"/><text fill="#343A40" font-family="Verdana" font-size="12.5" lengthAdjust="spacing" textLength="160.8398" x="79.9184" y="306.1991">displayMap(mobilityData)</text></g><g><line style="stroke:#2FA4E7;stroke-width:3.125;" x1="470.7682" x2="514.5182" y1="355.9896" y2="355.9896"/><line style="stroke:#2FA4E7;stroke-width:3.125;" x1="514.5182" x2="514.5182" y1="355.9896" y2="369.5313"/><line style="stroke:#2FA4E7;stroke-width:3.125;" x1="471.8099" x2="514.5182" y1="369.5313" y2="369.5313"/><polygon fill="#2FA4E7" points="482.2266,365.3646,471.8099,369.5313,482.2266,373.6979,478.0599,369.5313" style="stroke:#2FA4E7;stroke-width:1.0417;"/><text fill="#343A40" font-family="Verdana" font-size="12.5" lengthAdjust="spacing" textLength="186.3525" x="483.2682" y="345.7499">Generate map &amp; overlay data</text></g><g><polygon fill="#2FA4E7" points="78.8767,404.9154,68.4601,409.082,78.8767,413.2487,74.7101,409.082" style="stroke:#2FA4E7;stroke-width:1.0417;"/><line style="stroke:#2FA4E7;stroke-width:3.125;" x1="72.6267" x2="469.7266" y1="409.082" y2="409.082"/><text fill="#343A40" font-family="Verdana" font-size="12.5" lengthAdjust="spacing" textLength="194.8914" x="90.3351" y="398.8424">Display map with mobility data</text></g><line style="stroke:#59B6EC;stroke-width:1.0417;stroke-dasharray:2.0,2.0;" x1="20.8333" x2="687.3291" y1="418.457" y2="418.457"/><text fill="#343A40" font-family="Verdana" font-size="12.5" font-weight="bold" lengthAdjust="spacing" textLength="100.4456" x="31.25" y="435.2681">[Login failure]</text><g><line style="stroke:#2FA4E7;stroke-width:3.125;" x1="67.4184" x2="111.1684" y1="475.6836" y2="475.6836"/><line style="stroke:#2FA4E7;stroke-width:3.125;" x1="111.1684" x2="111.1684" y1="475.6836" y2="489.2253"/><line style="stroke:#2FA4E7;stroke-width:3.125;" x1="68.4601" x2="111.1684" y1="489.2253" y2="489.2253"/><polygon fill="#2FA4E7" points="78.8767,485.0586,68.4601,489.2253,78.8767,493.3919,74.7101,489.2253" style="stroke:#2FA4E7;stroke-width:1.0417;"/><text fill="#343A40" font-family="Verdana" font-size="12.5" lengthAdjust="spacing" textLength="190.3381" x="79.9184" y="465.4439">Show error message and retry</text></g><g><polygon fill="#2FA4E7" points="669.6208,531.901,680.0374,536.0677,669.6208,540.2344,673.7874,536.0677" style="stroke:#2FA4E7;stroke-width:1.0417;"/><line style="stroke:#2FA4E7;stroke-width:3.125;" x1="67.4184" x2="675.8708" y1="536.0677" y2="536.0677"/><text fill="#343A40" font-family="Verdana" font-size="12.5" lengthAdjust="spacing" textLength="210.1013" x="79.9184" y="525.828">selectAreaOfInterest(areaDetails)</text></g><g><line style="stroke:#2FA4E7;stroke-width:3.125;" x1="682.1208" x2="725.8708" y1="575.6185" y2="575.6185"/><line style="stroke:#2FA4E7;stroke-width:3.125;" x1="725.8708" x2="725.8708" y1="575.6185" y2="589.1602"/><line style="stroke:#2FA4E7;stroke-width:3.125;" x1="683.1624" x2="725.8708" y1="589.1602" y2="589.1602"/><polygon fill="#2FA4E7" points="693.5791,584.9935,683.1624,589.1602,693.5791,593.3268,689.4124,589.1602" style="stroke:#2FA4E7;stroke-width:1.0417;"/><text fill="#343A40" font-family="Verdana" font-size="12.5" lengthAdjust="spacing" textLength="261.7188" x="694.6208" y="565.3788">Highlight area &amp; display mobility patterns</text></g><g><polygon fill="#2FA4E7" points="78.8767,624.5443,68.4601,628.7109,78.8767,632.8776,74.7101,628.7109" style="stroke:#2FA4E7;stroke-width:1.0417;"/><line style="stroke:#2FA4E7;stroke-width:3.125;" x1="72.6267" x2="681.0791" y1="628.7109" y2="628.7109"/><text fill="#343A40" font-family="Verdana" font-size="12.5" lengthAdjust="spacing" textLength="211.8896" x="90.3351" y="618.4713">Display detailed mobility patterns</text></g><g><polygon fill="#2FA4E7" points="956.3395,664.0951,966.7562,668.2617,956.3395,672.4284,960.5062,668.2617" style="stroke:#2FA4E7;stroke-width:1.0417;"/><line style="stroke:#2FA4E7;stroke-width:3.125;" x1="67.4184" x2="962.5895" y1="668.2617" y2="668.2617"/><text fill="#343A40" font-family="Verdana" font-size="12.5" lengthAdjust="spacing" textLength="203.8757" x="79.9184" y="658.0221">suggestRoutes(mobilityClusters)</text></g><g><line style="stroke:#2FA4E7;stroke-width:3.125;" x1="968.8395" x2="1012.5895" y1="707.8125" y2="707.8125"/><line style="stroke:#2FA4E7;stroke-width:3.125;" x1="1012.5895" x2="1012.5895" y1="707.8125" y2="721.3542"/><line style="stroke:#2FA4E7;stroke-width:3.125;" x1="969.8812" x2="1012.5895" y1="721.3542" y2="721.3542"/><polygon fill="#2FA4E7" points="980.2979,717.1875,969.8812,721.3542,980.2979,725.5208,976.1312,721.3542" style="stroke:#2FA4E7;stroke-width:1.0417;"/><text fill="#343A40" font-family="Verdana" font-size="12.5" lengthAdjust="spacing" textLength="238.6719" x="981.3395" y="697.5728">Suggest new routes based on clusters</text></g><g><polygon fill="#2FA4E7" points="78.8767,756.7383,68.4601,760.9049,78.8767,765.0716,74.7101,760.9049" style="stroke:#2FA4E7;stroke-width:1.0417;"/><line style="stroke:#2FA4E7;stroke-width:3.125;" x1="72.6267" x2="967.7979" y1="760.9049" y2="760.9049"/><text fill="#343A40" font-family="Verdana" font-size="12.5" lengthAdjust="spacing" textLength="158.8684" x="90.3351" y="750.6653">Display suggested routes</text></g><g><polygon fill="#2FA4E7" points="1220.0114,796.2891,1230.4281,800.4557,1220.0114,804.6224,1224.1781,800.4557" style="stroke:#2FA4E7;stroke-width:1.0417;"/><line style="stroke:#2FA4E7;stroke-width:3.125;" x1="67.4184" x2="1226.2614" y1="800.4557" y2="800.4557"/><text fill="#343A40" font-family="Verdana" font-size="12.5" lengthAdjust="spacing" textLength="205.8289" x="79.9184" y="790.2161">modifyRoutes(routeSuggestions)</text></g><g><line style="stroke:#2FA4E7;stroke-width:3.125;" x1="1232.5114" x2="1276.2614" y1="840.0065" y2="840.0065"/><line style="stroke:#2FA4E7;stroke-width:3.125;" x1="1276.2614" x2="1276.2614" y1="840.0065" y2="853.5482"/><line style="stroke:#2FA4E7;stroke-width:3.125;" x1="1233.5531" x2="1276.2614" y1="853.5482" y2="853.5482"/><polygon fill="#2FA4E7" points="1243.9697,849.3815,1233.5531,853.5482,1243.9697,857.7148,1239.8031,853.5482" style="stroke:#2FA4E7;stroke-width:1.0417;"/><text fill="#343A40" font-family="Verdana" font-size="12.5" lengthAdjust="spacing" textLength="243.634" x="1245.0114" y="829.7668">Modify routes (e.g., add/remove stops)</text></g><g><polygon fill="#2FA4E7" points="78.8767,888.9323,68.4601,893.099,78.8767,897.2656,74.7101,893.099" style="stroke:#2FA4E7;stroke-width:1.0417;"/><line style="stroke:#2FA4E7;stroke-width:3.125;" x1="72.6267" x2="1231.4697" y1="893.099" y2="893.099"/><text fill="#343A40" font-family="Verdana" font-size="12.5" lengthAdjust="spacing" textLength="148.5657" x="90.3351" y="882.8593">Display modified routes</text></g><g><polygon fill="#2FA4E7" points="1488.6454,928.4831,1499.0621,932.6497,1488.6454,936.8164,1492.8121,932.6497" style="stroke:#2FA4E7;stroke-width:1.0417;"/><line style="stroke:#2FA4E7;stroke-width:3.125;" x1="67.4184" x2="1494.8954" y1="932.6497" y2="932.6497"/><text fill="#343A40" font-family="Verdana" font-size="12.5" lengthAdjust="spacing" textLength="151.5686" x="79.9184" y="922.4101">saveRoutes(newRoutes)</text></g><g><line style="stroke:#2FA4E7;stroke-width:3.125;" x1="1501.1454" x2="1544.8954" y1="972.2005" y2="972.2005"/><line style="stroke:#2FA4E7;stroke-width:3.125;" x1="1544.8954" x2="1544.8954" y1="972.2005" y2="985.7422"/><line style="stroke:#2FA4E7;stroke-width:3.125;" x1="1502.1871" x2="1544.8954" y1="985.7422" y2="985.7422"/><polygon fill="#2FA4E7" points="1512.6038,981.5755,1502.1871,985.7422,1512.6038,989.9089,1508.4371,985.7422" style="stroke:#2FA4E7;stroke-width:1.0417;"/><text fill="#343A40" font-family="Verdana" font-size="12.5" lengthAdjust="spacing" textLength="152.9175" x="1513.6454" y="961.9609">Save routes to database</text></g><g><polygon fill="#2FA4E7" points="78.8767,1021.1263,68.4601,1025.293,78.8767,1029.4596,74.7101,1025.293" style="stroke:#2FA4E7;stroke-width:1.0417;"/><line style="stroke:#2FA4E7;stroke-width:3.125;" x1="72.6267" x2="1500.1038" y1="1025.293" y2="1025.293"/><text fill="#343A40" font-family="Verdana" font-size="12.5" lengthAdjust="spacing" textLength="213.9771" x="90.3351" y="1015.0533">Confirm routes saved successfully</text></g><!--SRC=[XLHHYzim37xFhz3kuMXXTtk_Xq5fntQmOx32tdMnaXeSEzZEbVpxoKwS9gtJAnGSITydVRBaB_v43K59jbE4kYYmzCR23rrBJMIBWhINleU7NSUHV2xHIwDXRvhMQ3Oy03e8piaoGLwr9rjXIV081_G81-bQXNs4JCxHEA7Ui0NK0dOQLU-akqh5xkIvpVZNT9xWsDKrkKoPqNtnhk7VZ91LNcWCcFjlEOBITtH1z14_w8eWUOFhWYrIl-7f-xAPy0BAi6_JER9xIoAaGUMsnJ8iW_k7IWfaFUK5TekQCh_0xv08N5UMv1pm55GeLMUfGEMNpWBuDw_v-ZQPJGmdlgzDOzwbukO4yTk8lOdFS_maJJP8Q7We7i5ya0qELeMhD3D1oHhGP-bFa0eP64ZnBGswaj9hNJEouycSWQpblZJS0gmfZgabRyFmYkKbviQKIHmfAltE4lwfOl4yYHlapmDvBe6lDGjS9_mbwvFYluV0mZqIINEIsgBdFDgjCcSQ9c8r938i2vLh2nMK3jOOuQO9sAlECG_hN8NUfnsjeEaCDd93M2S1lAhbI7wNEwDsB9L91iQCnkpACqKJxFqeqYxJ9f5vx6VCqTudZHjwhf-_0WhnpLB3Um3Ec_RJ3BbTYB4hMhElKxXC_Xv5SkE7qxR8Hz-XYU_XgCYRk8GXR9reLl_Uw4hQ9i53HI8zHrMdLFyV]--></g></svg>