<svg xmlns="http://www.w3.org/2000/svg" xmlns:xlink="http://www.w3.org/1999/xlink" contentStyleType="text/css" data-diagram-type="SEQUENCE" height="1167.7083px" preserveAspectRatio="none" style="width:1798px;height:1167px;" version="1.1" viewBox="0 0 1798 1167" width="1798.9583px" zoomAndPan="magnify"><defs><linearGradient id="g65l22yfnf5h70" x1="50%" x2="50%" y1="0%" y2="100%"><stop offset="0%" stop-color="#59B6EC"/><stop offset="100%" stop-color="#2FA4E7"/></linearGradient></defs><g><rect fill="#FFFFFF" fill-opacity="0.00000" height="182.0964" rx="4.1667" ry="4.1667" style="stroke:#59B6EC;stroke-width:1.0417;" width="704.5492" x="20.8333" y="209.2773"/><g><title>User</title><rect fill="#FFFFFF" fill-opacity="0.00000" height="971.1263" width="8.3333" x="49.6623" y="98.9258"/><line style="stroke:#BABDBF;stroke-width:1.0417;stroke-dasharray:5.0,5.0;" x1="53.125" x2="53.125" y1="98.9258" y2="1070.0521"/></g><g><title>Authentication Component</title><rect fill="#FFFFFF" fill-opacity="0.00000" height="971.1263" width="8.3333" x="454.1158" y="98.9258"/><line style="stroke:#BABDBF;stroke-width:1.0417;stroke-dasharray:5.0,5.0;" x1="457.4636" x2="457.4636" y1="98.9258" y2="1070.0521"/></g><g><title>UI Component</title><rect fill="#FFFFFF" fill-opacity="0.00000" height="971.1263" width="8.3333" x="657.7759" y="98.9258"/><line style="stroke:#BABDBF;stroke-width:1.0417;stroke-dasharray:5.0,5.0;" x1="661.0026" x2="661.0026" y1="98.9258" y2="1070.0521"/></g><g><title>Data Processing Component</title><rect fill="#FFFFFF" fill-opacity="0.00000" height="971.1263" width="8.3333" x="828.7354" y="98.9258"/><line style="stroke:#BABDBF;stroke-width:1.0417;stroke-dasharray:5.0,5.0;" x1="832.6406" x2="832.6406" y1="98.9258" y2="1070.0521"/></g><g><title>Report Formatting Component</title><rect fill="#FFFFFF" fill-opacity="0.00000" height="971.1263" width="8.3333" x="1040.3524" y="98.9258"/><line style="stroke:#BABDBF;stroke-width:1.0417;stroke-dasharray:5.0,5.0;" x1="1043.5801" x2="1043.5801" y1="98.9258" y2="1070.0521"/></g><g><title>Export Component</title><rect fill="#FFFFFF" fill-opacity="0.00000" height="971.1263" width="8.3333" x="1222.2738" y="98.9258"/><line style="stroke:#BABDBF;stroke-width:1.0417;stroke-dasharray:5.0,5.0;" x1="1226.0427" x2="1226.0427" y1="98.9258" y2="1070.0521"/></g><g><title>Notification Component</title><rect fill="#FFFFFF" fill-opacity="0.00000" height="971.1263" width="8.3333" x="1569.8995" y="98.9258"/><line style="stroke:#BABDBF;stroke-width:1.0417;stroke-dasharray:5.0,5.0;" x1="1573.8912" x2="1573.8912" y1="98.9258" y2="1070.0521"/></g><g><text fill="#343A40" font-family="Verdana" font-size="12.5" lengthAdjust="spacing" textLength="28.4912" x="36.4583" y="90.7694">User</text><ellipse cx="53.8289" cy="19.7917" fill="url(#g65l22yfnf5h70)" rx="8.3333" ry="8.3333" style="stroke:#2FA4E7;stroke-width:1.0417;"/><path d="M53.8289,28.125 L53.8289,56.25 M40.2873,36.4583 L67.3706,36.4583 M53.8289,56.25 L40.2873,71.875 M53.8289,56.25 L67.3706,71.875 " fill="#FFFFFF" fill-opacity="0.00000" style="stroke:#2FA4E7;stroke-width:1.0417;"/></g><g><text fill="#343A40" font-family="Verdana" font-size="12.5" lengthAdjust="spacing" textLength="28.4912" x="36.4583" y="1085.8215">User</text><ellipse cx="53.8289" cy="1103.3529" fill="url(#g65l22yfnf5h70)" rx="8.3333" ry="8.3333" style="stroke:#2FA4E7;stroke-width:1.0417;"/><path d="M53.8289,1111.6862 L53.8289,1139.8112 M40.2873,1120.0195 L67.3706,1120.0195 M53.8289,1139.8112 L40.2873,1155.4362 M53.8289,1139.8112 L67.3706,1155.4362 " fill="#FFFFFF" fill-opacity="0.00000" style="stroke:#2FA4E7;stroke-width:1.0417;"/></g><g><text fill="#343A40" font-family="Verdana" font-size="12.5" lengthAdjust="spacing" textLength="168.3044" x="371.0052" y="90.7694">Authentication Component</text><ellipse cx="458.2825" cy="57.2917" fill="url(#g65l22yfnf5h70)" rx="12.5" ry="12.5" style="stroke:#2FA4E7;stroke-width:1.0417;"/><line style="stroke:#2FA4E7;stroke-width:1.0417;" x1="445.7825" x2="470.7825" y1="71.875" y2="71.875"/></g><g><text fill="#343A40" font-family="Verdana" font-size="12.5" lengthAdjust="spacing" textLength="168.3044" x="371.0052" y="1085.8215">Authentication Component</text><ellipse cx="458.2825" cy="1110.6445" fill="url(#g65l22yfnf5h70)" rx="12.5" ry="12.5" style="stroke:#2FA4E7;stroke-width:1.0417;"/><line style="stroke:#2FA4E7;stroke-width:1.0417;" x1="445.7825" x2="470.7825" y1="1125.2279" y2="1125.2279"/></g><g><text fill="#343A40" font-family="Verdana" font-size="12.5" lengthAdjust="spacing" textLength="89.3799" x="614.1276" y="90.7694">UI Component</text><ellipse cx="661.9425" cy="57.2917" fill="url(#g65l22yfnf5h70)" rx="12.5" ry="12.5" style="stroke:#2FA4E7;stroke-width:1.0417;"/><line style="stroke:#2FA4E7;stroke-width:1.0417;" x1="649.4425" x2="674.4425" y1="71.875" y2="71.875"/></g><g><text fill="#343A40" font-family="Verdana" font-size="12.5" lengthAdjust="spacing" textLength="89.3799" x="614.1276" y="1085.8215">UI Component</text><ellipse cx="661.9425" cy="1110.6445" fill="url(#g65l22yfnf5h70)" rx="12.5" ry="12.5" style="stroke:#2FA4E7;stroke-width:1.0417;"/><line style="stroke:#2FA4E7;stroke-width:1.0417;" x1="649.4425" x2="674.4425" y1="1125.2279" y2="1125.2279"/></g><g><text fill="#343A40" font-family="Verdana" font-size="12.5" lengthAdjust="spacing" textLength="177.6062" x="740.9739" y="90.7694">Data Processing Component</text><ellipse cx="832.902" cy="57.2917" fill="url(#g65l22yfnf5h70)" rx="12.5" ry="12.5" style="stroke:#2FA4E7;stroke-width:1.0417;"/><line style="stroke:#2FA4E7;stroke-width:1.0417;" x1="820.402" x2="845.402" y1="71.875" y2="71.875"/></g><g><text fill="#343A40" font-family="Verdana" font-size="12.5" lengthAdjust="spacing" textLength="177.6062" x="740.9739" y="1085.8215">Data Processing Component</text><ellipse cx="832.902" cy="1110.6445" fill="url(#g65l22yfnf5h70)" rx="12.5" ry="12.5" style="stroke:#2FA4E7;stroke-width:1.0417;"/><line style="stroke:#2FA4E7;stroke-width:1.0417;" x1="820.402" x2="845.402" y1="1125.2279" y2="1125.2279"/></g><g><text fill="#343A40" font-family="Verdana" font-size="12.5" lengthAdjust="spacing" textLength="191.4612" x="945.6635" y="90.7694">Report Formatting Component</text><ellipse cx="1044.519" cy="57.2917" fill="url(#g65l22yfnf5h70)" rx="12.5" ry="12.5" style="stroke:#2FA4E7;stroke-width:1.0417;"/><line style="stroke:#2FA4E7;stroke-width:1.0417;" x1="1032.019" x2="1057.019" y1="71.875" y2="71.875"/></g><g><text fill="#343A40" font-family="Verdana" font-size="12.5" lengthAdjust="spacing" textLength="191.4612" x="945.6635" y="1085.8215">Report Formatting Component</text><ellipse cx="1044.519" cy="1110.6445" fill="url(#g65l22yfnf5h70)" rx="12.5" ry="12.5" style="stroke:#2FA4E7;stroke-width:1.0417;"/><line style="stroke:#2FA4E7;stroke-width:1.0417;" x1="1032.019" x2="1057.019" y1="1125.2279" y2="1125.2279"/></g><g><text fill="#343A40" font-family="Verdana" font-size="12.5" lengthAdjust="spacing" textLength="117.4622" x="1164.5844" y="90.7694">Export Component</text><ellipse cx="1226.4404" cy="57.2917" fill="url(#g65l22yfnf5h70)" rx="12.5" ry="12.5" style="stroke:#2FA4E7;stroke-width:1.0417;"/><line style="stroke:#2FA4E7;stroke-width:1.0417;" x1="1213.9404" x2="1238.9404" y1="71.875" y2="71.875"/></g><g><text fill="#343A40" font-family="Verdana" font-size="12.5" lengthAdjust="spacing" textLength="117.4622" x="1164.5844" y="1085.8215">Export Component</text><ellipse cx="1226.4404" cy="1110.6445" fill="url(#g65l22yfnf5h70)" rx="12.5" ry="12.5" style="stroke:#2FA4E7;stroke-width:1.0417;"/><line style="stroke:#2FA4E7;stroke-width:1.0417;" x1="1213.9404" x2="1238.9404" y1="1125.2279" y2="1125.2279"/></g><g><text fill="#343A40" font-family="Verdana" font-size="12.5" lengthAdjust="spacing" textLength="148.2666" x="1496.8079" y="90.7694">Notification Component</text><ellipse cx="1574.0662" cy="57.2917" fill="url(#g65l22yfnf5h70)" rx="12.5" ry="12.5" style="stroke:#2FA4E7;stroke-width:1.0417;"/><line style="stroke:#2FA4E7;stroke-width:1.0417;" x1="1561.5662" x2="1586.5662" y1="71.875" y2="71.875"/></g><g><text fill="#343A40" font-family="Verdana" font-size="12.5" lengthAdjust="spacing" textLength="148.2666" x="1496.8079" y="1085.8215">Notification Component</text><ellipse cx="1574.0662" cy="1110.6445" fill="url(#g65l22yfnf5h70)" rx="12.5" ry="12.5" style="stroke:#2FA4E7;stroke-width:1.0417;"/><line style="stroke:#2FA4E7;stroke-width:1.0417;" x1="1561.5662" x2="1586.5662" y1="1125.2279" y2="1125.2279"/></g><g><polygon fill="#2FA4E7" points="445.7825,136.3932,456.1991,140.5599,445.7825,144.7266,449.9491,140.5599" style="stroke:#2FA4E7;stroke-width:1.0417;"/><line style="stroke:#2FA4E7;stroke-width:3.125;" x1="53.8289" x2="452.0325" y1="140.5599" y2="140.5599"/><text fill="#343A40" font-family="Verdana" font-size="12.5" lengthAdjust="spacing" textLength="138.5925" x="66.3289" y="130.3202">login(userCredentials)</text></g><g><line style="stroke:#2FA4E7;stroke-width:3.125;" x1="458.2825" x2="502.0325" y1="180.1107" y2="180.1107"/><line style="stroke:#2FA4E7;stroke-width:3.125;" x1="502.0325" x2="502.0325" y1="180.1107" y2="193.6523"/><line style="stroke:#2FA4E7;stroke-width:3.125;" x1="459.3241" x2="502.0325" y1="193.6523" y2="193.6523"/><polygon fill="#2FA4E7" points="469.7408,189.4857,459.3241,193.6523,469.7408,197.819,465.5741,193.6523" style="stroke:#2FA4E7;stroke-width:1.0417;"/><text fill="#343A40" font-family="Verdana" font-size="12.5" lengthAdjust="spacing" textLength="109.8938" x="470.7825" y="169.871">Verify credentials</text></g><path d="M25,209.2773 L96.8201,209.2773 L96.8201,225.9115 L86.4034,236.3281 L20.8333,236.3281 L20.8333,213.444 A4.1667,4.1667 0 0 1 25,209.2773 " fill="#E9ECEF" style="stroke:#868E96;stroke-width:1.0417;"/><rect fill="#FFFFFF" fill-opacity="0.00000" height="182.0964" rx="4.1667" ry="4.1667" style="stroke:#59B6EC;stroke-width:1.0417;" width="704.5492" x="20.8333" y="209.2773"/><text fill="#033C73" font-family="Verdana" font-size="12.5" font-weight="bold" lengthAdjust="spacing" textLength="18.6951" x="41.6667" y="227.1301">alt</text><text fill="#343A40" font-family="Verdana" font-size="12.5" font-weight="bold" lengthAdjust="spacing" textLength="130.2002" x="117.6534" y="228.1718">[Valid credentials]</text><g><polygon fill="#2FA4E7" points="649.4425,272.7214,659.8592,276.888,649.4425,281.0547,653.6092,276.888" style="stroke:#2FA4E7;stroke-width:1.0417;"/><line style="stroke:#2FA4E7;stroke-width:3.125;" x1="458.2825" x2="655.6925" y1="276.888" y2="276.888"/><text fill="#343A40" font-family="Verdana" font-size="12.5" lengthAdjust="spacing" textLength="168.2434" x="470.7825" y="266.6484">Grant access to dashboard</text></g><g><polygon fill="#2FA4E7" points="65.2873,312.2721,54.8706,316.4388,65.2873,320.6055,61.1206,316.4388" style="stroke:#2FA4E7;stroke-width:1.0417;"/><line style="stroke:#2FA4E7;stroke-width:3.125;" x1="59.0373" x2="660.9009" y1="316.4388" y2="316.4388"/><text fill="#343A40" font-family="Verdana" font-size="12.5" lengthAdjust="spacing" textLength="116.394" x="76.7456" y="306.1991">Display dashboard</text></g><line style="stroke:#59B6EC;stroke-width:1.0417;stroke-dasharray:2.0,2.0;" x1="20.8333" x2="725.3825" y1="325.8138" y2="325.8138"/><text fill="#343A40" font-family="Verdana" font-size="12.5" font-weight="bold" lengthAdjust="spacing" textLength="142.2241" x="31.25" y="342.6249">[Invalid credentials]</text><g><polygon fill="#2FA4E7" points="65.2873,378.8737,54.8706,383.0404,65.2873,387.207,61.1206,383.0404" style="stroke:#2FA4E7;stroke-width:1.0417;"/><line style="stroke:#2FA4E7;stroke-width:3.125;" x1="59.0373" x2="457.2408" y1="383.0404" y2="383.0404"/><text fill="#343A40" font-family="Verdana" font-size="12.5" lengthAdjust="spacing" textLength="369.0369" x="76.7456" y="372.8007">Display error message ("Incorrect username or password")</text></g><g><polygon fill="#2FA4E7" points="649.4425,425.7161,659.8592,429.8828,649.4425,434.0495,653.6092,429.8828" style="stroke:#2FA4E7;stroke-width:1.0417;"/><line style="stroke:#2FA4E7;stroke-width:3.125;" x1="53.8289" x2="655.6925" y1="429.8828" y2="429.8828"/><text fill="#343A40" font-family="Verdana" font-size="12.5" lengthAdjust="spacing" textLength="153.6743" x="66.3289" y="419.6431">selectReportingModule()</text></g><g><line style="stroke:#2FA4E7;stroke-width:3.125;" x1="661.9425" x2="705.6925" y1="469.4336" y2="469.4336"/><line style="stroke:#2FA4E7;stroke-width:3.125;" x1="705.6925" x2="705.6925" y1="469.4336" y2="482.9753"/><line style="stroke:#2FA4E7;stroke-width:3.125;" x1="662.9842" x2="705.6925" y1="482.9753" y2="482.9753"/><polygon fill="#2FA4E7" points="673.4009,478.8086,662.9842,482.9753,673.4009,487.1419,669.2342,482.9753" style="stroke:#2FA4E7;stroke-width:1.0417;"/><text fill="#343A40" font-family="Verdana" font-size="12.5" lengthAdjust="spacing" textLength="145.9595" x="674.4425" y="459.1939">Open reporting module</text></g><g><polygon fill="#2FA4E7" points="65.2873,518.3594,54.8706,522.526,65.2873,526.6927,61.1206,522.526" style="stroke:#2FA4E7;stroke-width:1.0417;"/><line style="stroke:#2FA4E7;stroke-width:3.125;" x1="59.0373" x2="660.9009" y1="522.526" y2="522.526"/><text fill="#343A40" font-family="Verdana" font-size="12.5" lengthAdjust="spacing" textLength="210.4675" x="76.7456" y="512.2864">Display report generation options</text></g><g><polygon fill="#2FA4E7" points="820.402,557.9102,830.8187,562.0768,820.402,566.2435,824.5687,562.0768" style="stroke:#2FA4E7;stroke-width:1.0417;"/><line style="stroke:#2FA4E7;stroke-width:3.125;" x1="53.8289" x2="826.652" y1="562.0768" y2="562.0768"/><text fill="#343A40" font-family="Verdana" font-size="12.5" lengthAdjust="spacing" textLength="129.1748" x="66.3289" y="551.8372">compileReport(data)</text></g><g><line style="stroke:#2FA4E7;stroke-width:3.125;" x1="832.902" x2="876.652" y1="601.6276" y2="601.6276"/><line style="stroke:#2FA4E7;stroke-width:3.125;" x1="876.652" x2="876.652" y1="601.6276" y2="615.1693"/><line style="stroke:#2FA4E7;stroke-width:3.125;" x1="833.9437" x2="876.652" y1="615.1693" y2="615.1693"/><polygon fill="#2FA4E7" points="844.3604,611.0026,833.9437,615.1693,844.3604,619.3359,840.1937,615.1693" style="stroke:#2FA4E7;stroke-width:1.0417;"/><text fill="#343A40" font-family="Verdana" font-size="12.5" lengthAdjust="spacing" textLength="162.7136" x="845.402" y="591.3879">Fetch and aggregate data</text></g><g><polygon fill="#2FA4E7" points="65.2873,650.5534,54.8706,654.7201,65.2873,658.8867,61.1206,654.7201" style="stroke:#2FA4E7;stroke-width:1.0417;"/><line style="stroke:#2FA4E7;stroke-width:3.125;" x1="59.0373" x2="831.8604" y1="654.7201" y2="654.7201"/><text fill="#343A40" font-family="Verdana" font-size="12.5" lengthAdjust="spacing" textLength="210.6506" x="76.7456" y="644.4804">Display compiled report structure</text></g><g><polygon fill="#2FA4E7" points="1032.019,690.1042,1042.4357,694.2708,1032.019,698.4375,1036.1857,694.2708" style="stroke:#2FA4E7;stroke-width:1.0417;"/><line style="stroke:#2FA4E7;stroke-width:3.125;" x1="53.8289" x2="1038.269" y1="694.2708" y2="694.2708"/><text fill="#343A40" font-family="Verdana" font-size="12.5" lengthAdjust="spacing" textLength="198.6755" x="66.3289" y="684.0312">customizeReport(reportFormat)</text></g><g><line style="stroke:#2FA4E7;stroke-width:3.125;" x1="1044.519" x2="1088.269" y1="733.8216" y2="733.8216"/><line style="stroke:#2FA4E7;stroke-width:3.125;" x1="1088.269" x2="1088.269" y1="733.8216" y2="747.3633"/><line style="stroke:#2FA4E7;stroke-width:3.125;" x1="1045.5607" x2="1088.269" y1="747.3633" y2="747.3633"/><polygon fill="#2FA4E7" points="1055.9774,743.1966,1045.5607,747.3633,1055.9774,751.5299,1051.8107,747.3633" style="stroke:#2FA4E7;stroke-width:1.0417;"/><text fill="#343A40" font-family="Verdana" font-size="12.5" lengthAdjust="spacing" textLength="156.9214" x="1057.019" y="723.5819">Apply layout preferences</text></g><g><polygon fill="#2FA4E7" points="65.2873,782.7474,54.8706,786.9141,65.2873,791.0807,61.1206,786.9141" style="stroke:#2FA4E7;stroke-width:1.0417;"/><line style="stroke:#2FA4E7;stroke-width:3.125;" x1="59.0373" x2="1043.4774" y1="786.9141" y2="786.9141"/><text fill="#343A40" font-family="Verdana" font-size="12.5" lengthAdjust="spacing" textLength="151.8188" x="76.7456" y="776.6744">Show customized report</text></g><g><polygon fill="#2FA4E7" points="1213.9404,822.2982,1224.3571,826.4648,1213.9404,830.6315,1218.1071,826.4648" style="stroke:#2FA4E7;stroke-width:1.0417;"/><line style="stroke:#2FA4E7;stroke-width:3.125;" x1="53.8289" x2="1220.1904" y1="826.4648" y2="826.4648"/><text fill="#343A40" font-family="Verdana" font-size="12.5" lengthAdjust="spacing" textLength="194.3237" x="66.3289" y="816.2252">generateReport(outputFormat)</text></g><g><line style="stroke:#2FA4E7;stroke-width:3.125;" x1="1226.4404" x2="1270.1904" y1="866.0156" y2="866.0156"/><line style="stroke:#2FA4E7;stroke-width:3.125;" x1="1270.1904" x2="1270.1904" y1="866.0156" y2="879.5573"/><line style="stroke:#2FA4E7;stroke-width:3.125;" x1="1227.4821" x2="1270.1904" y1="879.5573" y2="879.5573"/><polygon fill="#2FA4E7" points="1237.8988,875.3906,1227.4821,879.5573,1237.8988,883.724,1233.7321,879.5573" style="stroke:#2FA4E7;stroke-width:1.0417;"/><text fill="#343A40" font-family="Verdana" font-size="12.5" lengthAdjust="spacing" textLength="322.6257" x="1238.9404" y="855.776">Create report in selected format (PDF, Excel, Word)</text></g><g><polygon fill="#2FA4E7" points="65.2873,914.9414,54.8706,919.1081,65.2873,923.2747,61.1206,919.1081" style="stroke:#2FA4E7;stroke-width:1.0417;"/><line style="stroke:#2FA4E7;stroke-width:3.125;" x1="59.0373" x2="1225.3988" y1="919.1081" y2="919.1081"/><text fill="#343A40" font-family="Verdana" font-size="12.5" lengthAdjust="spacing" textLength="137.3169" x="76.7456" y="908.8684">Provide download link</text></g><g><polygon fill="#2FA4E7" points="1561.5662,954.4922,1571.9828,958.6589,1561.5662,962.8255,1565.7328,958.6589" style="stroke:#2FA4E7;stroke-width:1.0417;"/><line style="stroke:#2FA4E7;stroke-width:3.125;" x1="53.8289" x2="1567.8162" y1="958.6589" y2="958.6589"/><text fill="#343A40" font-family="Verdana" font-size="12.5" lengthAdjust="spacing" textLength="168.4631" x="66.3289" y="948.4192">shareReport(reportDetails)</text></g><g><line style="stroke:#2FA4E7;stroke-width:3.125;" x1="1574.0662" x2="1617.8162" y1="998.2096" y2="998.2096"/><line style="stroke:#2FA4E7;stroke-width:3.125;" x1="1617.8162" x2="1617.8162" y1="998.2096" y2="1011.7513"/><line style="stroke:#2FA4E7;stroke-width:3.125;" x1="1575.1078" x2="1617.8162" y1="1011.7513" y2="1011.7513"/><polygon fill="#2FA4E7" points="1585.5245,1007.5846,1575.1078,1011.7513,1585.5245,1015.918,1581.3578,1011.7513" style="stroke:#2FA4E7;stroke-width:1.0417;"/><text fill="#343A40" font-family="Verdana" font-size="12.5" lengthAdjust="spacing" textLength="200.8057" x="1586.5662" y="987.97">Send report link to stakeholders</text></g><g><polygon fill="#2FA4E7" points="65.2873,1047.1354,54.8706,1051.3021,65.2873,1055.4688,61.1206,1051.3021" style="stroke:#2FA4E7;stroke-width:1.0417;"/><line style="stroke:#2FA4E7;stroke-width:3.125;" x1="59.0373" x2="1573.0245" y1="1051.3021" y2="1051.3021"/><text fill="#343A40" font-family="Verdana" font-size="12.5" lengthAdjust="spacing" textLength="200.0244" x="76.7456" y="1041.0624">Confirm report has been shared</text></g><!--SRC=[ZLJBRjim4BphAxQ-r0PI0ttba4E186u27ze6DPoUD-9Q8aAHmfAAwtvzbv8iMxRaLXS9t9dHpZxu9kHK4AJ4bI6qIO9fS0nhJvmaP8CEEvZSLeAIxnI3TXRkN54wAmSJG0yns9rqbFNo1BPUdeCM610UsQNalRRP2ID63y5pzayg7GUuTrnW2EVy9du8dojy_Lqhz6dDuJdukmjwCro2uz21cBo5z_Ewaj0lO5AVlVlIBntSW76PjjDAedTCAXBG-5dIXmtmdeZrPWVfWPIW2V24HglUASXpfdRK6T5wO9Gtfh7i41mezFcpGrOr-HWRgT783IoqBmtkZh1aFC7Illvd1dqPOfOHB2G1p0YcawLD7JEb0M9fBCgyIhn4xxUErMGcBLAnsX_ci28Zk3WBJVVZrpUdPBQxelVj-fhGWHliT9QS6ksHVfHaWRiV5EqFBjQcWKD6bhYP8LV6bu-PVvpN4wLDb9DHQRFlSXvP1P5FQner-AaIt2mPGryKkgUGve1M0MOPKuQ18CfTKZknsEQYzbvzu2eD5LEq-4aiLZwuGlyPCJcwhz5cIzqRvIFiB1bd_aFsjYpD3YHtLmKecJR4PCNfPSNMzYftsqDYUzVHw-SvFBHz7hPwSiU8M3iNUt-IJrbr_axXWmfoPSIUjRNNjXrjIMnJoy3qSN5_9SIKp1NyaiqP56xDISTVjP8HS5jh72gGqNo9tgvboNBa4ME3Ds5SCw7qUxUWW3hURiEK2rehMVUzpPXLlALym1VAdL74VbonzNRdx4PpiTV8vGP_9jdeEadr5m00]--></g></svg>