<svg xmlns="http://www.w3.org/2000/svg" xmlns:xlink="http://www.w3.org/1999/xlink" contentStyleType="text/css" data-diagram-type="SEQUENCE" height="1113.5417px" preserveAspectRatio="none" style="width:2121px;height:1113px;" version="1.1" viewBox="0 0 2121 1113" width="2121.875px" zoomAndPan="magnify"><defs><linearGradient id="g1ckiplv05rp050" x1="50%" x2="50%" y1="0%" y2="100%"><stop offset="0%" stop-color="#59B6EC"/><stop offset="100%" stop-color="#2FA4E7"/></linearGradient></defs><g><rect fill="#FFFFFF" fill-opacity="0.00000" height="327.832" rx="4.1667" ry="4.1667" style="stroke:#59B6EC;stroke-width:1.0417;" width="1805.9937" x="20.8333" y="341.4714"/><rect fill="#FFFFFF" fill-opacity="0.00000" height="221.6471" rx="4.1667" ry="4.1667" style="stroke:#59B6EC;stroke-width:1.0417;" width="2089.4806" x="20.8333" y="776.5299"/><g><title>User</title><rect fill="#FFFFFF" fill-opacity="0.00000" height="916.9596" width="8.3333" x="49.6623" y="98.9258"/><line style="stroke:#BABDBF;stroke-width:1.0417;stroke-dasharray:5.0,5.0;" x1="53.125" x2="53.125" y1="98.9258" y2="1015.8854"/></g><g><title>UI Component</title><rect fill="#FFFFFF" fill-opacity="0.00000" height="916.9596" width="8.3333" x="421.3765" y="98.9258"/><line style="stroke:#BABDBF;stroke-width:1.0417;stroke-dasharray:5.0,5.0;" x1="424.6033" x2="424.6033" y1="98.9258" y2="1015.8854"/></g><g><title>Validation Component</title><rect fill="#FFFFFF" fill-opacity="0.00000" height="916.9596" width="8.3333" x="575.9725" y="98.9258"/><line style="stroke:#BABDBF;stroke-width:1.0417;stroke-dasharray:5.0,5.0;" x1="579.2694" x2="579.2694" y1="98.9258" y2="1015.8854"/></g><g><title>Database Component</title><rect fill="#FFFFFF" fill-opacity="0.00000" height="916.9596" width="8.3333" x="1013.7655" y="98.9258"/><line style="stroke:#BABDBF;stroke-width:1.0417;stroke-dasharray:5.0,5.0;" x1="1017.5466" x2="1017.5466" y1="98.9258" y2="1015.8854"/></g><g><title>Email Service Component</title><rect fill="#FFFFFF" fill-opacity="0.00000" height="916.9596" width="8.3333" x="1470.638" y="98.9258"/><line style="stroke:#BABDBF;stroke-width:1.0417;stroke-dasharray:5.0,5.0;" x1="1474.3154" x2="1474.3154" y1="98.9258" y2="1015.8854"/></g><g><title>Verification Component</title><rect fill="#FFFFFF" fill-opacity="0.00000" height="916.9596" width="8.3333" x="1817.452" y="98.9258"/><line style="stroke:#BABDBF;stroke-width:1.0417;stroke-dasharray:5.0,5.0;" x1="1820.6614" x2="1820.6614" y1="98.9258" y2="1015.8854"/></g><g><title>Access Control Component</title><rect fill="#FFFFFF" fill-opacity="0.00000" height="916.9596" width="8.3333" x="2002.9032" y="98.9258"/><line style="stroke:#BABDBF;stroke-width:1.0417;stroke-dasharray:5.0,5.0;" x1="2006.9509" x2="2006.9509" y1="98.9258" y2="1015.8854"/></g><g><text fill="#343A40" font-family="Verdana" font-size="12.5" lengthAdjust="spacing" textLength="28.4912" x="36.4583" y="90.7694">User</text><ellipse cx="53.8289" cy="19.7917" fill="url(#g1ckiplv05rp050)" rx="8.3333" ry="8.3333" style="stroke:#2FA4E7;stroke-width:1.0417;"/><path d="M53.8289,28.125 L53.8289,56.25 M40.2873,36.4583 L67.3706,36.4583 M53.8289,56.25 L40.2873,71.875 M53.8289,56.25 L67.3706,71.875 " fill="#FFFFFF" fill-opacity="0.00000" style="stroke:#2FA4E7;stroke-width:1.0417;"/></g><g><text fill="#343A40" font-family="Verdana" font-size="12.5" lengthAdjust="spacing" textLength="28.4912" x="36.4583" y="1031.6549">User</text><ellipse cx="53.8289" cy="1049.1862" fill="url(#g1ckiplv05rp050)" rx="8.3333" ry="8.3333" style="stroke:#2FA4E7;stroke-width:1.0417;"/><path d="M53.8289,1057.5195 L53.8289,1085.6445 M40.2873,1065.8529 L67.3706,1065.8529 M53.8289,1085.6445 L40.2873,1101.2695 M53.8289,1085.6445 L67.3706,1101.2695 " fill="#FFFFFF" fill-opacity="0.00000" style="stroke:#2FA4E7;stroke-width:1.0417;"/></g><g><text fill="#343A40" font-family="Verdana" font-size="12.5" lengthAdjust="spacing" textLength="89.3799" x="377.7283" y="90.7694">UI Component</text><ellipse cx="425.5432" cy="57.2917" fill="url(#g1ckiplv05rp050)" rx="12.5" ry="12.5" style="stroke:#2FA4E7;stroke-width:1.0417;"/><line style="stroke:#2FA4E7;stroke-width:1.0417;" x1="413.0432" x2="438.0432" y1="71.875" y2="71.875"/></g><g><text fill="#343A40" font-family="Verdana" font-size="12.5" lengthAdjust="spacing" textLength="89.3799" x="377.7283" y="1031.6549">UI Component</text><ellipse cx="425.5432" cy="1056.4779" fill="url(#g1ckiplv05rp050)" rx="12.5" ry="12.5" style="stroke:#2FA4E7;stroke-width:1.0417;"/><line style="stroke:#2FA4E7;stroke-width:1.0417;" x1="413.0432" x2="438.0432" y1="1071.0612" y2="1071.0612"/></g><g><text fill="#343A40" font-family="Verdana" font-size="12.5" lengthAdjust="spacing" textLength="139.2395" x="507.3944" y="90.7694">Validation Component</text><ellipse cx="580.1392" cy="57.2917" fill="url(#g1ckiplv05rp050)" rx="12.5" ry="12.5" style="stroke:#2FA4E7;stroke-width:1.0417;"/><line style="stroke:#2FA4E7;stroke-width:1.0417;" x1="567.6392" x2="592.6392" y1="71.875" y2="71.875"/></g><g><text fill="#343A40" font-family="Verdana" font-size="12.5" lengthAdjust="spacing" textLength="139.2395" x="507.3944" y="1031.6549">Validation Component</text><ellipse cx="580.1392" cy="1056.4779" fill="url(#g1ckiplv05rp050)" rx="12.5" ry="12.5" style="stroke:#2FA4E7;stroke-width:1.0417;"/><line style="stroke:#2FA4E7;stroke-width:1.0417;" x1="567.6392" x2="592.6392" y1="1071.0612" y2="1071.0612"/></g><g><text fill="#343A40" font-family="Verdana" font-size="12.5" lengthAdjust="spacing" textLength="136.1877" x="946.7133" y="90.7694">Database Component</text><ellipse cx="1017.9321" cy="57.2917" fill="url(#g1ckiplv05rp050)" rx="12.5" ry="12.5" style="stroke:#2FA4E7;stroke-width:1.0417;"/><line style="stroke:#2FA4E7;stroke-width:1.0417;" x1="1005.4321" x2="1030.4321" y1="71.875" y2="71.875"/></g><g><text fill="#343A40" font-family="Verdana" font-size="12.5" lengthAdjust="spacing" textLength="136.1877" x="946.7133" y="1031.6549">Database Component</text><ellipse cx="1017.9321" cy="1056.4779" fill="url(#g1ckiplv05rp050)" rx="12.5" ry="12.5" style="stroke:#2FA4E7;stroke-width:1.0417;"/><line style="stroke:#2FA4E7;stroke-width:1.0417;" x1="1005.4321" x2="1030.4321" y1="1071.0612" y2="1071.0612"/></g><g><text fill="#343A40" font-family="Verdana" font-size="12.5" lengthAdjust="spacing" textLength="161.3953" x="1390.9821" y="90.7694">Email Service Component</text><ellipse cx="1474.8047" cy="57.2917" fill="url(#g1ckiplv05rp050)" rx="12.5" ry="12.5" style="stroke:#2FA4E7;stroke-width:1.0417;"/><line style="stroke:#2FA4E7;stroke-width:1.0417;" x1="1462.3047" x2="1487.3047" y1="71.875" y2="71.875"/></g><g><text fill="#343A40" font-family="Verdana" font-size="12.5" lengthAdjust="spacing" textLength="161.3953" x="1390.9821" y="1031.6549">Email Service Component</text><ellipse cx="1474.8047" cy="1056.4779" fill="url(#g1ckiplv05rp050)" rx="12.5" ry="12.5" style="stroke:#2FA4E7;stroke-width:1.0417;"/><line style="stroke:#2FA4E7;stroke-width:1.0417;" x1="1462.3047" x2="1487.3047" y1="1071.0612" y2="1071.0612"/></g><g><text fill="#343A40" font-family="Verdana" font-size="12.5" lengthAdjust="spacing" textLength="147.7478" x="1744.6198" y="90.7694">Verification Component</text><ellipse cx="1821.6187" cy="57.2917" fill="url(#g1ckiplv05rp050)" rx="12.5" ry="12.5" style="stroke:#2FA4E7;stroke-width:1.0417;"/><line style="stroke:#2FA4E7;stroke-width:1.0417;" x1="1809.1187" x2="1834.1187" y1="71.875" y2="71.875"/></g><g><text fill="#343A40" font-family="Verdana" font-size="12.5" lengthAdjust="spacing" textLength="147.7478" x="1744.6198" y="1031.6549">Verification Component</text><ellipse cx="1821.6187" cy="1056.4779" fill="url(#g1ckiplv05rp050)" rx="12.5" ry="12.5" style="stroke:#2FA4E7;stroke-width:1.0417;"/><line style="stroke:#2FA4E7;stroke-width:1.0417;" x1="1809.1187" x2="1834.1187" y1="1071.0612" y2="1071.0612"/></g><g><text fill="#343A40" font-family="Verdana" font-size="12.5" lengthAdjust="spacing" textLength="168.988" x="1919.4509" y="90.7694">Access Control Component</text><ellipse cx="2007.0699" cy="57.2917" fill="url(#g1ckiplv05rp050)" rx="12.5" ry="12.5" style="stroke:#2FA4E7;stroke-width:1.0417;"/><line style="stroke:#2FA4E7;stroke-width:1.0417;" x1="1994.5699" x2="2019.5699" y1="71.875" y2="71.875"/></g><g><text fill="#343A40" font-family="Verdana" font-size="12.5" lengthAdjust="spacing" textLength="168.988" x="1919.4509" y="1031.6549">Access Control Component</text><ellipse cx="2007.0699" cy="1056.4779" fill="url(#g1ckiplv05rp050)" rx="12.5" ry="12.5" style="stroke:#2FA4E7;stroke-width:1.0417;"/><line style="stroke:#2FA4E7;stroke-width:1.0417;" x1="1994.5699" x2="2019.5699" y1="1071.0612" y2="1071.0612"/></g><g><polygon fill="#2FA4E7" points="413.0432,136.3932,423.4599,140.5599,413.0432,144.7266,417.2099,140.5599" style="stroke:#2FA4E7;stroke-width:1.0417;"/><line style="stroke:#2FA4E7;stroke-width:3.125;" x1="53.8289" x2="419.2932" y1="140.5599" y2="140.5599"/><text fill="#343A40" font-family="Verdana" font-size="12.5" lengthAdjust="spacing" textLength="153.6194" x="66.3289" y="130.3202">navigateToSignupPage()</text></g><g><line style="stroke:#2FA4E7;stroke-width:3.125;" x1="425.5432" x2="469.2932" y1="180.1107" y2="180.1107"/><line style="stroke:#2FA4E7;stroke-width:3.125;" x1="469.2932" x2="469.2932" y1="180.1107" y2="193.6523"/><line style="stroke:#2FA4E7;stroke-width:3.125;" x1="426.5849" x2="469.2932" y1="193.6523" y2="193.6523"/><polygon fill="#2FA4E7" points="437.0015,189.4857,426.5849,193.6523,437.0015,197.819,432.8349,193.6523" style="stroke:#2FA4E7;stroke-width:1.0417;"/><text fill="#343A40" font-family="Verdana" font-size="12.5" lengthAdjust="spacing" textLength="129.5959" x="438.0432" y="169.871">Display sign-up form</text></g><g><polygon fill="#2FA4E7" points="65.2873,229.0365,54.8706,233.2031,65.2873,237.3698,61.1206,233.2031" style="stroke:#2FA4E7;stroke-width:1.0417;"/><line style="stroke:#2FA4E7;stroke-width:3.125;" x1="59.0373" x2="424.5015" y1="233.2031" y2="233.2031"/><text fill="#343A40" font-family="Verdana" font-size="12.5" lengthAdjust="spacing" textLength="336.2976" x="76.7456" y="222.9635">Show fields for name, email, password, and user type</text></g><g><polygon fill="#2FA4E7" points="567.6392,268.5872,578.0558,272.7539,567.6392,276.9206,571.8058,272.7539" style="stroke:#2FA4E7;stroke-width:1.0417;"/><line style="stroke:#2FA4E7;stroke-width:3.125;" x1="53.8289" x2="573.8892" y1="272.7539" y2="272.7539"/><text fill="#343A40" font-family="Verdana" font-size="12.5" lengthAdjust="spacing" textLength="136.1633" x="66.3289" y="262.5142">inputDetails(userInfo)</text></g><g><line style="stroke:#2FA4E7;stroke-width:3.125;" x1="580.1392" x2="623.8892" y1="312.3047" y2="312.3047"/><line style="stroke:#2FA4E7;stroke-width:3.125;" x1="623.8892" x2="623.8892" y1="312.3047" y2="325.8464"/><line style="stroke:#2FA4E7;stroke-width:3.125;" x1="581.1808" x2="623.8892" y1="325.8464" y2="325.8464"/><polygon fill="#2FA4E7" points="591.5975,321.6797,581.1808,325.8464,591.5975,330.013,587.4308,325.8464" style="stroke:#2FA4E7;stroke-width:1.0417;"/><text fill="#343A40" font-family="Verdana" font-size="12.5" lengthAdjust="spacing" textLength="412.793" x="592.6392" y="302.065">Verify email format, password requirements, and field completion</text></g><path d="M25,341.4714 L96.8201,341.4714 L96.8201,358.1055 L86.4034,368.5221 L20.8333,368.5221 L20.8333,345.638 A4.1667,4.1667 0 0 1 25,341.4714 " fill="#E9ECEF" style="stroke:#868E96;stroke-width:1.0417;"/><rect fill="#FFFFFF" fill-opacity="0.00000" height="327.832" rx="4.1667" ry="4.1667" style="stroke:#59B6EC;stroke-width:1.0417;" width="1805.9937" x="20.8333" y="341.4714"/><text fill="#033C73" font-family="Verdana" font-size="12.5" font-weight="bold" lengthAdjust="spacing" textLength="18.6951" x="41.6667" y="359.3241">alt</text><text fill="#343A40" font-family="Verdana" font-size="12.5" font-weight="bold" lengthAdjust="spacing" textLength="100.4333" x="117.6534" y="360.3658">[Invalid input]</text><g><polygon fill="#2FA4E7" points="65.2873,404.9154,54.8706,409.082,65.2873,413.2487,61.1206,409.082" style="stroke:#2FA4E7;stroke-width:1.0417;"/><line style="stroke:#2FA4E7;stroke-width:3.125;" x1="59.0373" x2="579.0975" y1="409.082" y2="409.082"/><text fill="#343A40" font-family="Verdana" font-size="12.5" lengthAdjust="spacing" textLength="151.3367" x="76.7456" y="398.8424">Prompt to correct errors</text></g><line style="stroke:#59B6EC;stroke-width:1.0417;stroke-dasharray:2.0,2.0;" x1="20.8333" x2="1826.827" y1="418.457" y2="418.457"/><text fill="#343A40" font-family="Verdana" font-size="12.5" font-weight="bold" lengthAdjust="spacing" textLength="88.4094" x="31.25" y="435.2681">[Valid input]</text><g><polygon fill="#2FA4E7" points="1005.4321,471.5169,1015.8488,475.6836,1005.4321,479.8503,1009.5988,475.6836" style="stroke:#2FA4E7;stroke-width:1.0417;"/><line style="stroke:#2FA4E7;stroke-width:3.125;" x1="580.1392" x2="1011.6821" y1="475.6836" y2="475.6836"/><text fill="#343A40" font-family="Verdana" font-size="12.5" lengthAdjust="spacing" textLength="108.7463" x="592.6392" y="465.4439">store user details</text></g><g><line style="stroke:#2FA4E7;stroke-width:3.125;" x1="1017.9321" x2="1061.6821" y1="515.2344" y2="515.2344"/><line style="stroke:#2FA4E7;stroke-width:3.125;" x1="1061.6821" x2="1061.6821" y1="515.2344" y2="528.776"/><line style="stroke:#2FA4E7;stroke-width:3.125;" x1="1018.9738" x2="1061.6821" y1="528.776" y2="528.776"/><polygon fill="#2FA4E7" points="1029.3905,524.6094,1018.9738,528.776,1029.3905,532.9427,1025.2238,528.776" style="stroke:#2FA4E7;stroke-width:1.0417;"/><text fill="#343A40" font-family="Verdana" font-size="12.5" lengthAdjust="spacing" textLength="431.8726" x="1030.4321" y="504.9947">Encrypt password and store profile with "pending verification" status</text></g><g><polygon fill="#2FA4E7" points="1462.3047,564.1602,1472.7214,568.3268,1462.3047,572.4935,1466.4714,568.3268" style="stroke:#2FA4E7;stroke-width:1.0417;"/><line style="stroke:#2FA4E7;stroke-width:3.125;" x1="1017.9321" x2="1468.5547" y1="568.3268" y2="568.3268"/><text fill="#343A40" font-family="Verdana" font-size="12.5" lengthAdjust="spacing" textLength="153.1372" x="1030.4321" y="558.0872">Send confirmation email</text></g><g><line style="stroke:#2FA4E7;stroke-width:3.125;" x1="1474.8047" x2="1518.5547" y1="607.8776" y2="607.8776"/><line style="stroke:#2FA4E7;stroke-width:3.125;" x1="1518.5547" x2="1518.5547" y1="607.8776" y2="621.4193"/><line style="stroke:#2FA4E7;stroke-width:3.125;" x1="1475.8464" x2="1518.5547" y1="621.4193" y2="621.4193"/><polygon fill="#2FA4E7" points="1486.263,617.2526,1475.8464,621.4193,1486.263,625.5859,1482.0964,621.4193" style="stroke:#2FA4E7;stroke-width:1.0417;"/><text fill="#343A40" font-family="Verdana" font-size="12.5" lengthAdjust="spacing" textLength="321.814" x="1487.3047" y="597.6379">Generate unique verification link and send to email</text></g><g><polygon fill="#2FA4E7" points="65.2873,656.8034,54.8706,660.9701,65.2873,665.1367,61.1206,660.9701" style="stroke:#2FA4E7;stroke-width:1.0417;"/><line style="stroke:#2FA4E7;stroke-width:3.125;" x1="59.0373" x2="1473.763" y1="660.9701" y2="660.9701"/><text fill="#343A40" font-family="Verdana" font-size="12.5" lengthAdjust="spacing" textLength="165.2771" x="76.7456" y="650.7304">Email with verification link</text></g><g><polygon fill="#2FA4E7" points="1809.1187,703.6458,1819.5353,707.8125,1809.1187,711.9792,1813.2853,707.8125" style="stroke:#2FA4E7;stroke-width:1.0417;"/><line style="stroke:#2FA4E7;stroke-width:3.125;" x1="53.8289" x2="1815.3687" y1="707.8125" y2="707.8125"/><text fill="#343A40" font-family="Verdana" font-size="12.5" lengthAdjust="spacing" textLength="200.7751" x="66.3289" y="697.5728">verifyAccount(confirmationLink)</text></g><g><line style="stroke:#2FA4E7;stroke-width:3.125;" x1="1821.6187" x2="1865.3687" y1="747.3633" y2="747.3633"/><line style="stroke:#2FA4E7;stroke-width:3.125;" x1="1865.3687" x2="1865.3687" y1="747.3633" y2="760.9049"/><line style="stroke:#2FA4E7;stroke-width:3.125;" x1="1822.6603" x2="1865.3687" y1="760.9049" y2="760.9049"/><polygon fill="#2FA4E7" points="1833.077,756.7383,1822.6603,760.9049,1833.077,765.0716,1828.9103,760.9049" style="stroke:#2FA4E7;stroke-width:1.0417;"/><text fill="#343A40" font-family="Verdana" font-size="12.5" lengthAdjust="spacing" textLength="145.9412" x="1834.1187" y="737.1236">Verify confirmation link</text></g><path d="M25,776.5299 L96.8201,776.5299 L96.8201,793.1641 L86.4034,803.5807 L20.8333,803.5807 L20.8333,780.6966 A4.1667,4.1667 0 0 1 25,776.5299 " fill="#E9ECEF" style="stroke:#868E96;stroke-width:1.0417;"/><rect fill="#FFFFFF" fill-opacity="0.00000" height="221.6471" rx="4.1667" ry="4.1667" style="stroke:#59B6EC;stroke-width:1.0417;" width="2089.4806" x="20.8333" y="776.5299"/><text fill="#033C73" font-family="Verdana" font-size="12.5" font-weight="bold" lengthAdjust="spacing" textLength="18.6951" x="41.6667" y="794.3827">alt</text><text fill="#343A40" font-family="Verdana" font-size="12.5" font-weight="bold" lengthAdjust="spacing" textLength="77.1851" x="117.6534" y="795.4244">[Valid link]</text><g><polygon fill="#2FA4E7" points="1029.3905,839.974,1018.9738,844.1406,1029.3905,848.3073,1025.2238,844.1406" style="stroke:#2FA4E7;stroke-width:1.0417;"/><line style="stroke:#2FA4E7;stroke-width:3.125;" x1="1023.1405" x2="1820.577" y1="844.1406" y2="844.1406"/><text fill="#343A40" font-family="Verdana" font-size="12.5" lengthAdjust="spacing" textLength="188.8794" x="1040.8488" y="833.901">Update user status to "active"</text></g><g><polygon fill="#2FA4E7" points="1994.5699,879.5247,2004.9866,883.6914,1994.5699,887.8581,1998.7366,883.6914" style="stroke:#2FA4E7;stroke-width:1.0417;"/><line style="stroke:#2FA4E7;stroke-width:3.125;" x1="1017.9321" x2="2000.8199" y1="883.6914" y2="883.6914"/><text fill="#343A40" font-family="Verdana" font-size="12.5" lengthAdjust="spacing" textLength="81.4026" x="1030.4321" y="873.4517">Grant access</text></g><g><polygon fill="#2FA4E7" points="65.2873,919.0755,54.8706,923.2422,65.2873,927.4089,61.1206,923.2422" style="stroke:#2FA4E7;stroke-width:1.0417;"/><line style="stroke:#2FA4E7;stroke-width:3.125;" x1="59.0373" x2="2006.0282" y1="923.2422" y2="923.2422"/><text fill="#343A40" font-family="Verdana" font-size="12.5" lengthAdjust="spacing" textLength="228.2166" x="76.7456" y="913.0025">Allow login and access to dashboard</text></g><line style="stroke:#59B6EC;stroke-width:1.0417;stroke-dasharray:2.0,2.0;" x1="20.8333" x2="2110.3139" y1="932.6172" y2="932.6172"/><text fill="#343A40" font-family="Verdana" font-size="12.5" font-weight="bold" lengthAdjust="spacing" textLength="147.1375" x="31.25" y="949.4283">[Invalid/expired link]</text><g><polygon fill="#2FA4E7" points="65.2873,985.6771,54.8706,989.8438,65.2873,994.0104,61.1206,989.8438" style="stroke:#2FA4E7;stroke-width:1.0417;"/><line style="stroke:#2FA4E7;stroke-width:3.125;" x1="59.0373" x2="1820.577" y1="989.8438" y2="989.8438"/><text fill="#343A40" font-family="Verdana" font-size="12.5" lengthAdjust="spacing" textLength="252.7222" x="76.7456" y="979.6041">Prompt to request new confirmation link</text></g><!--SRC=[ZLJ1Rjim3BtxApYVKY35xZqCA9PY2B13WIozipQT25KeLvAJ-Uz7ILxYndAGN0ABV4_auwE- -JqT22godIRaei3A6mjRHxOeYBtoFPJRDVmqXzQm79I03hRhy_SvwGsrgj4hmrV9by0Kj4AFx-Ze2lB_U0fuEQ3Ii25xLDKrAiQ6KAO-igfHLRR2KMWAVAugSauWxAtHLz0K768NR144XCSVOwNW2HYFQeUU_fYDsd7NlkAE5W_5E6c2MIdNQkp12UAnQw4nzZ11XDkUOBCt9sWKwTg5DBdkG4kW8CiIMdJkP6oz1EGQke3mVKkNKZDp4ax5RUTNv8N3BG9gpOrvA7B9innHtpuL4kj7Vwa7B7rsoeeBsRjKN6m1Ac7G5BWAr1xMV0pagQ02v3TJmo36gvL33zu8aRLKUI1hZNK5QV7RstrS4oCAiPC5eIHWdNI93DFK6VmBLxQNoiu2X9OJQMjDepJ1IVazb2rnhNW7nv4zIyb4tzsuChi5mHp29b9meuB-OGdYF29H7dE3x1SnMJ4oTAm-E_fI8cZ57wcfSAKCu8wBXg6bzOxjJoXb8UkHMtCxAmmHrijQcexzOjplR-4GusPnDmW7ytvHBfOJJ9bi53-ZY-R8SpxOjdLKC3IKXXgqAkK1LaSgvmUSVtB2K2pAFyPmXCzaNkH-rbfU36rsYkF04ZQKKQFRlnkqTLgNOVc-qzzMLlMUZYTR6DQSd0UcKqPCcUq_]--></g></svg>